<?xml version="1.0" encoding="UTF-8" standalone="no"?>
<!DOCTYPE svg PUBLIC "-//W3C//DTD SVG 1.1//EN"
 "http://www.w3.org/Graphics/SVG/1.1/DTD/svg11.dtd">
<!-- Generated by graphviz version 2.43.0 (0)
 -->
<!-- Title: LLMAgent::set_overflow_strategy Pages: 1 -->
<svg width="311pt" height="56pt"
 viewBox="0.00 0.00 311.00 56.00" xmlns="http://www.w3.org/2000/svg" xmlns:xlink="http://www.w3.org/1999/xlink">
<g id="graph0" class="graph" transform="scale(1 1) rotate(0) translate(4 52)">
<title>LLMAgent::set_overflow_strategy</title>
<!-- Node1 -->
<g id="Node000001" class="node">
<title>Node1</title>
<g id="a_Node000001"><a xlink:title="Configure how the agent handles context overflow.">
<polygon fill="#999999" stroke="#666666" points="303,-30 170,-30 170,0 303,0 303,-30"/>
<text text-anchor="start" x="178" y="-18" font-family="Helvetica,sans-Serif" font-size="10.00">LLMAgent::set_overflow</text>
<text text-anchor="middle" x="236.5" y="-7" font-family="Helvetica,sans-Serif" font-size="10.00">_strategy</text>
</a>
</g>
</g>
<!-- Node2 -->
<g id="Node000002" class="node">
<title>Node2</title>
<g id="a_Node000002"><a xlink:href="LLM__agent_8cpp.html#a018feeee123d09250300b0a91dc837da" target="_top" xlink:title="Configure the context overflow strategy (C API)">
<polygon fill="white" stroke="#666666" points="134,-30 0,-30 0,0 134,0 134,-30"/>
<text text-anchor="start" x="8" y="-18" font-family="Helvetica,sans-Serif" font-size="10.00">LLMAgent_Set_Overflow</text>
<text text-anchor="middle" x="67" y="-7" font-family="Helvetica,sans-Serif" font-size="10.00">_Strategy</text>
</a>
</g>
</g>
<!-- Node1&#45;&gt;Node2 -->
<g id="edge1_Node000001_Node000002" class="edge">
<title>Node1&#45;&gt;Node2</title>
<g id="a_edge1_Node000001_Node000002"><a xlink:title=" ">
<path fill="none" stroke="#63b8ff" d="M159.51,-15C151.02,-15 142.43,-15 134.08,-15"/>
<polygon fill="#63b8ff" stroke="#63b8ff" points="159.78,-18.5 169.78,-15 159.78,-11.5 159.78,-18.5"/>
</a>
</g>
</g>
<!-- Node2&#45;&gt;Node2 -->
<g id="edge2_Node000002_Node000002" class="edge">
<title>Node2&#45;&gt;Node2</title>
<g id="a_edge2_Node000002_Node000002"><a xlink:title=" ">
<path fill="none" stroke="#63b8ff" d="M96.41,-40.6C92.39,-44.97 82.59,-48 67,-48 40.75,-48 30.91,-39.41 37.47,-30.28"/>
<polygon fill="#63b8ff" stroke="#63b8ff" points="99.91,-40.32 96.53,-30.28 92.91,-40.23 99.91,-40.32"/>
</a>
</g>
</g>
</g>
</svg>
