<?xml version="1.0" encoding="UTF-8" standalone="no"?>
<!DOCTYPE svg PUBLIC "-//W3C//DTD SVG 1.1//EN"
 "http://www.w3.org/Graphics/SVG/1.1/DTD/svg11.dtd">
<!-- Generated by graphviz version 2.43.0 (0)
 -->
<!-- Title: LLMAgent::completion Pages: 1 -->
<svg width="737pt" height="73pt"
 viewBox="0.00 0.00 737.00 72.50" xmlns="http://www.w3.org/2000/svg" xmlns:xlink="http://www.w3.org/1999/xlink">
<g id="graph0" class="graph" transform="scale(1 1) rotate(0) translate(4 68.5)">
<title>LLMAgent::completion</title>
<!-- Node1 -->
<g id="Node000001" class="node">
<title>Node1</title>
<g id="a_Node000001"><a xlink:title="Generate completion with agent&#39;s slot.">
<polygon fill="#999999" stroke="#666666" points="729,-45.5 604,-45.5 604,-26.5 729,-26.5 729,-45.5"/>
<text text-anchor="middle" x="666.5" y="-33.5" font-family="Helvetica,sans-Serif" font-size="10.00">LLMAgent::completion</text>
</a>
</g>
</g>
<!-- Node2 -->
<g id="Node000002" class="node">
<title>Node2</title>
<g id="a_Node000002"><a xlink:href="classLLMAgent.html#aecac08f1cbc4ed079cc75bc98f08d4ce" target="_top" xlink:title="Conduct a chat interaction.">
<polygon fill="white" stroke="#666666" points="220,-46.5 128,-46.5 128,-27.5 220,-27.5 220,-46.5"/>
<text text-anchor="middle" x="174" y="-34.5" font-family="Helvetica,sans-Serif" font-size="10.00">LLMAgent::chat</text>
</a>
</g>
</g>
<!-- Node1&#45;&gt;Node2 -->
<g id="edge1_Node000001_Node000002" class="edge">
<title>Node1&#45;&gt;Node2</title>
<g id="a_edge1_Node000001_Node000002"><a xlink:title=" ">
<path fill="none" stroke="#63b8ff" d="M593.75,-38.46C585.07,-38.68 576.34,-38.87 568,-39 441.96,-40.94 293.16,-39.04 220.09,-37.83"/>
<polygon fill="#63b8ff" stroke="#63b8ff" points="593.97,-41.95 603.87,-38.18 593.78,-34.96 593.97,-41.95"/>
</a>
</g>
</g>
<!-- Node4 -->
<g id="Node000004" class="node">
<title>Node4</title>
<g id="a_Node000004"><a xlink:href="classLLMAgent.html#a6486c1a1fc79c96bbc4442f722e0bba4" target="_top" xlink:title="Summarise the entire history (chunking if needed), embed summary in system message,...">
<polygon fill="white" stroke="#666666" points="568,-30 443,-30 443,0 568,0 568,-30"/>
<text text-anchor="start" x="451" y="-18" font-family="Helvetica,sans-Serif" font-size="10.00">LLMAgent::summarize</text>
<text text-anchor="middle" x="505.5" y="-7" font-family="Helvetica,sans-Serif" font-size="10.00">_history</text>
</a>
</g>
</g>
<!-- Node1&#45;&gt;Node4 -->
<g id="edge4_Node000001_Node000004" class="edge">
<title>Node1&#45;&gt;Node4</title>
<g id="a_edge4_Node000001_Node000004"><a xlink:title=" ">
<path fill="none" stroke="#63b8ff" d="M593.41,-26.48C585.01,-25.37 576.5,-24.25 568.26,-23.16"/>
<polygon fill="#63b8ff" stroke="#63b8ff" points="593.2,-29.98 603.57,-27.82 594.12,-23.04 593.2,-29.98"/>
</a>
</g>
</g>
<!-- Node3 -->
<g id="Node000003" class="node">
<title>Node3</title>
<g id="a_Node000003"><a xlink:href="LLM__agent_8cpp.html#ae783925557d9588c8e4f16e58ba116b2" target="_top" xlink:title="Conduct chat interaction (C API)">
<polygon fill="white" stroke="#666666" points="92,-46.5 0,-46.5 0,-27.5 92,-27.5 92,-46.5"/>
<text text-anchor="middle" x="46" y="-34.5" font-family="Helvetica,sans-Serif" font-size="10.00">LLMAgent_Chat</text>
</a>
</g>
</g>
<!-- Node2&#45;&gt;Node3 -->
<g id="edge2_Node000002_Node000003" class="edge">
<title>Node2&#45;&gt;Node3</title>
<g id="a_edge2_Node000002_Node000003"><a xlink:title=" ">
<path fill="none" stroke="#63b8ff" d="M117.65,-37C109.16,-37 100.48,-37 92.24,-37"/>
<polygon fill="#63b8ff" stroke="#63b8ff" points="117.87,-40.5 127.87,-37 117.87,-33.5 117.87,-40.5"/>
</a>
</g>
</g>
<!-- Node3&#45;&gt;Node3 -->
<g id="edge3_Node000003_Node000003" class="edge">
<title>Node3&#45;&gt;Node3</title>
<g id="a_edge3_Node000003_Node000003"><a xlink:title=" ">
<path fill="none" stroke="#63b8ff" d="M69.7,-56.05C68.12,-60.88 60.22,-64.5 46,-64.5 23.25,-64.5 16.67,-55.23 26.27,-46.58"/>
<polygon fill="#63b8ff" stroke="#63b8ff" points="72.83,-54.45 65.73,-46.58 66.37,-57.16 72.83,-54.45"/>
</a>
</g>
</g>
<!-- Node5 -->
<g id="Node000005" class="node">
<title>Node5</title>
<g id="a_Node000005"><a xlink:href="classLLMAgent.html#a152bf0a1849d69775af9a57144291f56" target="_top" xlink:title="Handle context overflow using the configured strategy before a chat call.">
<polygon fill="white" stroke="#666666" points="407,-27.5 256,-27.5 256,-8.5 407,-8.5 407,-27.5"/>
<text text-anchor="middle" x="331.5" y="-15.5" font-family="Helvetica,sans-Serif" font-size="10.00">LLMAgent::handle_overflow</text>
</a>
</g>
</g>
<!-- Node4&#45;&gt;Node5 -->
<g id="edge5_Node000004_Node000005" class="edge">
<title>Node4&#45;&gt;Node5</title>
<g id="a_edge5_Node000004_Node000005"><a xlink:title=" ">
<path fill="none" stroke="#63b8ff" d="M432.72,-16.25C424.29,-16.4 415.67,-16.55 407.2,-16.7"/>
<polygon fill="#63b8ff" stroke="#63b8ff" points="432.95,-19.75 442.89,-16.07 432.83,-12.75 432.95,-19.75"/>
</a>
</g>
</g>
<!-- Node5&#45;&gt;Node2 -->
<g id="edge6_Node000005_Node000002" class="edge">
<title>Node5&#45;&gt;Node2</title>
<g id="a_edge6_Node000005_Node000002"><a xlink:title=" ">
<path fill="none" stroke="#63b8ff" d="M245.96,-28.33C237.15,-29.41 228.46,-30.47 220.34,-31.46"/>
<polygon fill="#63b8ff" stroke="#63b8ff" points="246.44,-31.8 255.94,-27.11 245.59,-24.85 246.44,-31.8"/>
</a>
</g>
</g>
</g>
</svg>
