<?xml version="1.0" encoding="UTF-8" standalone="no"?>
<!DOCTYPE svg PUBLIC "-//W3C//DTD SVG 1.1//EN"
 "http://www.w3.org/Graphics/SVG/1.1/DTD/svg11.dtd">
<!-- Generated by graphviz version 2.43.0 (0)
 -->
<!-- Title: LLMAgent::get_summary Pages: 1 -->
<svg width="322pt" height="45pt"
 viewBox="0.00 0.00 322.00 45.00" xmlns="http://www.w3.org/2000/svg" xmlns:xlink="http://www.w3.org/1999/xlink">
<g id="graph0" class="graph" transform="scale(1 1) rotate(0) translate(4 41)">
<title>LLMAgent::get_summary</title>
<!-- Node1 -->
<g id="Node000001" class="node">
<title>Node1</title>
<g id="a_Node000001"><a xlink:title="Get the current rolling summary (empty if none has been generated yet)">
<polygon fill="#999999" stroke="#666666" points="314,-19 176,-19 176,0 314,0 314,-19"/>
<text text-anchor="middle" x="245" y="-7" font-family="Helvetica,sans-Serif" font-size="10.00">LLMAgent::get_summary</text>
</a>
</g>
</g>
<!-- Node2 -->
<g id="Node000002" class="node">
<title>Node2</title>
<g id="a_Node000002"><a xlink:href="LLM__agent_8cpp.html#a7928ff4ffef7bd5ed886f128847785bb" target="_top" xlink:title="Get the current rolling summary (C API)">
<polygon fill="white" stroke="#666666" points="140,-19 0,-19 0,0 140,0 140,-19"/>
<text text-anchor="middle" x="70" y="-7" font-family="Helvetica,sans-Serif" font-size="10.00">LLMAgent_Get_Summary</text>
</a>
</g>
</g>
<!-- Node1&#45;&gt;Node2 -->
<g id="edge1_Node000001_Node000002" class="edge">
<title>Node1&#45;&gt;Node2</title>
<g id="a_edge1_Node000001_Node000002"><a xlink:title=" ">
<path fill="none" stroke="#63b8ff" d="M165.38,-9.5C156.91,-9.5 148.35,-9.5 140.01,-9.5"/>
<polygon fill="#63b8ff" stroke="#63b8ff" points="165.63,-13 175.63,-9.5 165.63,-6 165.63,-13"/>
</a>
</g>
</g>
<!-- Node2&#45;&gt;Node2 -->
<g id="edge2_Node000002_Node000002" class="edge">
<title>Node2&#45;&gt;Node2</title>
<g id="a_edge2_Node000002_Node000002"><a xlink:title=" ">
<path fill="none" stroke="#63b8ff" d="M102.56,-27.45C101.63,-32.82 90.78,-37 70,-37 39.07,-37 30.13,-27.73 43.18,-19.08"/>
<polygon fill="#63b8ff" stroke="#63b8ff" points="105.36,-25.35 96.82,-19.08 99.59,-29.31 105.36,-25.35"/>
</a>
</g>
</g>
</g>
</svg>
