<?xml version="1.0" encoding="UTF-8" standalone="no"?>
<!DOCTYPE svg PUBLIC "-//W3C//DTD SVG 1.1//EN"
 "http://www.w3.org/Graphics/SVG/1.1/DTD/svg11.dtd">
<!-- Generated by graphviz version 2.43.0 (0)
 -->
<!-- Title: LLMLocal::get_slot_context_size Pages: 1 -->
<svg width="1012pt" height="97pt"
 viewBox="0.00 0.00 1012.00 96.67" xmlns="http://www.w3.org/2000/svg" xmlns:xlink="http://www.w3.org/1999/xlink">
<g id="graph0" class="graph" transform="scale(1 1) rotate(0) translate(4 92.67)">
<title>LLMLocal::get_slot_context_size</title>
<!-- Node1 -->
<g id="Node000001" class="node">
<title>Node1</title>
<g id="a_Node000001"><a xlink:title="Get slot context size.">
<polygon fill="#999999" stroke="#666666" points="1004,-54 897,-54 897,-24 1004,-24 1004,-54"/>
<text text-anchor="start" x="905" y="-42" font-family="Helvetica,sans-Serif" font-size="10.00">LLMLocal::get_slot</text>
<text text-anchor="middle" x="950.5" y="-31" font-family="Helvetica,sans-Serif" font-size="10.00">_context_size</text>
</a>
</g>
</g>
<!-- Node2 -->
<g id="Node000002" class="node">
<title>Node2</title>
<g id="a_Node000002"><a xlink:href="classLLMAgent.html#afa59516247e9fa3af6161877fcd2cb19" target="_top" xlink:title="Get slot context size (delegate to wrapped LLM)">
<polygon fill="white" stroke="#666666" points="861,-78 751,-78 751,-48 861,-48 861,-78"/>
<text text-anchor="start" x="759" y="-66" font-family="Helvetica,sans-Serif" font-size="10.00">LLMAgent::get_slot</text>
<text text-anchor="middle" x="806" y="-55" font-family="Helvetica,sans-Serif" font-size="10.00">_context_size</text>
</a>
</g>
</g>
<!-- Node1&#45;&gt;Node2 -->
<g id="edge1_Node000001_Node000002" class="edge">
<title>Node1&#45;&gt;Node2</title>
<g id="a_edge1_Node000001_Node000002"><a xlink:title=" ">
<path fill="none" stroke="#63b8ff" d="M886.94,-49.54C878.41,-50.97 869.71,-52.44 861.35,-53.85"/>
<polygon fill="#63b8ff" stroke="#63b8ff" points="887.56,-52.98 896.84,-47.87 886.4,-46.08 887.56,-52.98"/>
</a>
</g>
</g>
<!-- Node8 -->
<g id="Node000008" class="node">
<title>Node8</title>
<g id="a_Node000008"><a xlink:href="classLLMClient.html#a5e38b8ad75b9d4c0c646dda28c1c97a9" target="_top" xlink:title="Get slot context size.">
<polygon fill="white" stroke="#666666" points="861,-30 751,-30 751,0 861,0 861,-30"/>
<text text-anchor="start" x="759" y="-18" font-family="Helvetica,sans-Serif" font-size="10.00">LLMClient::get_slot</text>
<text text-anchor="middle" x="806" y="-7" font-family="Helvetica,sans-Serif" font-size="10.00">_context_size</text>
</a>
</g>
</g>
<!-- Node1&#45;&gt;Node8 -->
<g id="edge11_Node000001_Node000008" class="edge">
<title>Node1&#45;&gt;Node8</title>
<g id="a_edge11_Node000001_Node000008"><a xlink:title=" ">
<path fill="none" stroke="#63b8ff" d="M886.94,-28.46C878.41,-27.03 869.71,-25.56 861.35,-24.15"/>
<polygon fill="#63b8ff" stroke="#63b8ff" points="886.4,-31.92 896.84,-30.13 887.56,-25.02 886.4,-31.92"/>
</a>
</g>
</g>
<!-- Node3 -->
<g id="Node000003" class="node">
<title>Node3</title>
<g id="a_Node000003"><a xlink:href="classLLMAgent.html#a152bf0a1849d69775af9a57144291f56" target="_top" xlink:title="Handle context overflow using the configured strategy before a chat call.">
<polygon fill="white" stroke="#666666" points="407,-69.5 256,-69.5 256,-50.5 407,-50.5 407,-69.5"/>
<text text-anchor="middle" x="331.5" y="-57.5" font-family="Helvetica,sans-Serif" font-size="10.00">LLMAgent::handle_overflow</text>
</a>
</g>
</g>
<!-- Node2&#45;&gt;Node3 -->
<g id="edge2_Node000002_Node000003" class="edge">
<title>Node2&#45;&gt;Node3</title>
<g id="a_edge2_Node000002_Node000003"><a xlink:title=" ">
<path fill="none" stroke="#63b8ff" d="M740.56,-73.13C668.04,-83.04 546.81,-95.14 443,-84 417.43,-81.26 389.09,-75.03 367.52,-69.61"/>
<polygon fill="#63b8ff" stroke="#63b8ff" points="741.47,-76.53 750.89,-71.68 740.51,-69.6 741.47,-76.53"/>
</a>
</g>
</g>
<!-- Node6 -->
<g id="Node000006" class="node">
<title>Node6</title>
<g id="a_Node000006"><a xlink:href="classLLMAgent.html#a6486c1a1fc79c96bbc4442f722e0bba4" target="_top" xlink:title="Summarise the entire history (chunking if needed), embed summary in system message,...">
<polygon fill="white" stroke="#666666" points="568,-75 443,-75 443,-45 568,-45 568,-75"/>
<text text-anchor="start" x="451" y="-63" font-family="Helvetica,sans-Serif" font-size="10.00">LLMAgent::summarize</text>
<text text-anchor="middle" x="505.5" y="-52" font-family="Helvetica,sans-Serif" font-size="10.00">_history</text>
</a>
</g>
</g>
<!-- Node2&#45;&gt;Node6 -->
<g id="edge6_Node000002_Node000006" class="edge">
<title>Node2&#45;&gt;Node6</title>
<g id="a_edge6_Node000002_Node000006"><a xlink:title=" ">
<path fill="none" stroke="#63b8ff" d="M740.68,-62.35C689.57,-61.84 618.54,-61.13 568.14,-60.62"/>
<polygon fill="#63b8ff" stroke="#63b8ff" points="740.91,-65.86 750.94,-62.46 740.98,-58.86 740.91,-65.86"/>
</a>
</g>
</g>
<!-- Node7 -->
<g id="Node000007" class="node">
<title>Node7</title>
<g id="a_Node000007"><a xlink:href="classLLMAgent.html#a1b2ce4f2eddc64953186861d0415a2f5" target="_top" xlink:title="Remove oldest message pairs from the front until history fits within target_context_ratio.">
<polygon fill="white" stroke="#666666" points="715,-35 604,-35 604,-5 715,-5 715,-35"/>
<text text-anchor="start" x="612" y="-23" font-family="Helvetica,sans-Serif" font-size="10.00">LLMAgent::truncate</text>
<text text-anchor="middle" x="659.5" y="-12" font-family="Helvetica,sans-Serif" font-size="10.00">_history</text>
</a>
</g>
</g>
<!-- Node2&#45;&gt;Node7 -->
<g id="edge8_Node000002_Node000007" class="edge">
<title>Node2&#45;&gt;Node7</title>
<g id="a_edge8_Node000002_Node000007"><a xlink:title=" ">
<path fill="none" stroke="#63b8ff" d="M744.79,-45.08C733.64,-41.76 722.09,-38.33 711.25,-35.1"/>
<polygon fill="#63b8ff" stroke="#63b8ff" points="743.88,-48.46 754.46,-47.96 745.87,-41.75 743.88,-48.46"/>
</a>
</g>
</g>
<!-- Node4 -->
<g id="Node000004" class="node">
<title>Node4</title>
<g id="a_Node000004"><a xlink:href="classLLMAgent.html#aecac08f1cbc4ed079cc75bc98f08d4ce" target="_top" xlink:title="Conduct a chat interaction.">
<polygon fill="white" stroke="#666666" points="220,-69.5 128,-69.5 128,-50.5 220,-50.5 220,-69.5"/>
<text text-anchor="middle" x="174" y="-57.5" font-family="Helvetica,sans-Serif" font-size="10.00">LLMAgent::chat</text>
</a>
</g>
</g>
<!-- Node3&#45;&gt;Node4 -->
<g id="edge3_Node000003_Node000004" class="edge">
<title>Node3&#45;&gt;Node4</title>
<g id="a_edge3_Node000003_Node000004"><a xlink:title=" ">
<path fill="none" stroke="#63b8ff" d="M245.68,-60C236.97,-60 228.37,-60 220.34,-60"/>
<polygon fill="#63b8ff" stroke="#63b8ff" points="245.94,-63.5 255.94,-60 245.94,-56.5 245.94,-63.5"/>
</a>
</g>
</g>
<!-- Node5 -->
<g id="Node000005" class="node">
<title>Node5</title>
<g id="a_Node000005"><a xlink:href="LLM__agent_8cpp.html#ae783925557d9588c8e4f16e58ba116b2" target="_top" xlink:title="Conduct chat interaction (C API)">
<polygon fill="white" stroke="#666666" points="92,-69.5 0,-69.5 0,-50.5 92,-50.5 92,-69.5"/>
<text text-anchor="middle" x="46" y="-57.5" font-family="Helvetica,sans-Serif" font-size="10.00">LLMAgent_Chat</text>
</a>
</g>
</g>
<!-- Node4&#45;&gt;Node5 -->
<g id="edge4_Node000004_Node000005" class="edge">
<title>Node4&#45;&gt;Node5</title>
<g id="a_edge4_Node000004_Node000005"><a xlink:title=" ">
<path fill="none" stroke="#63b8ff" d="M117.65,-60C109.16,-60 100.48,-60 92.24,-60"/>
<polygon fill="#63b8ff" stroke="#63b8ff" points="117.87,-63.5 127.87,-60 117.87,-56.5 117.87,-63.5"/>
</a>
</g>
</g>
<!-- Node5&#45;&gt;Node5 -->
<g id="edge5_Node000005_Node000005" class="edge">
<title>Node5&#45;&gt;Node5</title>
<g id="a_edge5_Node000005_Node000005"><a xlink:title=" ">
<path fill="none" stroke="#63b8ff" d="M69.7,-79.05C68.12,-83.88 60.22,-87.5 46,-87.5 23.25,-87.5 16.67,-78.23 26.27,-69.58"/>
<polygon fill="#63b8ff" stroke="#63b8ff" points="72.83,-77.45 65.73,-69.58 66.37,-80.16 72.83,-77.45"/>
</a>
</g>
</g>
<!-- Node6&#45;&gt;Node3 -->
<g id="edge7_Node000006_Node000003" class="edge">
<title>Node6&#45;&gt;Node3</title>
<g id="a_edge7_Node000006_Node000003"><a xlink:title=" ">
<path fill="none" stroke="#63b8ff" d="M432.72,-60C424.29,-60 415.67,-60 407.2,-60"/>
<polygon fill="#63b8ff" stroke="#63b8ff" points="432.89,-63.5 442.89,-60 432.89,-56.5 432.89,-63.5"/>
</a>
</g>
</g>
<!-- Node7&#45;&gt;Node3 -->
<g id="edge9_Node000007_Node000003" class="edge">
<title>Node7&#45;&gt;Node3</title>
<g id="a_edge9_Node000007_Node000003"><a xlink:title=" ">
<path fill="none" stroke="#63b8ff" d="M593.77,-22.44C550.84,-24.64 493.36,-28.7 443,-36 418.52,-39.55 391.37,-45.42 370.11,-50.46"/>
<polygon fill="#63b8ff" stroke="#63b8ff" points="593.99,-25.94 603.8,-21.95 593.64,-18.95 593.99,-25.94"/>
</a>
</g>
</g>
<!-- Node7&#45;&gt;Node6 -->
<g id="edge10_Node000007_Node000006" class="edge">
<title>Node7&#45;&gt;Node6</title>
<g id="a_edge10_Node000007_Node000006"><a xlink:title=" ">
<path fill="none" stroke="#63b8ff" d="M593.72,-37.05C583.71,-39.68 573.43,-42.39 563.6,-44.97"/>
<polygon fill="#63b8ff" stroke="#63b8ff" points="594.84,-40.37 603.62,-34.44 593.06,-33.6 594.84,-40.37"/>
</a>
</g>
</g>
</g>
</svg>
