<?xml version="1.0" encoding="UTF-8" standalone="no"?>
<!DOCTYPE svg PUBLIC "-//W3C//DTD SVG 1.1//EN"
 "http://www.w3.org/Graphics/SVG/1.1/DTD/svg11.dtd">
<!-- Generated by graphviz version 2.43.0 (0)
 -->
<!-- Title: LLM::build_apply_template_json Pages: 1 -->
<svg width="1095pt" height="182pt"
 viewBox="0.00 0.00 1095.00 181.88" xmlns="http://www.w3.org/2000/svg" xmlns:xlink="http://www.w3.org/1999/xlink">
<g id="graph0" class="graph" transform="scale(1 1) rotate(0) translate(4 177.88)">
<title>LLM::build_apply_template_json</title>
<!-- Node1 -->
<g id="Node000001" class="node">
<title>Node1</title>
<g id="a_Node000001"><a xlink:title="Build JSON for template application.">
<polygon fill="#999999" stroke="#666666" points="1087,-105.5 914,-105.5 914,-86.5 1087,-86.5 1087,-105.5"/>
<text text-anchor="middle" x="1000.5" y="-93.5" font-family="Helvetica,sans-Serif" font-size="10.00">LLM::build_apply_template_json</text>
</a>
</g>
</g>
<!-- Node2 -->
<g id="Node000002" class="node">
<title>Node2</title>
<g id="a_Node000002"><a xlink:href="classLLM.html#a390a093c9b269c1c342034baced79106" target="_top" xlink:title="Apply template to messages.">
<polygon fill="white" stroke="#666666" points="878,-105.5 759,-105.5 759,-86.5 878,-86.5 878,-105.5"/>
<text text-anchor="middle" x="818.5" y="-93.5" font-family="Helvetica,sans-Serif" font-size="10.00">LLM::apply_template</text>
</a>
</g>
</g>
<!-- Node1&#45;&gt;Node2 -->
<g id="edge1_Node000001_Node000002" class="edge">
<title>Node1&#45;&gt;Node2</title>
<g id="a_edge1_Node000001_Node000002"><a xlink:title=" ">
<path fill="none" stroke="#63b8ff" d="M903.72,-96C894.99,-96 886.33,-96 878.08,-96"/>
<polygon fill="#63b8ff" stroke="#63b8ff" points="903.98,-99.5 913.98,-96 903.98,-92.5 903.98,-99.5"/>
</a>
</g>
</g>
<!-- Node3 -->
<g id="Node000003" class="node">
<title>Node3</title>
<g id="a_Node000003"><a xlink:href="classLLMAgent.html#aecac08f1cbc4ed079cc75bc98f08d4ce" target="_top" xlink:title="Conduct a chat interaction.">
<polygon fill="white" stroke="#666666" points="220,-133.5 128,-133.5 128,-114.5 220,-114.5 220,-133.5"/>
<text text-anchor="middle" x="174" y="-121.5" font-family="Helvetica,sans-Serif" font-size="10.00">LLMAgent::chat</text>
</a>
</g>
</g>
<!-- Node2&#45;&gt;Node3 -->
<g id="edge2_Node000002_Node000003" class="edge">
<title>Node2&#45;&gt;Node3</title>
<g id="a_edge2_Node000002_Node000003"><a xlink:title=" ">
<path fill="none" stroke="#63b8ff" d="M797.83,-111.65C779.62,-125.07 751.19,-143.39 723,-151 536.54,-201.31 301.7,-154.99 212.06,-133.55"/>
<polygon fill="#63b8ff" stroke="#63b8ff" points="800.05,-114.36 805.9,-105.53 795.82,-108.79 800.05,-114.36"/>
</a>
</g>
</g>
<!-- Node5 -->
<g id="Node000005" class="node">
<title>Node5</title>
<g id="a_Node000005"><a xlink:href="classLLMAgent.html#a152bf0a1849d69775af9a57144291f56" target="_top" xlink:title="Handle context overflow using the configured strategy before a chat call.">
<polygon fill="white" stroke="#666666" points="407,-114.5 256,-114.5 256,-95.5 407,-95.5 407,-114.5"/>
<text text-anchor="middle" x="331.5" y="-102.5" font-family="Helvetica,sans-Serif" font-size="10.00">LLMAgent::handle_overflow</text>
</a>
</g>
</g>
<!-- Node2&#45;&gt;Node5 -->
<g id="edge5_Node000002_Node000005" class="edge">
<title>Node2&#45;&gt;Node5</title>
<g id="a_edge5_Node000002_Node000005"><a xlink:title=" ">
<path fill="none" stroke="#63b8ff" d="M790.04,-109.91C771.61,-118.45 746.48,-128.57 723,-133 596.43,-156.89 443.27,-130.07 372.24,-114.52"/>
<polygon fill="#63b8ff" stroke="#63b8ff" points="791.77,-112.96 799.29,-105.5 788.75,-106.65 791.77,-112.96"/>
</a>
</g>
</g>
<!-- Node6 -->
<g id="Node000006" class="node">
<title>Node6</title>
<g id="a_Node000006"><a xlink:href="LLM_8cpp.html#a51b433682bf76ff935c8377a0980bfdb" target="_top" xlink:title="Apply chat template (C API)">
<polygon fill="white" stroke="#666666" points="723,-105.5 604,-105.5 604,-86.5 723,-86.5 723,-105.5"/>
<text text-anchor="middle" x="663.5" y="-93.5" font-family="Helvetica,sans-Serif" font-size="10.00">LLM_Apply_Template</text>
</a>
</g>
</g>
<!-- Node2&#45;&gt;Node6 -->
<g id="edge7_Node000002_Node000006" class="edge">
<title>Node2&#45;&gt;Node6</title>
<g id="a_edge7_Node000002_Node000006"><a xlink:title=" ">
<path fill="none" stroke="#63b8ff" d="M748.51,-96C740.01,-96 731.38,-96 723.06,-96"/>
<polygon fill="#63b8ff" stroke="#63b8ff" points="748.78,-99.5 758.78,-96 748.78,-92.5 748.78,-99.5"/>
</a>
</g>
</g>
<!-- Node7 -->
<g id="Node000007" class="node">
<title>Node7</title>
<g id="a_Node000007"><a xlink:href="classLLMAgent.html#a6486c1a1fc79c96bbc4442f722e0bba4" target="_top" xlink:title="Summarise the entire history (chunking if needed), embed summary in system message,...">
<polygon fill="white" stroke="#666666" points="568,-73 443,-73 443,-43 568,-43 568,-73"/>
<text text-anchor="start" x="451" y="-61" font-family="Helvetica,sans-Serif" font-size="10.00">LLMAgent::summarize</text>
<text text-anchor="middle" x="505.5" y="-50" font-family="Helvetica,sans-Serif" font-size="10.00">_history</text>
</a>
</g>
</g>
<!-- Node2&#45;&gt;Node7 -->
<g id="edge9_Node000002_Node000007" class="edge">
<title>Node2&#45;&gt;Node7</title>
<g id="a_edge9_Node000002_Node000007"><a xlink:title=" ">
<path fill="none" stroke="#63b8ff" d="M761.95,-84.5C749.19,-82.11 735.66,-79.79 723,-78 671.05,-70.67 611.68,-65.4 568.27,-62.12"/>
<polygon fill="#63b8ff" stroke="#63b8ff" points="761.51,-87.98 771.98,-86.41 762.82,-81.1 761.51,-87.98"/>
</a>
</g>
</g>
<!-- Node8 -->
<g id="Node000008" class="node">
<title>Node8</title>
<g id="a_Node000008"><a xlink:href="classLLMAgent.html#a1b2ce4f2eddc64953186861d0415a2f5" target="_top" xlink:title="Remove oldest message pairs from the front until history fits within target_context_ratio.">
<polygon fill="white" stroke="#666666" points="719,-30 608,-30 608,0 719,0 719,-30"/>
<text text-anchor="start" x="616" y="-18" font-family="Helvetica,sans-Serif" font-size="10.00">LLMAgent::truncate</text>
<text text-anchor="middle" x="663.5" y="-7" font-family="Helvetica,sans-Serif" font-size="10.00">_history</text>
</a>
</g>
</g>
<!-- Node2&#45;&gt;Node8 -->
<g id="edge11_Node000002_Node000008" class="edge">
<title>Node2&#45;&gt;Node8</title>
<g id="a_edge11_Node000002_Node000008"><a xlink:title=" ">
<path fill="none" stroke="#63b8ff" d="M791.65,-81.39C772.75,-70.79 746.43,-56.24 723,-44 714.16,-39.38 704.48,-34.51 695.59,-30.11"/>
<polygon fill="#63b8ff" stroke="#63b8ff" points="790.11,-84.54 800.55,-86.39 793.54,-78.43 790.11,-84.54"/>
</a>
</g>
</g>
<!-- Node4 -->
<g id="Node000004" class="node">
<title>Node4</title>
<g id="a_Node000004"><a xlink:href="LLM__agent_8cpp.html#ae783925557d9588c8e4f16e58ba116b2" target="_top" xlink:title="Conduct chat interaction (C API)">
<polygon fill="white" stroke="#666666" points="92,-133.5 0,-133.5 0,-114.5 92,-114.5 92,-133.5"/>
<text text-anchor="middle" x="46" y="-121.5" font-family="Helvetica,sans-Serif" font-size="10.00">LLMAgent_Chat</text>
</a>
</g>
</g>
<!-- Node3&#45;&gt;Node4 -->
<g id="edge3_Node000003_Node000004" class="edge">
<title>Node3&#45;&gt;Node4</title>
<g id="a_edge3_Node000003_Node000004"><a xlink:title=" ">
<path fill="none" stroke="#63b8ff" d="M117.65,-124C109.16,-124 100.48,-124 92.24,-124"/>
<polygon fill="#63b8ff" stroke="#63b8ff" points="117.87,-127.5 127.87,-124 117.87,-120.5 117.87,-127.5"/>
</a>
</g>
</g>
<!-- Node4&#45;&gt;Node4 -->
<g id="edge4_Node000004_Node000004" class="edge">
<title>Node4&#45;&gt;Node4</title>
<g id="a_edge4_Node000004_Node000004"><a xlink:title=" ">
<path fill="none" stroke="#63b8ff" d="M69.7,-143.05C68.12,-147.88 60.22,-151.5 46,-151.5 23.25,-151.5 16.67,-142.23 26.27,-133.58"/>
<polygon fill="#63b8ff" stroke="#63b8ff" points="72.83,-141.45 65.73,-133.58 66.37,-144.16 72.83,-141.45"/>
</a>
</g>
</g>
<!-- Node5&#45;&gt;Node3 -->
<g id="edge6_Node000005_Node000003" class="edge">
<title>Node5&#45;&gt;Node3</title>
<g id="a_edge6_Node000005_Node000003"><a xlink:title=" ">
<path fill="none" stroke="#63b8ff" d="M245.96,-115.33C237.15,-116.41 228.46,-117.47 220.34,-118.46"/>
<polygon fill="#63b8ff" stroke="#63b8ff" points="246.44,-118.8 255.94,-114.11 245.59,-111.85 246.44,-118.8"/>
</a>
</g>
</g>
<!-- Node6&#45;&gt;Node6 -->
<g id="edge8_Node000006_Node000006" class="edge">
<title>Node6&#45;&gt;Node6</title>
<g id="a_edge8_Node000006_Node000006"><a xlink:title=" ">
<path fill="none" stroke="#63b8ff" d="M692.25,-114.32C691.04,-119.51 681.46,-123.5 663.5,-123.5 636.13,-123.5 628.22,-114.23 639.76,-105.58"/>
<polygon fill="#63b8ff" stroke="#63b8ff" points="695.25,-112.52 687.24,-105.58 689.17,-116 695.25,-112.52"/>
</a>
</g>
</g>
<!-- Node7&#45;&gt;Node5 -->
<g id="edge10_Node000007_Node000005" class="edge">
<title>Node7&#45;&gt;Node5</title>
<g id="a_edge10_Node000007_Node000005"><a xlink:title=" ">
<path fill="none" stroke="#63b8ff" d="M439.63,-75.72C415.12,-82.42 388.17,-89.79 367.42,-95.46"/>
<polygon fill="#63b8ff" stroke="#63b8ff" points="440.88,-79.01 449.61,-73 439.04,-72.26 440.88,-79.01"/>
</a>
</g>
</g>
<!-- Node8&#45;&gt;Node5 -->
<g id="edge12_Node000008_Node000005" class="edge">
<title>Node8&#45;&gt;Node5</title>
<g id="a_edge12_Node000008_Node000005"><a xlink:title=" ">
<path fill="none" stroke="#63b8ff" d="M597.65,-12.53C553.04,-12.75 493.04,-16.93 443,-34 402.64,-47.77 362.28,-79.31 343.46,-95.31"/>
<polygon fill="#63b8ff" stroke="#63b8ff" points="597.78,-16.03 607.79,-12.54 597.79,-9.03 597.78,-16.03"/>
</a>
</g>
</g>
<!-- Node8&#45;&gt;Node7 -->
<g id="edge13_Node000008_Node000007" class="edge">
<title>Node8&#45;&gt;Node7</title>
<g id="a_edge13_Node000008_Node000007"><a xlink:title=" ">
<path fill="none" stroke="#63b8ff" d="M598.17,-32.73C585.83,-36.13 573.02,-39.66 561.03,-42.97"/>
<polygon fill="#63b8ff" stroke="#63b8ff" points="599.23,-36.07 607.94,-30.04 597.37,-29.32 599.23,-36.07"/>
</a>
</g>
</g>
</g>
</svg>
