<?xml version="1.0" encoding="UTF-8" standalone="no"?>
<!DOCTYPE svg PUBLIC "-//W3C//DTD SVG 1.1//EN"
 "http://www.w3.org/Graphics/SVG/1.1/DTD/svg11.dtd">
<!-- Generated by graphviz version 2.43.0 (0)
 -->
<!-- Title: LLM::build_completion_json Pages: 1 -->
<svg width="1141pt" height="100pt"
 viewBox="0.00 0.00 1141.00 100.00" xmlns="http://www.w3.org/2000/svg" xmlns:xlink="http://www.w3.org/1999/xlink">
<g id="graph0" class="graph" transform="scale(1 1) rotate(0) translate(4 96)">
<title>LLM::build_completion_json</title>
<!-- Node1 -->
<g id="Node000001" class="node">
<title>Node1</title>
<g id="a_Node000001"><a xlink:title="Build JSON for completion generation.">
<polygon fill="#999999" stroke="#666666" points="1133,-64 981,-64 981,-45 1133,-45 1133,-64"/>
<text text-anchor="middle" x="1057" y="-52" font-family="Helvetica,sans-Serif" font-size="10.00">LLM::build_completion_json</text>
</a>
</g>
</g>
<!-- Node2 -->
<g id="Node000002" class="node">
<title>Node2</title>
<g id="a_Node000002"><a xlink:href="classLLMAgent.html#a5f98db59a967cc0cac3d6fbe422d6a36" target="_top" xlink:title="Build completion JSON with agent&#39;s slot.">
<polygon fill="white" stroke="#666666" points="945,-83 765,-83 765,-64 945,-64 945,-83"/>
<text text-anchor="middle" x="855" y="-71" font-family="Helvetica,sans-Serif" font-size="10.00">LLMAgent::build_completion_json</text>
</a>
</g>
</g>
<!-- Node1&#45;&gt;Node2 -->
<g id="edge1_Node000001_Node000002" class="edge">
<title>Node1&#45;&gt;Node2</title>
<g id="a_edge1_Node000001_Node000002"><a xlink:title=" ">
<path fill="none" stroke="#63b8ff" d="M970.76,-62.6C962.33,-63.4 953.76,-64.21 945.28,-65.02"/>
<polygon fill="#63b8ff" stroke="#63b8ff" points="971.33,-66.06 980.96,-61.63 970.67,-59.09 971.33,-66.06"/>
</a>
</g>
</g>
<!-- Node3 -->
<g id="Node000003" class="node">
<title>Node3</title>
<g id="a_Node000003"><a xlink:href="classLLM.html#a7e9e25d61ebba558111a74dd136e8c61" target="_top" xlink:title="Generate completion.">
<polygon fill="white" stroke="#666666" points="903.5,-46 806.5,-46 806.5,-27 903.5,-27 903.5,-46"/>
<text text-anchor="middle" x="855" y="-34" font-family="Helvetica,sans-Serif" font-size="10.00">LLM::completion</text>
</a>
</g>
</g>
<!-- Node1&#45;&gt;Node3 -->
<g id="edge2_Node000001_Node000003" class="edge">
<title>Node1&#45;&gt;Node3</title>
<g id="a_edge2_Node000001_Node000003"><a xlink:title=" ">
<path fill="none" stroke="#63b8ff" d="M970.83,-46.83C947.8,-44.76 923.71,-42.59 903.57,-40.78"/>
<polygon fill="#63b8ff" stroke="#63b8ff" points="970.68,-50.34 980.96,-47.75 971.31,-43.36 970.68,-50.34"/>
</a>
</g>
</g>
<!-- Node4 -->
<g id="Node000004" class="node">
<title>Node4</title>
<g id="a_Node000004"><a xlink:href="classLLMAgent.html#afb17d7be97ea8b561b5770b9c7f94659" target="_top" xlink:title="Generate completion with agent&#39;s slot.">
<polygon fill="white" stroke="#666666" points="729,-74 604,-74 604,-55 729,-55 729,-74"/>
<text text-anchor="middle" x="666.5" y="-62" font-family="Helvetica,sans-Serif" font-size="10.00">LLMAgent::completion</text>
</a>
</g>
</g>
<!-- Node3&#45;&gt;Node4 -->
<g id="edge3_Node000003_Node000004" class="edge">
<title>Node3&#45;&gt;Node4</title>
<g id="a_edge3_Node000003_Node000004"><a xlink:title=" ">
<path fill="none" stroke="#63b8ff" d="M796.54,-45.13C775.15,-48.34 750.8,-51.99 729.06,-55.26"/>
<polygon fill="#63b8ff" stroke="#63b8ff" points="797.09,-48.58 806.46,-43.64 796.05,-41.66 797.09,-48.58"/>
</a>
</g>
</g>
<!-- Node9 -->
<g id="Node000009" class="node">
<title>Node9</title>
<g id="a_Node000009"><a xlink:href="LLM_8cpp.html#ad6c74f41038afdaab03c769b7695538f" target="_top" xlink:title="Generate completion (C API)">
<polygon fill="white" stroke="#666666" points="715.5,-19 617.5,-19 617.5,0 715.5,0 715.5,-19"/>
<text text-anchor="middle" x="666.5" y="-7" font-family="Helvetica,sans-Serif" font-size="10.00">LLM_Completion</text>
</a>
</g>
</g>
<!-- Node3&#45;&gt;Node9 -->
<g id="edge10_Node000003_Node000009" class="edge">
<title>Node3&#45;&gt;Node9</title>
<g id="a_edge10_Node000003_Node000009"><a xlink:title=" ">
<path fill="none" stroke="#63b8ff" d="M796.39,-28.16C770.49,-24.41 740.27,-20.04 715.61,-16.46"/>
<polygon fill="#63b8ff" stroke="#63b8ff" points="796.06,-31.65 806.46,-29.62 797.06,-24.72 796.06,-31.65"/>
</a>
</g>
</g>
<!-- Node5 -->
<g id="Node000005" class="node">
<title>Node5</title>
<g id="a_Node000005"><a xlink:href="classLLMAgent.html#aecac08f1cbc4ed079cc75bc98f08d4ce" target="_top" xlink:title="Conduct a chat interaction.">
<polygon fill="white" stroke="#666666" points="220,-74 128,-74 128,-55 220,-55 220,-74"/>
<text text-anchor="middle" x="174" y="-62" font-family="Helvetica,sans-Serif" font-size="10.00">LLMAgent::chat</text>
</a>
</g>
</g>
<!-- Node4&#45;&gt;Node5 -->
<g id="edge4_Node000004_Node000005" class="edge">
<title>Node4&#45;&gt;Node5</title>
<g id="a_edge4_Node000004_Node000005"><a xlink:title=" ">
<path fill="none" stroke="#63b8ff" d="M593.74,-66.14C585.07,-66.29 576.34,-66.41 568,-66.5 441.95,-67.79 293.15,-66.18 220.09,-65.18"/>
<polygon fill="#63b8ff" stroke="#63b8ff" points="593.93,-69.64 603.87,-65.96 593.81,-62.64 593.93,-69.64"/>
</a>
</g>
</g>
<!-- Node7 -->
<g id="Node000007" class="node">
<title>Node7</title>
<g id="a_Node000007"><a xlink:href="classLLMAgent.html#a6486c1a1fc79c96bbc4442f722e0bba4" target="_top" xlink:title="Summarise the entire history (chunking if needed), embed summary in system message,...">
<polygon fill="white" stroke="#666666" points="568,-57.5 443,-57.5 443,-27.5 568,-27.5 568,-57.5"/>
<text text-anchor="start" x="451" y="-45.5" font-family="Helvetica,sans-Serif" font-size="10.00">LLMAgent::summarize</text>
<text text-anchor="middle" x="505.5" y="-34.5" font-family="Helvetica,sans-Serif" font-size="10.00">_history</text>
</a>
</g>
</g>
<!-- Node4&#45;&gt;Node7 -->
<g id="edge7_Node000004_Node000007" class="edge">
<title>Node4&#45;&gt;Node7</title>
<g id="a_edge7_Node000004_Node000007"><a xlink:title=" ">
<path fill="none" stroke="#63b8ff" d="M593.41,-54.53C585.01,-53.36 576.5,-52.19 568.26,-51.05"/>
<polygon fill="#63b8ff" stroke="#63b8ff" points="593.19,-58.03 603.57,-55.93 594.15,-51.09 593.19,-58.03"/>
</a>
</g>
</g>
<!-- Node6 -->
<g id="Node000006" class="node">
<title>Node6</title>
<g id="a_Node000006"><a xlink:href="LLM__agent_8cpp.html#ae783925557d9588c8e4f16e58ba116b2" target="_top" xlink:title="Conduct chat interaction (C API)">
<polygon fill="white" stroke="#666666" points="92,-74 0,-74 0,-55 92,-55 92,-74"/>
<text text-anchor="middle" x="46" y="-62" font-family="Helvetica,sans-Serif" font-size="10.00">LLMAgent_Chat</text>
</a>
</g>
</g>
<!-- Node5&#45;&gt;Node6 -->
<g id="edge5_Node000005_Node000006" class="edge">
<title>Node5&#45;&gt;Node6</title>
<g id="a_edge5_Node000005_Node000006"><a xlink:title=" ">
<path fill="none" stroke="#63b8ff" d="M117.65,-64.5C109.16,-64.5 100.48,-64.5 92.24,-64.5"/>
<polygon fill="#63b8ff" stroke="#63b8ff" points="117.87,-68 127.87,-64.5 117.87,-61 117.87,-68"/>
</a>
</g>
</g>
<!-- Node6&#45;&gt;Node6 -->
<g id="edge6_Node000006_Node000006" class="edge">
<title>Node6&#45;&gt;Node6</title>
<g id="a_edge6_Node000006_Node000006"><a xlink:title=" ">
<path fill="none" stroke="#63b8ff" d="M69.7,-83.55C68.12,-88.38 60.22,-92 46,-92 23.25,-92 16.67,-82.73 26.27,-74.08"/>
<polygon fill="#63b8ff" stroke="#63b8ff" points="72.83,-81.95 65.73,-74.08 66.37,-84.66 72.83,-81.95"/>
</a>
</g>
</g>
<!-- Node8 -->
<g id="Node000008" class="node">
<title>Node8</title>
<g id="a_Node000008"><a xlink:href="classLLMAgent.html#a152bf0a1849d69775af9a57144291f56" target="_top" xlink:title="Handle context overflow using the configured strategy before a chat call.">
<polygon fill="white" stroke="#666666" points="407,-55 256,-55 256,-36 407,-36 407,-55"/>
<text text-anchor="middle" x="331.5" y="-43" font-family="Helvetica,sans-Serif" font-size="10.00">LLMAgent::handle_overflow</text>
</a>
</g>
</g>
<!-- Node7&#45;&gt;Node8 -->
<g id="edge8_Node000007_Node000008" class="edge">
<title>Node7&#45;&gt;Node8</title>
<g id="a_edge8_Node000007_Node000008"><a xlink:title=" ">
<path fill="none" stroke="#63b8ff" d="M432.72,-43.75C424.29,-43.9 415.67,-44.05 407.2,-44.2"/>
<polygon fill="#63b8ff" stroke="#63b8ff" points="432.95,-47.25 442.89,-43.57 432.83,-40.25 432.95,-47.25"/>
</a>
</g>
</g>
<!-- Node8&#45;&gt;Node5 -->
<g id="edge9_Node000008_Node000005" class="edge">
<title>Node8&#45;&gt;Node5</title>
<g id="a_edge9_Node000008_Node000005"><a xlink:title=" ">
<path fill="none" stroke="#63b8ff" d="M245.96,-55.83C237.15,-56.91 228.46,-57.97 220.34,-58.96"/>
<polygon fill="#63b8ff" stroke="#63b8ff" points="246.44,-59.3 255.94,-54.61 245.59,-52.35 246.44,-59.3"/>
</a>
</g>
</g>
<!-- Node9&#45;&gt;Node9 -->
<g id="edge11_Node000009_Node000009" class="edge">
<title>Node9&#45;&gt;Node9</title>
<g id="a_edge11_Node000009_Node000009"><a xlink:title=" ">
<path fill="none" stroke="#63b8ff" d="M696.37,-27.82C695.12,-33.01 685.16,-37 666.5,-37 638.06,-37 629.84,-27.73 641.84,-19.08"/>
<polygon fill="#63b8ff" stroke="#63b8ff" points="699.29,-25.88 691.16,-19.08 693.27,-29.47 699.29,-25.88"/>
</a>
</g>
</g>
</g>
</svg>
