<?xml version="1.0" encoding="UTF-8" standalone="no"?>
<!DOCTYPE svg PUBLIC "-//W3C//DTD SVG 1.1//EN"
 "http://www.w3.org/Graphics/SVG/1.1/DTD/svg11.dtd">
<!-- Generated by graphviz version 2.43.0 (0)
 -->
<!-- Title: LLM::completion_json Pages: 1 -->
<svg width="1082pt" height="147pt"
 viewBox="0.00 0.00 1082.00 147.00" xmlns="http://www.w3.org/2000/svg" xmlns:xlink="http://www.w3.org/1999/xlink">
<g id="graph0" class="graph" transform="scale(1 1) rotate(0) translate(4 143)">
<title>LLM::completion_json</title>
<!-- Node1 -->
<g id="Node000001" class="node">
<title>Node1</title>
<g id="a_Node000001"><a xlink:title="Generate text completion.">
<polygon fill="#999999" stroke="#666666" points="1074,-56 952,-56 952,-37 1074,-37 1074,-56"/>
<text text-anchor="middle" x="1013" y="-44" font-family="Helvetica,sans-Serif" font-size="10.00">LLM::completion_json</text>
</a>
</g>
</g>
<!-- Node2 -->
<g id="Node000002" class="node">
<title>Node2</title>
<g id="a_Node000002"><a xlink:href="classLLM.html#a7e9e25d61ebba558111a74dd136e8c61" target="_top" xlink:title="Generate completion.">
<polygon fill="white" stroke="#666666" points="889,-93 792,-93 792,-74 889,-74 889,-93"/>
<text text-anchor="middle" x="840.5" y="-81" font-family="Helvetica,sans-Serif" font-size="10.00">LLM::completion</text>
</a>
</g>
</g>
<!-- Node1&#45;&gt;Node2 -->
<g id="edge1_Node000001_Node000002" class="edge">
<title>Node1&#45;&gt;Node2</title>
<g id="a_edge1_Node000001_Node000002"><a xlink:title=" ">
<path fill="none" stroke="#63b8ff" d="M958.31,-58.15C934.89,-63.23 907.76,-69.12 885.56,-73.94"/>
<polygon fill="#63b8ff" stroke="#63b8ff" points="959.06,-61.57 968.09,-56.03 957.58,-54.73 959.06,-61.57"/>
</a>
</g>
</g>
<!-- Node9 -->
<g id="Node000009" class="node">
<title>Node9</title>
<g id="a_Node000009"><a xlink:href="classLLMAgent.html#a0a13f9a38043f95640411c2a4598f14f" target="_top" xlink:title="Generate completion (delegate to wrapped LLM)">
<polygon fill="white" stroke="#666666" points="916,-56 765,-56 765,-37 916,-37 916,-56"/>
<text text-anchor="middle" x="840.5" y="-44" font-family="Helvetica,sans-Serif" font-size="10.00">LLMAgent::completion_json</text>
</a>
</g>
</g>
<!-- Node1&#45;&gt;Node9 -->
<g id="edge11_Node000001_Node000009" class="edge">
<title>Node1&#45;&gt;Node9</title>
<g id="a_edge11_Node000001_Node000009"><a xlink:title=" ">
<path fill="none" stroke="#63b8ff" d="M941.68,-46.5C933.21,-46.5 924.54,-46.5 916.01,-46.5"/>
<polygon fill="#63b8ff" stroke="#63b8ff" points="941.89,-50 951.89,-46.5 941.89,-43 941.89,-50"/>
</a>
</g>
</g>
<!-- Node10 -->
<g id="Node000010" class="node">
<title>Node10</title>
<g id="a_Node000010"><a xlink:href="classLLMClient.html#a9613eb92ed2660c3e086754eaf1e3db6" target="_top" xlink:title="Generate text completion (override)">
<polygon fill="white" stroke="#666666" points="916,-19 765,-19 765,0 916,0 916,-19"/>
<text text-anchor="middle" x="840.5" y="-7" font-family="Helvetica,sans-Serif" font-size="10.00">LLMClient::completion_json</text>
</a>
</g>
</g>
<!-- Node1&#45;&gt;Node10 -->
<g id="edge12_Node000001_Node000010" class="edge">
<title>Node1&#45;&gt;Node10</title>
<g id="a_edge12_Node000001_Node000010"><a xlink:title=" ">
<path fill="none" stroke="#63b8ff" d="M958.31,-34.85C934.89,-29.77 907.76,-23.88 885.56,-19.06"/>
<polygon fill="#63b8ff" stroke="#63b8ff" points="957.58,-38.27 968.09,-36.97 959.06,-31.43 957.58,-38.27"/>
</a>
</g>
</g>
<!-- Node3 -->
<g id="Node000003" class="node">
<title>Node3</title>
<g id="a_Node000003"><a xlink:href="classLLMAgent.html#afb17d7be97ea8b561b5770b9c7f94659" target="_top" xlink:title="Generate completion with agent&#39;s slot.">
<polygon fill="white" stroke="#666666" points="729,-121 604,-121 604,-102 729,-102 729,-121"/>
<text text-anchor="middle" x="666.5" y="-109" font-family="Helvetica,sans-Serif" font-size="10.00">LLMAgent::completion</text>
</a>
</g>
</g>
<!-- Node2&#45;&gt;Node3 -->
<g id="edge2_Node000002_Node000003" class="edge">
<title>Node2&#45;&gt;Node3</title>
<g id="a_edge2_Node000002_Node000003"><a xlink:title=" ">
<path fill="none" stroke="#63b8ff" d="M781.55,-92.93C763.6,-95.86 743.83,-99.07 725.86,-102"/>
<polygon fill="#63b8ff" stroke="#63b8ff" points="782.28,-96.36 791.59,-91.3 781.16,-89.45 782.28,-96.36"/>
</a>
</g>
</g>
<!-- Node8 -->
<g id="Node000008" class="node">
<title>Node8</title>
<g id="a_Node000008"><a xlink:href="LLM_8cpp.html#ad6c74f41038afdaab03c769b7695538f" target="_top" xlink:title="Generate completion (C API)">
<polygon fill="white" stroke="#666666" points="715.5,-66 617.5,-66 617.5,-47 715.5,-47 715.5,-66"/>
<text text-anchor="middle" x="666.5" y="-54" font-family="Helvetica,sans-Serif" font-size="10.00">LLM_Completion</text>
</a>
</g>
</g>
<!-- Node2&#45;&gt;Node8 -->
<g id="edge9_Node000002_Node000008" class="edge">
<title>Node2&#45;&gt;Node8</title>
<g id="a_edge9_Node000002_Node000008"><a xlink:title=" ">
<path fill="none" stroke="#63b8ff" d="M781.64,-74.42C760.23,-71.06 736.21,-67.29 715.75,-64.07"/>
<polygon fill="#63b8ff" stroke="#63b8ff" points="781.17,-77.89 791.59,-75.98 782.25,-70.97 781.17,-77.89"/>
</a>
</g>
</g>
<!-- Node4 -->
<g id="Node000004" class="node">
<title>Node4</title>
<g id="a_Node000004"><a xlink:href="classLLMAgent.html#aecac08f1cbc4ed079cc75bc98f08d4ce" target="_top" xlink:title="Conduct a chat interaction.">
<polygon fill="white" stroke="#666666" points="220,-121 128,-121 128,-102 220,-102 220,-121"/>
<text text-anchor="middle" x="174" y="-109" font-family="Helvetica,sans-Serif" font-size="10.00">LLMAgent::chat</text>
</a>
</g>
</g>
<!-- Node3&#45;&gt;Node4 -->
<g id="edge3_Node000003_Node000004" class="edge">
<title>Node3&#45;&gt;Node4</title>
<g id="a_edge3_Node000003_Node000004"><a xlink:title=" ">
<path fill="none" stroke="#63b8ff" d="M593.74,-113.14C585.07,-113.29 576.34,-113.41 568,-113.5 441.95,-114.79 293.15,-113.18 220.09,-112.18"/>
<polygon fill="#63b8ff" stroke="#63b8ff" points="593.93,-116.64 603.87,-112.96 593.81,-109.64 593.93,-116.64"/>
</a>
</g>
</g>
<!-- Node6 -->
<g id="Node000006" class="node">
<title>Node6</title>
<g id="a_Node000006"><a xlink:href="classLLMAgent.html#a6486c1a1fc79c96bbc4442f722e0bba4" target="_top" xlink:title="Summarise the entire history (chunking if needed), embed summary in system message,...">
<polygon fill="white" stroke="#666666" points="568,-104.5 443,-104.5 443,-74.5 568,-74.5 568,-104.5"/>
<text text-anchor="start" x="451" y="-92.5" font-family="Helvetica,sans-Serif" font-size="10.00">LLMAgent::summarize</text>
<text text-anchor="middle" x="505.5" y="-81.5" font-family="Helvetica,sans-Serif" font-size="10.00">_history</text>
</a>
</g>
</g>
<!-- Node3&#45;&gt;Node6 -->
<g id="edge6_Node000003_Node000006" class="edge">
<title>Node3&#45;&gt;Node6</title>
<g id="a_edge6_Node000003_Node000006"><a xlink:title=" ">
<path fill="none" stroke="#63b8ff" d="M593.41,-101.53C585.01,-100.36 576.5,-99.19 568.26,-98.05"/>
<polygon fill="#63b8ff" stroke="#63b8ff" points="593.19,-105.03 603.57,-102.93 594.15,-98.09 593.19,-105.03"/>
</a>
</g>
</g>
<!-- Node5 -->
<g id="Node000005" class="node">
<title>Node5</title>
<g id="a_Node000005"><a xlink:href="LLM__agent_8cpp.html#ae783925557d9588c8e4f16e58ba116b2" target="_top" xlink:title="Conduct chat interaction (C API)">
<polygon fill="white" stroke="#666666" points="92,-121 0,-121 0,-102 92,-102 92,-121"/>
<text text-anchor="middle" x="46" y="-109" font-family="Helvetica,sans-Serif" font-size="10.00">LLMAgent_Chat</text>
</a>
</g>
</g>
<!-- Node4&#45;&gt;Node5 -->
<g id="edge4_Node000004_Node000005" class="edge">
<title>Node4&#45;&gt;Node5</title>
<g id="a_edge4_Node000004_Node000005"><a xlink:title=" ">
<path fill="none" stroke="#63b8ff" d="M117.65,-111.5C109.16,-111.5 100.48,-111.5 92.24,-111.5"/>
<polygon fill="#63b8ff" stroke="#63b8ff" points="117.87,-115 127.87,-111.5 117.87,-108 117.87,-115"/>
</a>
</g>
</g>
<!-- Node5&#45;&gt;Node5 -->
<g id="edge5_Node000005_Node000005" class="edge">
<title>Node5&#45;&gt;Node5</title>
<g id="a_edge5_Node000005_Node000005"><a xlink:title=" ">
<path fill="none" stroke="#63b8ff" d="M69.7,-130.55C68.12,-135.38 60.22,-139 46,-139 23.25,-139 16.67,-129.73 26.27,-121.08"/>
<polygon fill="#63b8ff" stroke="#63b8ff" points="72.83,-128.95 65.73,-121.08 66.37,-131.66 72.83,-128.95"/>
</a>
</g>
</g>
<!-- Node7 -->
<g id="Node000007" class="node">
<title>Node7</title>
<g id="a_Node000007"><a xlink:href="classLLMAgent.html#a152bf0a1849d69775af9a57144291f56" target="_top" xlink:title="Handle context overflow using the configured strategy before a chat call.">
<polygon fill="white" stroke="#666666" points="407,-102 256,-102 256,-83 407,-83 407,-102"/>
<text text-anchor="middle" x="331.5" y="-90" font-family="Helvetica,sans-Serif" font-size="10.00">LLMAgent::handle_overflow</text>
</a>
</g>
</g>
<!-- Node6&#45;&gt;Node7 -->
<g id="edge7_Node000006_Node000007" class="edge">
<title>Node6&#45;&gt;Node7</title>
<g id="a_edge7_Node000006_Node000007"><a xlink:title=" ">
<path fill="none" stroke="#63b8ff" d="M432.72,-90.75C424.29,-90.9 415.67,-91.05 407.2,-91.2"/>
<polygon fill="#63b8ff" stroke="#63b8ff" points="432.95,-94.25 442.89,-90.57 432.83,-87.25 432.95,-94.25"/>
</a>
</g>
</g>
<!-- Node7&#45;&gt;Node4 -->
<g id="edge8_Node000007_Node000004" class="edge">
<title>Node7&#45;&gt;Node4</title>
<g id="a_edge8_Node000007_Node000004"><a xlink:title=" ">
<path fill="none" stroke="#63b8ff" d="M245.96,-102.83C237.15,-103.91 228.46,-104.97 220.34,-105.96"/>
<polygon fill="#63b8ff" stroke="#63b8ff" points="246.44,-106.3 255.94,-101.61 245.59,-99.35 246.44,-106.3"/>
</a>
</g>
</g>
<!-- Node8&#45;&gt;Node8 -->
<g id="edge10_Node000008_Node000008" class="edge">
<title>Node8&#45;&gt;Node8</title>
<g id="a_edge10_Node000008_Node000008"><a xlink:title=" ">
<path fill="none" stroke="#63b8ff" d="M696.37,-74.82C695.12,-80.01 685.16,-84 666.5,-84 638.06,-84 629.84,-74.73 641.84,-66.08"/>
<polygon fill="#63b8ff" stroke="#63b8ff" points="699.29,-72.88 691.16,-66.08 693.27,-76.47 699.29,-72.88"/>
</a>
</g>
</g>
</g>
</svg>
