<?xml version="1.0" encoding="UTF-8" standalone="no"?>
<!DOCTYPE svg PUBLIC "-//W3C//DTD SVG 1.1//EN"
 "http://www.w3.org/Graphics/SVG/1.1/DTD/svg11.dtd">
<!-- Generated by graphviz version 2.43.0 (0)
 -->
<!-- Title: LLMClient::is_remote Pages: 1 -->
<svg width="480pt" height="383pt"
 viewBox="0.00 0.00 480.00 383.00" xmlns="http://www.w3.org/2000/svg" xmlns:xlink="http://www.w3.org/1999/xlink">
<g id="graph0" class="graph" transform="scale(1 1) rotate(0) translate(4 379)">
<title>LLMClient::is_remote</title>
<!-- Node1 -->
<g id="Node000001" class="node">
<title>Node1</title>
<g id="a_Node000001"><a xlink:title="Check if this is a remote client.">
<polygon fill="#999999" stroke="#666666" points="472,-205 353,-205 353,-186 472,-186 472,-205"/>
<text text-anchor="middle" x="412.5" y="-193" font-family="Helvetica,sans-Serif" font-size="10.00">LLMClient::is_remote</text>
</a>
</g>
</g>
<!-- Node2 -->
<g id="Node000002" class="node">
<title>Node2</title>
<g id="a_Node000002"><a xlink:href="classLLMClient.html#a5e0d4af22b373efdb12ab7512ff48f5f" target="_top" xlink:title="Apply a chat template to message data.">
<polygon fill="white" stroke="#666666" points="317,-375 144,-375 144,-356 317,-356 317,-375"/>
<text text-anchor="middle" x="230.5" y="-363" font-family="Helvetica,sans-Serif" font-size="10.00">LLMClient::apply_template_json</text>
</a>
</g>
</g>
<!-- Node1&#45;&gt;Node2 -->
<g id="edge1_Node000001_Node000002" class="edge">
<title>Node1&#45;&gt;Node2</title>
<g id="a_edge1_Node000001_Node000002"><a xlink:title=" ">
<path fill="none" stroke="#63b8ff" d="M405.12,-215C393.31,-247.88 364.79,-314.03 317,-347.5 312.15,-350.89 306.8,-353.67 301.21,-355.94"/>
<polygon fill="#63b8ff" stroke="#63b8ff" points="408.55,-215.82 408.49,-205.22 401.93,-213.54 408.55,-215.82"/>
</a>
</g>
</g>
<!-- Node3 -->
<g id="Node000003" class="node">
<title>Node3</title>
<g id="a_Node000003"><a xlink:href="classLLMClient.html#af0eeeae8c4360c2c8a9af632d13beb1d" target="_top" xlink:title="Cancel running request (override)">
<polygon fill="white" stroke="#666666" points="281.5,-338 179.5,-338 179.5,-319 281.5,-319 281.5,-338"/>
<text text-anchor="middle" x="230.5" y="-326" font-family="Helvetica,sans-Serif" font-size="10.00">LLMClient::cancel</text>
</a>
</g>
</g>
<!-- Node1&#45;&gt;Node3 -->
<g id="edge2_Node000001_Node000003" class="edge">
<title>Node1&#45;&gt;Node3</title>
<g id="a_edge2_Node000001_Node000003"><a xlink:title=" ">
<path fill="none" stroke="#63b8ff" d="M401.76,-213.89C387.03,-239.78 356.58,-286.5 317,-310.5 306.36,-316.95 293.77,-321.12 281.56,-323.8"/>
<polygon fill="#63b8ff" stroke="#63b8ff" points="404.85,-215.53 406.62,-205.08 398.72,-212.15 404.85,-215.53"/>
</a>
</g>
</g>
<!-- Node4 -->
<g id="Node000004" class="node">
<title>Node4</title>
<g id="a_Node000004"><a xlink:href="classLLMClient.html#a9613eb92ed2660c3e086754eaf1e3db6" target="_top" xlink:title="Generate text completion (override)">
<polygon fill="white" stroke="#666666" points="306,-301 155,-301 155,-282 306,-282 306,-301"/>
<text text-anchor="middle" x="230.5" y="-289" font-family="Helvetica,sans-Serif" font-size="10.00">LLMClient::completion_json</text>
</a>
</g>
</g>
<!-- Node1&#45;&gt;Node4 -->
<g id="edge3_Node000001_Node000004" class="edge">
<title>Node1&#45;&gt;Node4</title>
<g id="a_edge3_Node000001_Node000004"><a xlink:title=" ">
<path fill="none" stroke="#63b8ff" d="M395.8,-212.65C378.34,-230.64 348.41,-258.37 317,-273.5 309.89,-276.92 302.15,-279.7 294.31,-281.95"/>
<polygon fill="#63b8ff" stroke="#63b8ff" points="398.58,-214.81 402.91,-205.15 393.49,-210 398.58,-214.81"/>
</a>
</g>
</g>
<!-- Node5 -->
<g id="Node000005" class="node">
<title>Node5</title>
<g id="a_Node000005"><a xlink:href="classLLMClient.html#a67449d6548e6bf936bd0ebfc768a8c82" target="_top" xlink:title="Convert tokens back to text.">
<polygon fill="white" stroke="#666666" points="305,-264 156,-264 156,-245 305,-245 305,-264"/>
<text text-anchor="middle" x="230.5" y="-252" font-family="Helvetica,sans-Serif" font-size="10.00">LLMClient::detokenize_json</text>
</a>
</g>
</g>
<!-- Node1&#45;&gt;Node5 -->
<g id="edge4_Node000001_Node000005" class="edge">
<title>Node1&#45;&gt;Node5</title>
<g id="a_edge4_Node000001_Node000005"><a xlink:title=" ">
<path fill="none" stroke="#63b8ff" d="M383.35,-209.5C364.86,-218.24 339.93,-229.2 317,-236.5 306.88,-239.72 295.91,-242.53 285.3,-244.91"/>
<polygon fill="#63b8ff" stroke="#63b8ff" points="384.89,-212.64 392.39,-205.15 381.86,-206.33 384.89,-212.64"/>
</a>
</g>
</g>
<!-- Node6 -->
<g id="Node000006" class="node">
<title>Node6</title>
<g id="a_Node000006"><a xlink:href="classLLMClient.html#ad25a26b154b875a4e0f0fd7515e6f96f" target="_top" xlink:title="Generate embeddings with HTTP response support.">
<polygon fill="white" stroke="#666666" points="308.5,-227 152.5,-227 152.5,-208 308.5,-208 308.5,-227"/>
<text text-anchor="middle" x="230.5" y="-215" font-family="Helvetica,sans-Serif" font-size="10.00">LLMClient::embeddings_json</text>
</a>
</g>
</g>
<!-- Node1&#45;&gt;Node6 -->
<g id="edge5_Node000001_Node000006" class="edge">
<title>Node1&#45;&gt;Node6</title>
<g id="a_edge5_Node000001_Node000006"><a xlink:title=" ">
<path fill="none" stroke="#63b8ff" d="M342.52,-203.93C331.42,-205.29 319.87,-206.7 308.59,-208.08"/>
<polygon fill="#63b8ff" stroke="#63b8ff" points="343.06,-207.39 352.56,-202.7 342.21,-200.44 343.06,-207.39"/>
</a>
</g>
</g>
<!-- Node7 -->
<g id="Node000007" class="node">
<title>Node7</title>
<g id="a_Node000007"><a xlink:href="classLLMClient.html#a1564f7ffcde80f00ffc57b72531d9882" target="_top" xlink:title="Get available processing slot (override)">
<polygon fill="white" stroke="#666666" points="287,-189.5 174,-189.5 174,-159.5 287,-159.5 287,-189.5"/>
<text text-anchor="start" x="182" y="-177.5" font-family="Helvetica,sans-Serif" font-size="10.00">LLMClient::get_next</text>
<text text-anchor="middle" x="230.5" y="-166.5" font-family="Helvetica,sans-Serif" font-size="10.00">_available_slot</text>
</a>
</g>
</g>
<!-- Node1&#45;&gt;Node7 -->
<g id="edge6_Node000001_Node000007" class="edge">
<title>Node1&#45;&gt;Node7</title>
<g id="a_edge6_Node000001_Node000007"><a xlink:title=" ">
<path fill="none" stroke="#63b8ff" d="M342.54,-187.45C324.24,-185.32 304.71,-183.04 287.21,-181"/>
<polygon fill="#63b8ff" stroke="#63b8ff" points="342.22,-190.94 352.56,-188.62 343.03,-183.99 342.22,-190.94"/>
</a>
</g>
</g>
<!-- Node8 -->
<g id="Node000008" class="node">
<title>Node8</title>
<g id="a_Node000008"><a xlink:href="classLLMClient.html#a5e38b8ad75b9d4c0c646dda28c1c97a9" target="_top" xlink:title="Get slot context size.">
<polygon fill="white" stroke="#666666" points="285.5,-141.5 175.5,-141.5 175.5,-111.5 285.5,-111.5 285.5,-141.5"/>
<text text-anchor="start" x="183.5" y="-129.5" font-family="Helvetica,sans-Serif" font-size="10.00">LLMClient::get_slot</text>
<text text-anchor="middle" x="230.5" y="-118.5" font-family="Helvetica,sans-Serif" font-size="10.00">_context_size</text>
</a>
</g>
</g>
<!-- Node1&#45;&gt;Node8 -->
<g id="edge7_Node000001_Node000008" class="edge">
<title>Node1&#45;&gt;Node8</title>
<g id="a_edge7_Node000001_Node000008"><a xlink:title=" ">
<path fill="none" stroke="#63b8ff" d="M384.72,-181.24C366.09,-171.69 340.47,-159.31 317,-150.5 307.04,-146.76 296.24,-143.3 285.77,-140.23"/>
<polygon fill="#63b8ff" stroke="#63b8ff" points="383.29,-184.44 393.78,-185.94 386.52,-178.23 383.29,-184.44"/>
</a>
</g>
</g>
<!-- Node9 -->
<g id="Node000009" class="node">
<title>Node9</title>
<g id="a_Node000009"><a xlink:href="classLLMClient.html#a17346625e29f46f976adc93388724668" target="_top" xlink:title="Configure SSL certificate for remote connections.">
<polygon fill="white" stroke="#666666" points="284.5,-93 176.5,-93 176.5,-74 284.5,-74 284.5,-93"/>
<text text-anchor="middle" x="230.5" y="-81" font-family="Helvetica,sans-Serif" font-size="10.00">LLMClient::set_SSL</text>
</a>
</g>
</g>
<!-- Node1&#45;&gt;Node9 -->
<g id="edge8_Node000001_Node000009" class="edge">
<title>Node1&#45;&gt;Node9</title>
<g id="a_edge8_Node000001_Node000009"><a xlink:title=" ">
<path fill="none" stroke="#63b8ff" d="M398.49,-177.63C381.99,-156.33 351.5,-121.26 317,-102.5 307.11,-97.12 295.8,-93.27 284.71,-90.5"/>
<polygon fill="#63b8ff" stroke="#63b8ff" points="395.86,-179.95 404.68,-185.83 401.45,-175.74 395.86,-179.95"/>
</a>
</g>
</g>
<!-- Node11 -->
<g id="Node000011" class="node">
<title>Node11</title>
<g id="a_Node000011"><a xlink:href="classLLMClient.html#a273747787cead016d69c57780d9c11ba" target="_top" xlink:title="Manage slots with HTTP response support.">
<polygon fill="white" stroke="#666666" points="287.5,-56 173.5,-56 173.5,-37 287.5,-37 287.5,-56"/>
<text text-anchor="middle" x="230.5" y="-44" font-family="Helvetica,sans-Serif" font-size="10.00">LLMClient::slot_json</text>
</a>
</g>
</g>
<!-- Node1&#45;&gt;Node11 -->
<g id="edge11_Node000001_Node000011" class="edge">
<title>Node1&#45;&gt;Node11</title>
<g id="a_edge11_Node000001_Node000011"><a xlink:title=" ">
<path fill="none" stroke="#63b8ff" d="M403.15,-176.45C389.5,-147.65 359.6,-93.44 317,-65.5 308.23,-59.75 297.97,-55.71 287.67,-52.89"/>
<polygon fill="#63b8ff" stroke="#63b8ff" points="400.09,-178.18 407.44,-185.81 406.46,-175.26 400.09,-178.18"/>
</a>
</g>
</g>
<!-- Node12 -->
<g id="Node000012" class="node">
<title>Node12</title>
<g id="a_Node000012"><a xlink:href="classLLMClient.html#aedfc3267eeda5ae10fef18f614b5df0f" target="_top" xlink:title="Tokenize input (override)">
<polygon fill="white" stroke="#666666" points="299,-19 162,-19 162,0 299,0 299,-19"/>
<text text-anchor="middle" x="230.5" y="-7" font-family="Helvetica,sans-Serif" font-size="10.00">LLMClient::tokenize_json</text>
</a>
</g>
</g>
<!-- Node1&#45;&gt;Node12 -->
<g id="edge12_Node000001_Node000012" class="edge">
<title>Node1&#45;&gt;Node12</title>
<g id="a_edge12_Node000001_Node000012"><a xlink:title=" ">
<path fill="none" stroke="#63b8ff" d="M406.11,-175.65C395.4,-140.22 367.98,-66.24 317,-28.5 311.62,-24.52 305.57,-21.35 299.23,-18.82"/>
<polygon fill="#63b8ff" stroke="#63b8ff" points="402.87,-177.07 409,-185.71 409.6,-175.13 402.87,-177.07"/>
</a>
</g>
</g>
<!-- Node10 -->
<g id="Node000010" class="node">
<title>Node10</title>
<g id="a_Node000010"><a xlink:href="LLM__client_8cpp.html#a76b46ac93bf8735a0e2bb0e2cc34f4d0" target="_top" xlink:title="Set SSL certificate (C API)">
<polygon fill="white" stroke="#666666" points="108,-93 0,-93 0,-74 108,-74 108,-93"/>
<text text-anchor="middle" x="54" y="-81" font-family="Helvetica,sans-Serif" font-size="10.00">LLMClient_Set_SSL</text>
</a>
</g>
</g>
<!-- Node9&#45;&gt;Node10 -->
<g id="edge9_Node000009_Node000010" class="edge">
<title>Node9&#45;&gt;Node10</title>
<g id="a_edge9_Node000009_Node000010"><a xlink:title=" ">
<path fill="none" stroke="#63b8ff" d="M166.14,-83.5C147.16,-83.5 126.54,-83.5 108.28,-83.5"/>
<polygon fill="#63b8ff" stroke="#63b8ff" points="166.2,-87 176.2,-83.5 166.2,-80 166.2,-87"/>
</a>
</g>
</g>
<!-- Node10&#45;&gt;Node10 -->
<g id="edge10_Node000010_Node000010" class="edge">
<title>Node10&#45;&gt;Node10</title>
<g id="a_edge10_Node000010_Node000010"><a xlink:title=" ">
<path fill="none" stroke="#63b8ff" d="M86.93,-101.45C86,-106.82 75.02,-111 54,-111 22.72,-111 13.68,-101.73 26.87,-93.08"/>
<polygon fill="#63b8ff" stroke="#63b8ff" points="89.7,-99.3 81.13,-93.08 83.95,-103.29 89.7,-99.3"/>
</a>
</g>
</g>
</g>
</svg>
