<?xml version="1.0" encoding="UTF-8" standalone="no"?>
<!DOCTYPE svg PUBLIC "-//W3C//DTD SVG 1.1//EN"
 "http://www.w3.org/Graphics/SVG/1.1/DTD/svg11.dtd">
<!-- Generated by graphviz version 2.43.0 (0)
 -->
<!-- Title: ResponseConcatenator::build_concatenated_json Pages: 1 -->
<svg width="316pt" height="86pt"
 viewBox="0.00 0.00 316.00 86.00" xmlns="http://www.w3.org/2000/svg" xmlns:xlink="http://www.w3.org/1999/xlink">
<g id="graph0" class="graph" transform="scale(1 1) rotate(0) translate(4 82)">
<title>ResponseConcatenator::build_concatenated_json</title>
<!-- Node1 -->
<g id="Node000001" class="node">
<title>Node1</title>
<g id="a_Node000001"><a xlink:title="Build the final concatenated JSON result.">
<polygon fill="#999999" stroke="#666666" points="308,-54 165,-54 165,-24 308,-24 308,-54"/>
<text text-anchor="start" x="173" y="-42" font-family="Helvetica,sans-Serif" font-size="10.00">ResponseConcatenator</text>
<text text-anchor="middle" x="236.5" y="-31" font-family="Helvetica,sans-Serif" font-size="10.00">::build_concatenated_json</text>
</a>
</g>
</g>
<!-- Node2 -->
<g id="Node000002" class="node">
<title>Node2</title>
<g id="a_Node000002"><a xlink:href="classResponseConcatenator.html#a8c7ab447055fa05f25571b5530332be7" target="_top" xlink:title="Get the complete result as JSON string.">
<polygon fill="white" stroke="#666666" points="129,-78 0,-78 0,-48 129,-48 129,-78"/>
<text text-anchor="start" x="8" y="-66" font-family="Helvetica,sans-Serif" font-size="10.00">ResponseConcatenator</text>
<text text-anchor="middle" x="64.5" y="-55" font-family="Helvetica,sans-Serif" font-size="10.00">::get_result_json</text>
</a>
</g>
</g>
<!-- Node1&#45;&gt;Node2 -->
<g id="edge1_Node000001_Node000002" class="edge">
<title>Node1&#45;&gt;Node2</title>
<g id="a_edge1_Node000001_Node000002"><a xlink:title=" ">
<path fill="none" stroke="#63b8ff" d="M154.81,-50.39C146.18,-51.61 137.5,-52.84 129.11,-54.02"/>
<polygon fill="#63b8ff" stroke="#63b8ff" points="155.47,-53.83 164.88,-48.97 154.49,-46.9 155.47,-53.83"/>
</a>
</g>
</g>
<!-- Node3 -->
<g id="Node000003" class="node">
<title>Node3</title>
<g id="a_Node000003"><a xlink:href="classResponseConcatenator.html#a0c8a62c8c26209a3a5d34efab4b0e30b" target="_top" xlink:title="Process a single chunk and accumulate its content/tokens.">
<polygon fill="white" stroke="#666666" points="129,-30 0,-30 0,0 129,0 129,-30"/>
<text text-anchor="start" x="8" y="-18" font-family="Helvetica,sans-Serif" font-size="10.00">ResponseConcatenator</text>
<text text-anchor="middle" x="64.5" y="-7" font-family="Helvetica,sans-Serif" font-size="10.00">::process_chunk</text>
</a>
</g>
</g>
<!-- Node1&#45;&gt;Node3 -->
<g id="edge2_Node000001_Node000003" class="edge">
<title>Node1&#45;&gt;Node3</title>
<g id="a_edge2_Node000001_Node000003"><a xlink:title=" ">
<path fill="none" stroke="#63b8ff" d="M154.81,-27.61C146.18,-26.39 137.5,-25.16 129.11,-23.98"/>
<polygon fill="#63b8ff" stroke="#63b8ff" points="154.49,-31.1 164.88,-29.03 155.47,-24.17 154.49,-31.1"/>
</a>
</g>
</g>
</g>
</svg>
