<?xml version="1.0" encoding="UTF-8" standalone="no"?>
<!DOCTYPE svg PUBLIC "-//W3C//DTD SVG 1.1//EN"
 "http://www.w3.org/Graphics/SVG/1.1/DTD/svg11.dtd">
<!-- Generated by graphviz version 2.43.0 (0)
 -->
<!-- Title: LLMAgent::get_slot_context_size Pages: 1 -->
<svg width="869pt" height="92pt"
 viewBox="0.00 0.00 869.00 91.67" xmlns="http://www.w3.org/2000/svg" xmlns:xlink="http://www.w3.org/1999/xlink">
<g id="graph0" class="graph" transform="scale(1 1) rotate(0) translate(4 87.67)">
<title>LLMAgent::get_slot_context_size</title>
<!-- Node1 -->
<g id="Node000001" class="node">
<title>Node1</title>
<g id="a_Node000001"><a xlink:title="Get slot context size (delegate to wrapped LLM)">
<polygon fill="#999999" stroke="#666666" points="861,-73 751,-73 751,-43 861,-43 861,-73"/>
<text text-anchor="start" x="759" y="-61" font-family="Helvetica,sans-Serif" font-size="10.00">LLMAgent::get_slot</text>
<text text-anchor="middle" x="806" y="-50" font-family="Helvetica,sans-Serif" font-size="10.00">_context_size</text>
</a>
</g>
</g>
<!-- Node2 -->
<g id="Node000002" class="node">
<title>Node2</title>
<g id="a_Node000002"><a xlink:href="classLLMAgent.html#a152bf0a1849d69775af9a57144291f56" target="_top" xlink:title="Handle context overflow using the configured strategy before a chat call.">
<polygon fill="white" stroke="#666666" points="407,-64.5 256,-64.5 256,-45.5 407,-45.5 407,-64.5"/>
<text text-anchor="middle" x="331.5" y="-52.5" font-family="Helvetica,sans-Serif" font-size="10.00">LLMAgent::handle_overflow</text>
</a>
</g>
</g>
<!-- Node1&#45;&gt;Node2 -->
<g id="edge1_Node000001_Node000002" class="edge">
<title>Node1&#45;&gt;Node2</title>
<g id="a_edge1_Node000001_Node000002"><a xlink:title=" ">
<path fill="none" stroke="#63b8ff" d="M740.56,-68.13C668.04,-78.04 546.81,-90.14 443,-79 417.43,-76.26 389.09,-70.03 367.52,-64.61"/>
<polygon fill="#63b8ff" stroke="#63b8ff" points="741.47,-71.53 750.89,-66.68 740.51,-64.6 741.47,-71.53"/>
</a>
</g>
</g>
<!-- Node5 -->
<g id="Node000005" class="node">
<title>Node5</title>
<g id="a_Node000005"><a xlink:href="classLLMAgent.html#a6486c1a1fc79c96bbc4442f722e0bba4" target="_top" xlink:title="Summarise the entire history (chunking if needed), embed summary in system message,...">
<polygon fill="white" stroke="#666666" points="568,-70 443,-70 443,-40 568,-40 568,-70"/>
<text text-anchor="start" x="451" y="-58" font-family="Helvetica,sans-Serif" font-size="10.00">LLMAgent::summarize</text>
<text text-anchor="middle" x="505.5" y="-47" font-family="Helvetica,sans-Serif" font-size="10.00">_history</text>
</a>
</g>
</g>
<!-- Node1&#45;&gt;Node5 -->
<g id="edge5_Node000001_Node000005" class="edge">
<title>Node1&#45;&gt;Node5</title>
<g id="a_edge5_Node000001_Node000005"><a xlink:title=" ">
<path fill="none" stroke="#63b8ff" d="M740.68,-57.35C689.57,-56.84 618.54,-56.13 568.14,-55.62"/>
<polygon fill="#63b8ff" stroke="#63b8ff" points="740.91,-60.86 750.94,-57.46 740.98,-53.86 740.91,-60.86"/>
</a>
</g>
</g>
<!-- Node6 -->
<g id="Node000006" class="node">
<title>Node6</title>
<g id="a_Node000006"><a xlink:href="classLLMAgent.html#a1b2ce4f2eddc64953186861d0415a2f5" target="_top" xlink:title="Remove oldest message pairs from the front until history fits within target_context_ratio.">
<polygon fill="white" stroke="#666666" points="715,-30 604,-30 604,0 715,0 715,-30"/>
<text text-anchor="start" x="612" y="-18" font-family="Helvetica,sans-Serif" font-size="10.00">LLMAgent::truncate</text>
<text text-anchor="middle" x="659.5" y="-7" font-family="Helvetica,sans-Serif" font-size="10.00">_history</text>
</a>
</g>
</g>
<!-- Node1&#45;&gt;Node6 -->
<g id="edge7_Node000001_Node000006" class="edge">
<title>Node1&#45;&gt;Node6</title>
<g id="a_edge7_Node000001_Node000006"><a xlink:title=" ">
<path fill="none" stroke="#63b8ff" d="M744.79,-40.08C733.64,-36.76 722.09,-33.33 711.25,-30.1"/>
<polygon fill="#63b8ff" stroke="#63b8ff" points="743.88,-43.46 754.46,-42.96 745.87,-36.75 743.88,-43.46"/>
</a>
</g>
</g>
<!-- Node3 -->
<g id="Node000003" class="node">
<title>Node3</title>
<g id="a_Node000003"><a xlink:href="classLLMAgent.html#aecac08f1cbc4ed079cc75bc98f08d4ce" target="_top" xlink:title="Conduct a chat interaction.">
<polygon fill="white" stroke="#666666" points="220,-64.5 128,-64.5 128,-45.5 220,-45.5 220,-64.5"/>
<text text-anchor="middle" x="174" y="-52.5" font-family="Helvetica,sans-Serif" font-size="10.00">LLMAgent::chat</text>
</a>
</g>
</g>
<!-- Node2&#45;&gt;Node3 -->
<g id="edge2_Node000002_Node000003" class="edge">
<title>Node2&#45;&gt;Node3</title>
<g id="a_edge2_Node000002_Node000003"><a xlink:title=" ">
<path fill="none" stroke="#63b8ff" d="M245.68,-55C236.97,-55 228.37,-55 220.34,-55"/>
<polygon fill="#63b8ff" stroke="#63b8ff" points="245.94,-58.5 255.94,-55 245.94,-51.5 245.94,-58.5"/>
</a>
</g>
</g>
<!-- Node4 -->
<g id="Node000004" class="node">
<title>Node4</title>
<g id="a_Node000004"><a xlink:href="LLM__agent_8cpp.html#ae783925557d9588c8e4f16e58ba116b2" target="_top" xlink:title="Conduct chat interaction (C API)">
<polygon fill="white" stroke="#666666" points="92,-64.5 0,-64.5 0,-45.5 92,-45.5 92,-64.5"/>
<text text-anchor="middle" x="46" y="-52.5" font-family="Helvetica,sans-Serif" font-size="10.00">LLMAgent_Chat</text>
</a>
</g>
</g>
<!-- Node3&#45;&gt;Node4 -->
<g id="edge3_Node000003_Node000004" class="edge">
<title>Node3&#45;&gt;Node4</title>
<g id="a_edge3_Node000003_Node000004"><a xlink:title=" ">
<path fill="none" stroke="#63b8ff" d="M117.65,-55C109.16,-55 100.48,-55 92.24,-55"/>
<polygon fill="#63b8ff" stroke="#63b8ff" points="117.87,-58.5 127.87,-55 117.87,-51.5 117.87,-58.5"/>
</a>
</g>
</g>
<!-- Node4&#45;&gt;Node4 -->
<g id="edge4_Node000004_Node000004" class="edge">
<title>Node4&#45;&gt;Node4</title>
<g id="a_edge4_Node000004_Node000004"><a xlink:title=" ">
<path fill="none" stroke="#63b8ff" d="M69.7,-74.05C68.12,-78.88 60.22,-82.5 46,-82.5 23.25,-82.5 16.67,-73.23 26.27,-64.58"/>
<polygon fill="#63b8ff" stroke="#63b8ff" points="72.83,-72.45 65.73,-64.58 66.37,-75.16 72.83,-72.45"/>
</a>
</g>
</g>
<!-- Node5&#45;&gt;Node2 -->
<g id="edge6_Node000005_Node000002" class="edge">
<title>Node5&#45;&gt;Node2</title>
<g id="a_edge6_Node000005_Node000002"><a xlink:title=" ">
<path fill="none" stroke="#63b8ff" d="M432.72,-55C424.29,-55 415.67,-55 407.2,-55"/>
<polygon fill="#63b8ff" stroke="#63b8ff" points="432.89,-58.5 442.89,-55 432.89,-51.5 432.89,-58.5"/>
</a>
</g>
</g>
<!-- Node6&#45;&gt;Node2 -->
<g id="edge8_Node000006_Node000002" class="edge">
<title>Node6&#45;&gt;Node2</title>
<g id="a_edge8_Node000006_Node000002"><a xlink:title=" ">
<path fill="none" stroke="#63b8ff" d="M593.77,-17.44C550.84,-19.64 493.36,-23.7 443,-31 418.52,-34.55 391.37,-40.42 370.11,-45.46"/>
<polygon fill="#63b8ff" stroke="#63b8ff" points="593.99,-20.94 603.8,-16.95 593.64,-13.95 593.99,-20.94"/>
</a>
</g>
</g>
<!-- Node6&#45;&gt;Node5 -->
<g id="edge9_Node000006_Node000005" class="edge">
<title>Node6&#45;&gt;Node5</title>
<g id="a_edge9_Node000006_Node000005"><a xlink:title=" ">
<path fill="none" stroke="#63b8ff" d="M593.72,-32.05C583.71,-34.68 573.43,-37.39 563.6,-39.97"/>
<polygon fill="#63b8ff" stroke="#63b8ff" points="594.84,-35.37 603.62,-29.44 593.06,-28.6 594.84,-35.37"/>
</a>
</g>
</g>
</g>
</svg>
