<?xml version="1.0" encoding="UTF-8" standalone="no"?>
<!DOCTYPE svg PUBLIC "-//W3C//DTD SVG 1.1//EN"
 "http://www.w3.org/Graphics/SVG/1.1/DTD/svg11.dtd">
<!-- Generated by graphviz version 2.43.0 (0)
 -->
<!-- Title: include/defs.h Pages: 1 -->
<svg width="654pt" height="247pt"
 viewBox="0.00 0.00 653.50 247.00" xmlns="http://www.w3.org/2000/svg" xmlns:xlink="http://www.w3.org/1999/xlink">
<g id="graph0" class="graph" transform="scale(1 1) rotate(0) translate(4 243)">
<title>include/defs.h</title>
<!-- Node1 -->
<g id="Node000001" class="node">
<title>Node1</title>
<g id="a_Node000001"><a xlink:title="File with basic definitions.">
<polygon fill="#999999" stroke="#666666" points="481.5,-239 396.5,-239 396.5,-220 481.5,-220 481.5,-239"/>
<text text-anchor="middle" x="439" y="-227" font-family="Helvetica,sans-Serif" font-size="10.00">include/defs.h</text>
</a>
</g>
</g>
<!-- Node2 -->
<g id="Node000002" class="node">
<title>Node2</title>
<g id="a_Node000002"><a xlink:href="LLM_8h.html" target="_top" xlink:title="Core LLM functionality interface and base classes.">
<polygon fill="white" stroke="#666666" points="445.5,-184 362.5,-184 362.5,-165 445.5,-165 445.5,-184"/>
<text text-anchor="middle" x="404" y="-172" font-family="Helvetica,sans-Serif" font-size="10.00">include/LLM.h</text>
</a>
</g>
</g>
<!-- Node1&#45;&gt;Node2 -->
<g id="edge1_Node000001_Node000002" class="edge">
<title>Node1&#45;&gt;Node2</title>
<g id="a_edge1_Node000001_Node000002"><a xlink:title=" ">
<path fill="none" stroke="#63b8ff" d="M427.7,-211.39C421.68,-202.27 414.53,-191.45 409.67,-184.09"/>
<polygon fill="#63b8ff" stroke="#63b8ff" points="424.79,-213.33 433.22,-219.75 430.63,-209.47 424.79,-213.33"/>
</a>
</g>
</g>
<!-- Node8 -->
<g id="Node000008" class="node">
<title>Node8</title>
<g id="a_Node000008"><a xlink:href="LLM__runtime_8h.html" target="_top" xlink:title="Runtime loading and management of LLM libraries.">
<polygon fill="white" stroke="#666666" points="645.5,-129 518.5,-129 518.5,-110 645.5,-110 645.5,-129"/>
<text text-anchor="middle" x="582" y="-117" font-family="Helvetica,sans-Serif" font-size="10.00">include/LLM_runtime.h</text>
</a>
</g>
</g>
<!-- Node1&#45;&gt;Node8 -->
<g id="edge15_Node000001_Node000008" class="edge">
<title>Node1&#45;&gt;Node8</title>
<g id="a_edge15_Node000001_Node000008"><a xlink:title=" ">
<path fill="none" stroke="#63b8ff" d="M458.86,-213.5C489.22,-190.57 546.22,-147.52 570.54,-129.16"/>
<polygon fill="#63b8ff" stroke="#63b8ff" points="456.57,-210.84 450.7,-219.66 460.79,-216.43 456.57,-210.84"/>
</a>
</g>
</g>
<!-- Node3 -->
<g id="Node000003" class="node">
<title>Node3</title>
<g id="a_Node000003"><a xlink:href="LLM__agent_8h.html" target="_top" xlink:title="High&#45;level conversational agent interface for LLMs.">
<polygon fill="white" stroke="#666666" points="116,-74 0,-74 0,-55 116,-55 116,-74"/>
<text text-anchor="middle" x="58" y="-62" font-family="Helvetica,sans-Serif" font-size="10.00">include/LLM_agent.h</text>
</a>
</g>
</g>
<!-- Node2&#45;&gt;Node3 -->
<g id="edge2_Node000002_Node000003" class="edge">
<title>Node2&#45;&gt;Node3</title>
<g id="a_edge2_Node000002_Node000003"><a xlink:title=" ">
<path fill="none" stroke="#63b8ff" d="M352.01,-173.94C294.26,-172.49 199.61,-164.22 127,-129 99.75,-115.79 75.68,-88.25 64.54,-74.18"/>
<polygon fill="#63b8ff" stroke="#63b8ff" points="352.29,-177.45 362.35,-174.14 352.42,-170.45 352.29,-177.45"/>
</a>
</g>
</g>
<!-- Node6 -->
<g id="Node000006" class="node">
<title>Node6</title>
<g id="a_Node000006"><a xlink:href="LLM__client_8h.html" target="_top" xlink:title="Client interface for local and remote LLM access.">
<polygon fill="white" stroke="#666666" points="252,-129 136,-129 136,-110 252,-110 252,-129"/>
<text text-anchor="middle" x="194" y="-117" font-family="Helvetica,sans-Serif" font-size="10.00">include/LLM_client.h</text>
</a>
</g>
</g>
<!-- Node2&#45;&gt;Node6 -->
<g id="edge5_Node000002_Node000006" class="edge">
<title>Node2&#45;&gt;Node6</title>
<g id="a_edge5_Node000002_Node000006"><a xlink:title=" ">
<path fill="none" stroke="#63b8ff" d="M360.42,-162.5C321.1,-152.58 264.05,-138.18 228,-129.08"/>
<polygon fill="#63b8ff" stroke="#63b8ff" points="359.71,-165.93 370.26,-164.98 361.42,-159.14 359.71,-165.93"/>
</a>
</g>
</g>
<!-- Node2&#45;&gt;Node8 -->
<g id="edge9_Node000002_Node000008" class="edge">
<title>Node2&#45;&gt;Node8</title>
<g id="a_edge9_Node000002_Node000008"><a xlink:title=" ">
<path fill="none" stroke="#63b8ff" d="M442.44,-162.06C475.7,-152.15 523.08,-138.04 553.18,-129.08"/>
<polygon fill="#63b8ff" stroke="#63b8ff" points="441.18,-158.78 432.6,-164.98 443.18,-165.49 441.18,-158.78"/>
</a>
</g>
</g>
<!-- Node10 -->
<g id="Node000010" class="node">
<title>Node10</title>
<g id="a_Node000010"><a xlink:href="LLM__service_8h.html" target="_top" xlink:title="LLM service implementation with server capabilities.">
<polygon fill="white" stroke="#666666" points="408,-129 284,-129 284,-110 408,-110 408,-129"/>
<text text-anchor="middle" x="346" y="-117" font-family="Helvetica,sans-Serif" font-size="10.00">include/LLM_service.h</text>
</a>
</g>
</g>
<!-- Node2&#45;&gt;Node10 -->
<g id="edge11_Node000002_Node000010" class="edge">
<title>Node2&#45;&gt;Node10</title>
<g id="a_edge11_Node000002_Node000010"><a xlink:title=" ">
<path fill="none" stroke="#63b8ff" d="M387.09,-158.04C376.8,-148.64 364.03,-136.98 355.49,-129.17"/>
<polygon fill="#63b8ff" stroke="#63b8ff" points="384.94,-160.82 394.68,-164.98 389.66,-155.66 384.94,-160.82"/>
</a>
</g>
</g>
<!-- Node12 -->
<g id="Node000012" class="node">
<title>Node12</title>
<g id="a_Node000012"><a xlink:href="LLM_8cpp_source.html" target="_top" xlink:title=" ">
<polygon fill="white" stroke="#666666" points="500,-129 426,-129 426,-110 500,-110 500,-129"/>
<text text-anchor="middle" x="463" y="-117" font-family="Helvetica,sans-Serif" font-size="10.00">src/LLM.cpp</text>
</a>
</g>
</g>
<!-- Node2&#45;&gt;Node12 -->
<g id="edge14_Node000002_Node000012" class="edge">
<title>Node2&#45;&gt;Node12</title>
<g id="a_edge14_Node000002_Node000012"><a xlink:title=" ">
<path fill="none" stroke="#63b8ff" d="M421.2,-158.04C431.67,-148.64 444.65,-136.98 453.35,-129.17"/>
<polygon fill="#63b8ff" stroke="#63b8ff" points="418.58,-155.7 413.48,-164.98 423.26,-160.91 418.58,-155.7"/>
</a>
</g>
</g>
<!-- Node4 -->
<g id="Node000004" class="node">
<title>Node4</title>
<g id="a_Node000004"><a xlink:href="LlamaLib_8h.html" target="_top" xlink:title="Main include file for the LLama library.">
<polygon fill="white" stroke="#666666" points="322,-19 214,-19 214,0 322,0 322,-19"/>
<text text-anchor="middle" x="268" y="-7" font-family="Helvetica,sans-Serif" font-size="10.00">include/LlamaLib.h</text>
</a>
</g>
</g>
<!-- Node3&#45;&gt;Node4 -->
<g id="edge3_Node000003_Node000004" class="edge">
<title>Node3&#45;&gt;Node4</title>
<g id="a_edge3_Node000003_Node000004"><a xlink:title=" ">
<path fill="none" stroke="#63b8ff" d="M101.58,-52.5C140.9,-42.58 197.95,-28.18 234,-19.08"/>
<polygon fill="#63b8ff" stroke="#63b8ff" points="100.58,-49.14 91.74,-54.98 102.29,-55.93 100.58,-49.14"/>
</a>
</g>
</g>
<!-- Node5 -->
<g id="Node000005" class="node">
<title>Node5</title>
<g id="a_Node000005"><a xlink:href="LLM__agent_8cpp_source.html" target="_top" xlink:title=" ">
<polygon fill="white" stroke="#666666" points="111.5,-19 4.5,-19 4.5,0 111.5,0 111.5,-19"/>
<text text-anchor="middle" x="58" y="-7" font-family="Helvetica,sans-Serif" font-size="10.00">src/LLM_agent.cpp</text>
</a>
</g>
</g>
<!-- Node3&#45;&gt;Node5 -->
<g id="edge4_Node000003_Node000005" class="edge">
<title>Node3&#45;&gt;Node5</title>
<g id="a_edge4_Node000003_Node000005"><a xlink:title=" ">
<path fill="none" stroke="#63b8ff" d="M58,-44.66C58,-35.93 58,-25.99 58,-19.09"/>
<polygon fill="#63b8ff" stroke="#63b8ff" points="54.5,-44.75 58,-54.75 61.5,-44.75 54.5,-44.75"/>
</a>
</g>
</g>
<!-- Node6&#45;&gt;Node3 -->
<g id="edge6_Node000006_Node000003" class="edge">
<title>Node6&#45;&gt;Node3</title>
<g id="a_edge6_Node000006_Node000003"><a xlink:title=" ">
<path fill="none" stroke="#63b8ff" d="M162.67,-106.29C137.46,-96.47 102.67,-82.91 80.25,-74.17"/>
<polygon fill="#63b8ff" stroke="#63b8ff" points="161.56,-109.61 172.15,-109.98 164.1,-103.09 161.56,-109.61"/>
</a>
</g>
</g>
<!-- Node6&#45;&gt;Node4 -->
<g id="edge7_Node000006_Node000004" class="edge">
<title>Node6&#45;&gt;Node4</title>
<g id="a_edge7_Node000006_Node000004"><a xlink:title=" ">
<path fill="none" stroke="#63b8ff" d="M217.58,-104.21C228.54,-96.5 240.9,-86.07 249,-74 260.53,-56.8 265.24,-32.39 267.02,-19.42"/>
<polygon fill="#63b8ff" stroke="#63b8ff" points="215.58,-101.34 209.2,-109.8 219.46,-107.16 215.58,-101.34"/>
</a>
</g>
</g>
<!-- Node7 -->
<g id="Node000007" class="node">
<title>Node7</title>
<g id="a_Node000007"><a xlink:href="LLM__client_8cpp_source.html" target="_top" xlink:title=" ">
<polygon fill="white" stroke="#666666" points="240,-74 134,-74 134,-55 240,-55 240,-74"/>
<text text-anchor="middle" x="187" y="-62" font-family="Helvetica,sans-Serif" font-size="10.00">src/LLM_client.cpp</text>
</a>
</g>
</g>
<!-- Node6&#45;&gt;Node7 -->
<g id="edge8_Node000006_Node000007" class="edge">
<title>Node6&#45;&gt;Node7</title>
<g id="a_edge8_Node000006_Node000007"><a xlink:title=" ">
<path fill="none" stroke="#63b8ff" d="M191.51,-99.66C190.36,-90.93 189.05,-80.99 188.13,-74.09"/>
<polygon fill="#63b8ff" stroke="#63b8ff" points="188.06,-100.29 192.84,-109.75 195,-99.38 188.06,-100.29"/>
</a>
</g>
</g>
<!-- Node9 -->
<g id="Node000009" class="node">
<title>Node9</title>
<g id="a_Node000009"><a xlink:href="LLM__runtime_8cpp_source.html" target="_top" xlink:title=" ">
<polygon fill="white" stroke="#666666" points="640.5,-74 523.5,-74 523.5,-55 640.5,-55 640.5,-74"/>
<text text-anchor="middle" x="582" y="-62" font-family="Helvetica,sans-Serif" font-size="10.00">src/LLM_runtime.cpp</text>
</a>
</g>
</g>
<!-- Node8&#45;&gt;Node9 -->
<g id="edge10_Node000008_Node000009" class="edge">
<title>Node8&#45;&gt;Node9</title>
<g id="a_edge10_Node000008_Node000009"><a xlink:title=" ">
<path fill="none" stroke="#63b8ff" d="M582,-99.66C582,-90.93 582,-80.99 582,-74.09"/>
<polygon fill="#63b8ff" stroke="#63b8ff" points="578.5,-99.75 582,-109.75 585.5,-99.75 578.5,-99.75"/>
</a>
</g>
</g>
<!-- Node10&#45;&gt;Node4 -->
<g id="edge12_Node000010_Node000004" class="edge">
<title>Node10&#45;&gt;Node4</title>
<g id="a_edge12_Node000010_Node000004"><a xlink:title=" ">
<path fill="none" stroke="#63b8ff" d="M379.32,-105.97C405.24,-94.29 434.41,-75.61 419,-55 396.82,-25.34 355.82,-14.61 322.13,-11.08"/>
<polygon fill="#63b8ff" stroke="#63b8ff" points="377.83,-102.8 370.01,-109.95 380.58,-109.24 377.83,-102.8"/>
</a>
</g>
</g>
<!-- Node11 -->
<g id="Node000011" class="node">
<title>Node11</title>
<g id="a_Node000011"><a xlink:href="LLM__service_8cpp_source.html" target="_top" xlink:title=" ">
<polygon fill="white" stroke="#666666" points="410,-74 296,-74 296,-55 410,-55 410,-74"/>
<text text-anchor="middle" x="353" y="-62" font-family="Helvetica,sans-Serif" font-size="10.00">src/LLM_service.cpp</text>
</a>
</g>
</g>
<!-- Node10&#45;&gt;Node11 -->
<g id="edge13_Node000010_Node000011" class="edge">
<title>Node10&#45;&gt;Node11</title>
<g id="a_edge13_Node000010_Node000011"><a xlink:title=" ">
<path fill="none" stroke="#63b8ff" d="M348.49,-99.66C349.64,-90.93 350.95,-80.99 351.87,-74.09"/>
<polygon fill="#63b8ff" stroke="#63b8ff" points="345,-99.38 347.16,-109.75 351.94,-100.29 345,-99.38"/>
</a>
</g>
</g>
</g>
</svg>
