<?xml version="1.0" encoding="UTF-8" standalone="no"?>
<!DOCTYPE svg PUBLIC "-//W3C//DTD SVG 1.1//EN"
 "http://www.w3.org/Graphics/SVG/1.1/DTD/svg11.dtd">
<!-- Generated by graphviz version 2.43.0 (0)
 -->
<!-- Title: include/defs.h Pages: 1 -->
<svg width="811pt" height="258pt"
 viewBox="0.00 0.00 811.00 258.00" xmlns="http://www.w3.org/2000/svg" xmlns:xlink="http://www.w3.org/1999/xlink">
<g id="graph0" class="graph" transform="scale(1 1) rotate(0) translate(4 254)">
<title>include/defs.h</title>
<!-- Node1 -->
<g id="Node000001" class="node">
<title>Node1</title>
<g id="a_Node000001"><a xlink:title="File with basic definitions.">
<polygon fill="#999999" stroke="#666666" points="321,-250 236,-250 236,-231 321,-231 321,-250"/>
<text text-anchor="middle" x="278.5" y="-238" font-family="Helvetica,sans-Serif" font-size="10.00">include/defs.h</text>
</a>
</g>
</g>
<!-- Node2 -->
<g id="Node000002" class="node">
<title>Node2</title>
<g id="a_Node000002"><a xlink:href="LLM_8h.html" target="_top" xlink:title="Core LLM functionality interface and base classes.">
<polygon fill="white" stroke="#666666" points="320,-189.5 237,-189.5 237,-170.5 320,-170.5 320,-189.5"/>
<text text-anchor="middle" x="278.5" y="-177.5" font-family="Helvetica,sans-Serif" font-size="10.00">include/LLM.h</text>
</a>
</g>
</g>
<!-- Node1&#45;&gt;Node2 -->
<g id="edge1_Node000001_Node000002" class="edge">
<title>Node1&#45;&gt;Node2</title>
<g id="a_edge1_Node000001_Node000002"><a xlink:title=" ">
<path fill="none" stroke="#63b8ff" d="M278.5,-220.66C278.5,-210.24 278.5,-197.8 278.5,-189.67"/>
<polygon fill="#63b8ff" stroke="#63b8ff" points="275,-220.87 278.5,-230.87 282,-220.87 275,-220.87"/>
</a>
</g>
</g>
<!-- Node8 -->
<g id="Node000008" class="node">
<title>Node8</title>
<g id="a_Node000008"><a xlink:href="LLM__runtime_8h.html" target="_top" xlink:title="Runtime loading and management of LLM libraries.">
<polygon fill="white" stroke="#666666" points="127,-129 0,-129 0,-110 127,-110 127,-129"/>
<text text-anchor="middle" x="63.5" y="-117" font-family="Helvetica,sans-Serif" font-size="10.00">include/LLM_runtime.h</text>
</a>
</g>
</g>
<!-- Node1&#45;&gt;Node8 -->
<g id="edge16_Node000001_Node000008" class="edge">
<title>Node1&#45;&gt;Node8</title>
<g id="a_edge16_Node000001_Node000008"><a xlink:title=" ">
<path fill="none" stroke="#63b8ff" d="M254.05,-225.97C209.46,-201.29 116.13,-149.63 79.11,-129.14"/>
<polygon fill="#63b8ff" stroke="#63b8ff" points="252.59,-229.16 263.04,-230.94 255.98,-223.04 252.59,-229.16"/>
</a>
</g>
</g>
<!-- Node13 -->
<g id="Node000013" class="node">
<title>Node13</title>
<g id="a_Node000013"><a xlink:href="completion__processor_8h_source.html" target="_top" xlink:title=" ">
<polygon fill="white" stroke="#666666" points="547.5,-195 437.5,-195 437.5,-165 547.5,-165 547.5,-195"/>
<text text-anchor="start" x="445.5" y="-183" font-family="Helvetica,sans-Serif" font-size="10.00">include/completion</text>
<text text-anchor="middle" x="492.5" y="-172" font-family="Helvetica,sans-Serif" font-size="10.00">_processor.h</text>
</a>
</g>
</g>
<!-- Node1&#45;&gt;Node13 -->
<g id="edge17_Node000001_Node000013" class="edge">
<title>Node1&#45;&gt;Node13</title>
<g id="a_edge17_Node000001_Node000013"><a xlink:title=" ">
<path fill="none" stroke="#63b8ff" d="M319.39,-228.32C353.99,-218.86 403.75,-205.26 441.05,-195.06"/>
<polygon fill="#63b8ff" stroke="#63b8ff" points="318.34,-224.98 309.62,-230.99 320.19,-231.73 318.34,-224.98"/>
</a>
</g>
</g>
<!-- Node3 -->
<g id="Node000003" class="node">
<title>Node3</title>
<g id="a_Node000003"><a xlink:href="LLM__agent_8h.html" target="_top" xlink:title="High&#45;level conversational agent interface for LLMs.">
<polygon fill="white" stroke="#666666" points="379.5,-74 263.5,-74 263.5,-55 379.5,-55 379.5,-74"/>
<text text-anchor="middle" x="321.5" y="-62" font-family="Helvetica,sans-Serif" font-size="10.00">include/LLM_agent.h</text>
</a>
</g>
</g>
<!-- Node2&#45;&gt;Node3 -->
<g id="edge2_Node000002_Node000003" class="edge">
<title>Node2&#45;&gt;Node3</title>
<g id="a_edge2_Node000002_Node000003"><a xlink:title=" ">
<path fill="none" stroke="#63b8ff" d="M285.39,-160.82C294.78,-136.02 311.25,-92.54 318.23,-74.13"/>
<polygon fill="#63b8ff" stroke="#63b8ff" points="282,-159.88 281.73,-170.47 288.55,-162.36 282,-159.88"/>
</a>
</g>
</g>
<!-- Node4 -->
<g id="Node000004" class="node">
<title>Node4</title>
<g id="a_Node000004"><a xlink:href="LlamaLib_8h.html" target="_top" xlink:title="Main include file for the LLama library.">
<polygon fill="white" stroke="#666666" points="543.5,-19 435.5,-19 435.5,0 543.5,0 543.5,-19"/>
<text text-anchor="middle" x="489.5" y="-7" font-family="Helvetica,sans-Serif" font-size="10.00">include/LlamaLib.h</text>
</a>
</g>
</g>
<!-- Node2&#45;&gt;Node4 -->
<g id="edge14_Node000002_Node000004" class="edge">
<title>Node2&#45;&gt;Node4</title>
<g id="a_edge14_Node000002_Node000004"><a xlink:title=" ">
<path fill="none" stroke="#63b8ff" d="M267.21,-161.51C251.86,-135.32 229.07,-85.69 254.5,-55 265.97,-41.15 369.55,-25.67 435.31,-17.1"/>
<polygon fill="#63b8ff" stroke="#63b8ff" points="264.39,-163.63 272.61,-170.32 270.36,-159.96 264.39,-163.63"/>
</a>
</g>
</g>
<!-- Node6 -->
<g id="Node000006" class="node">
<title>Node6</title>
<g id="a_Node000006"><a xlink:href="LLM__client_8h.html" target="_top" xlink:title="Client interface for local and remote LLM access.">
<polygon fill="white" stroke="#666666" points="481.5,-129 365.5,-129 365.5,-110 481.5,-110 481.5,-129"/>
<text text-anchor="middle" x="423.5" y="-117" font-family="Helvetica,sans-Serif" font-size="10.00">include/LLM_client.h</text>
</a>
</g>
</g>
<!-- Node2&#45;&gt;Node6 -->
<g id="edge5_Node000002_Node000006" class="edge">
<title>Node2&#45;&gt;Node6</title>
<g id="a_edge5_Node000002_Node000006"><a xlink:title=" ">
<path fill="none" stroke="#63b8ff" d="M308.91,-166.73C336.93,-155.42 377.79,-138.94 402.39,-129.02"/>
<polygon fill="#63b8ff" stroke="#63b8ff" points="307.55,-163.51 299.58,-170.49 310.17,-170 307.55,-163.51"/>
</a>
</g>
</g>
<!-- Node2&#45;&gt;Node8 -->
<g id="edge9_Node000002_Node000008" class="edge">
<title>Node2&#45;&gt;Node8</title>
<g id="a_edge9_Node000002_Node000008"><a xlink:title=" ">
<path fill="none" stroke="#63b8ff" d="M237.42,-167.82C195.85,-156.51 132.48,-139.27 94.8,-129.02"/>
<polygon fill="#63b8ff" stroke="#63b8ff" points="236.67,-171.25 247.24,-170.49 238.51,-164.49 236.67,-171.25"/>
</a>
</g>
</g>
<!-- Node10 -->
<g id="Node000010" class="node">
<title>Node10</title>
<g id="a_Node000010"><a xlink:href="LLM__service_8h.html" target="_top" xlink:title="LLM service implementation with server capabilities.">
<polygon fill="white" stroke="#666666" points="623.5,-129 499.5,-129 499.5,-110 623.5,-110 623.5,-129"/>
<text text-anchor="middle" x="561.5" y="-117" font-family="Helvetica,sans-Serif" font-size="10.00">include/LLM_service.h</text>
</a>
</g>
</g>
<!-- Node2&#45;&gt;Node10 -->
<g id="edge11_Node000002_Node000010" class="edge">
<title>Node2&#45;&gt;Node10</title>
<g id="a_edge11_Node000002_Node000010"><a xlink:title=" ">
<path fill="none" stroke="#63b8ff" d="M329.47,-168.46C384.1,-157.17 469.77,-139.46 520.3,-129.02"/>
<polygon fill="#63b8ff" stroke="#63b8ff" points="328.74,-165.04 319.65,-170.49 330.15,-171.9 328.74,-165.04"/>
</a>
</g>
</g>
<!-- Node12 -->
<g id="Node000012" class="node">
<title>Node12</title>
<g id="a_Node000012"><a xlink:href="LLM_8cpp_source.html" target="_top" xlink:title=" ">
<polygon fill="white" stroke="#666666" points="219.5,-129 145.5,-129 145.5,-110 219.5,-110 219.5,-129"/>
<text text-anchor="middle" x="182.5" y="-117" font-family="Helvetica,sans-Serif" font-size="10.00">src/LLM.cpp</text>
</a>
</g>
</g>
<!-- Node2&#45;&gt;Node12 -->
<g id="edge15_Node000002_Node000012" class="edge">
<title>Node2&#45;&gt;Node12</title>
<g id="a_edge15_Node000002_Node000012"><a xlink:title=" ">
<path fill="none" stroke="#63b8ff" d="M255.72,-165.12C237.42,-153.96 212.27,-138.64 196.72,-129.17"/>
<polygon fill="#63b8ff" stroke="#63b8ff" points="253.97,-168.15 264.33,-170.37 257.62,-162.18 253.97,-168.15"/>
</a>
</g>
</g>
<!-- Node3&#45;&gt;Node4 -->
<g id="edge3_Node000003_Node000004" class="edge">
<title>Node3&#45;&gt;Node4</title>
<g id="a_edge3_Node000003_Node000004"><a xlink:title=" ">
<path fill="none" stroke="#63b8ff" d="M358.18,-51.93C389.56,-42.03 434.01,-28.01 462.3,-19.08"/>
<polygon fill="#63b8ff" stroke="#63b8ff" points="356.98,-48.64 348.49,-54.98 359.08,-55.31 356.98,-48.64"/>
</a>
</g>
</g>
<!-- Node5 -->
<g id="Node000005" class="node">
<title>Node5</title>
<g id="a_Node000005"><a xlink:href="LLM__agent_8cpp_source.html" target="_top" xlink:title=" ">
<polygon fill="white" stroke="#666666" points="375,-19 268,-19 268,0 375,0 375,-19"/>
<text text-anchor="middle" x="321.5" y="-7" font-family="Helvetica,sans-Serif" font-size="10.00">src/LLM_agent.cpp</text>
</a>
</g>
</g>
<!-- Node3&#45;&gt;Node5 -->
<g id="edge4_Node000003_Node000005" class="edge">
<title>Node3&#45;&gt;Node5</title>
<g id="a_edge4_Node000003_Node000005"><a xlink:title=" ">
<path fill="none" stroke="#63b8ff" d="M321.5,-44.66C321.5,-35.93 321.5,-25.99 321.5,-19.09"/>
<polygon fill="#63b8ff" stroke="#63b8ff" points="318,-44.75 321.5,-54.75 325,-44.75 318,-44.75"/>
</a>
</g>
</g>
<!-- Node6&#45;&gt;Node3 -->
<g id="edge6_Node000006_Node000003" class="edge">
<title>Node6&#45;&gt;Node3</title>
<g id="a_edge6_Node000006_Node000003"><a xlink:title=" ">
<path fill="none" stroke="#63b8ff" d="M398.23,-105.37C379.49,-95.63 354.48,-82.64 338.19,-74.17"/>
<polygon fill="#63b8ff" stroke="#63b8ff" points="396.62,-108.48 407.11,-109.98 399.85,-102.27 396.62,-108.48"/>
</a>
</g>
</g>
<!-- Node6&#45;&gt;Node4 -->
<g id="edge7_Node000006_Node000004" class="edge">
<title>Node6&#45;&gt;Node4</title>
<g id="a_edge7_Node000006_Node000004"><a xlink:title=" ">
<path fill="none" stroke="#63b8ff" d="M470.15,-106.32C486.44,-99.59 503.01,-89.36 512.5,-74 523.6,-56.05 507.72,-31.95 497.31,-19.22"/>
<polygon fill="#63b8ff" stroke="#63b8ff" points="468.77,-103.1 460.65,-109.9 471.24,-109.65 468.77,-103.1"/>
</a>
</g>
</g>
<!-- Node7 -->
<g id="Node000007" class="node">
<title>Node7</title>
<g id="a_Node000007"><a xlink:href="LLM__client_8cpp_source.html" target="_top" xlink:title=" ">
<polygon fill="white" stroke="#666666" points="503.5,-74 397.5,-74 397.5,-55 503.5,-55 503.5,-74"/>
<text text-anchor="middle" x="450.5" y="-62" font-family="Helvetica,sans-Serif" font-size="10.00">src/LLM_client.cpp</text>
</a>
</g>
</g>
<!-- Node6&#45;&gt;Node7 -->
<g id="edge8_Node000006_Node000007" class="edge">
<title>Node6&#45;&gt;Node7</title>
<g id="a_edge8_Node000006_Node000007"><a xlink:title=" ">
<path fill="none" stroke="#63b8ff" d="M432.51,-100.82C437.09,-91.82 442.45,-81.29 446.12,-74.09"/>
<polygon fill="#63b8ff" stroke="#63b8ff" points="429.38,-99.25 427.96,-109.75 435.62,-102.43 429.38,-99.25"/>
</a>
</g>
</g>
<!-- Node9 -->
<g id="Node000009" class="node">
<title>Node9</title>
<g id="a_Node000009"><a xlink:href="LLM__runtime_8cpp_source.html" target="_top" xlink:title=" ">
<polygon fill="white" stroke="#666666" points="122,-74 5,-74 5,-55 122,-55 122,-74"/>
<text text-anchor="middle" x="63.5" y="-62" font-family="Helvetica,sans-Serif" font-size="10.00">src/LLM_runtime.cpp</text>
</a>
</g>
</g>
<!-- Node8&#45;&gt;Node9 -->
<g id="edge10_Node000008_Node000009" class="edge">
<title>Node8&#45;&gt;Node9</title>
<g id="a_edge10_Node000008_Node000009"><a xlink:title=" ">
<path fill="none" stroke="#63b8ff" d="M63.5,-99.66C63.5,-90.93 63.5,-80.99 63.5,-74.09"/>
<polygon fill="#63b8ff" stroke="#63b8ff" points="60,-99.75 63.5,-109.75 67,-99.75 60,-99.75"/>
</a>
</g>
</g>
<!-- Node10&#45;&gt;Node4 -->
<g id="edge12_Node000010_Node000004" class="edge">
<title>Node10&#45;&gt;Node4</title>
<g id="a_edge12_Node000010_Node000004"><a xlink:title=" ">
<path fill="none" stroke="#63b8ff" d="M624.23,-107.71C663.71,-98.12 703.54,-81.44 682.5,-55 665.43,-33.54 594.71,-21.55 543.82,-15.55"/>
<polygon fill="#63b8ff" stroke="#63b8ff" points="623.21,-104.35 614.24,-110 624.77,-111.18 623.21,-104.35"/>
</a>
</g>
</g>
<!-- Node11 -->
<g id="Node000011" class="node">
<title>Node11</title>
<g id="a_Node000011"><a xlink:href="LLM__service_8cpp_source.html" target="_top" xlink:title=" ">
<polygon fill="white" stroke="#666666" points="673.5,-74 559.5,-74 559.5,-55 673.5,-55 673.5,-74"/>
<text text-anchor="middle" x="616.5" y="-62" font-family="Helvetica,sans-Serif" font-size="10.00">src/LLM_service.cpp</text>
</a>
</g>
</g>
<!-- Node10&#45;&gt;Node11 -->
<g id="edge13_Node000010_Node000011" class="edge">
<title>Node10&#45;&gt;Node11</title>
<g id="a_edge13_Node000010_Node000011"><a xlink:title=" ">
<path fill="none" stroke="#63b8ff" d="M577.79,-102.8C587.54,-93.41 599.55,-81.83 607.59,-74.09"/>
<polygon fill="#63b8ff" stroke="#63b8ff" points="575.35,-100.29 570.58,-109.75 580.21,-105.33 575.35,-100.29"/>
</a>
</g>
</g>
<!-- Node13&#45;&gt;Node6 -->
<g id="edge18_Node000013_Node000006" class="edge">
<title>Node13&#45;&gt;Node6</title>
<g id="a_edge18_Node000013_Node000006"><a xlink:title=" ">
<path fill="none" stroke="#63b8ff" d="M468.02,-158.24C456.28,-148.29 442.85,-136.91 433.84,-129.27"/>
<polygon fill="#63b8ff" stroke="#63b8ff" points="465.91,-161.04 475.8,-164.84 470.43,-155.7 465.91,-161.04"/>
</a>
</g>
</g>
<!-- Node13&#45;&gt;Node10 -->
<g id="edge19_Node000013_Node000010" class="edge">
<title>Node13&#45;&gt;Node10</title>
<g id="a_edge19_Node000013_Node000010"><a xlink:title=" ">
<path fill="none" stroke="#63b8ff" d="M516.98,-158.24C528.72,-148.29 542.15,-136.91 551.16,-129.27"/>
<polygon fill="#63b8ff" stroke="#63b8ff" points="514.57,-155.7 509.2,-164.84 519.09,-161.04 514.57,-155.7"/>
</a>
</g>
</g>
<!-- Node14 -->
<g id="Node000014" class="node">
<title>Node14</title>
<g id="a_Node000014"><a xlink:href="completion__processor_8cpp_source.html" target="_top" xlink:title=" ">
<polygon fill="white" stroke="#666666" points="803,-129 642,-129 642,-110 803,-110 803,-129"/>
<text text-anchor="middle" x="722.5" y="-117" font-family="Helvetica,sans-Serif" font-size="10.00">src/completion_processor.cpp</text>
</a>
</g>
</g>
<!-- Node13&#45;&gt;Node14 -->
<g id="edge20_Node000013_Node000014" class="edge">
<title>Node13&#45;&gt;Node14</title>
<g id="a_edge20_Node000013_Node000014"><a xlink:title=" ">
<path fill="none" stroke="#63b8ff" d="M557.37,-162.5C600.16,-151.62 654.47,-137.8 688.87,-129.05"/>
<polygon fill="#63b8ff" stroke="#63b8ff" points="556.42,-159.13 547.59,-164.99 558.14,-165.91 556.42,-159.13"/>
</a>
</g>
</g>
</g>
</svg>
