<?xml version="1.0" encoding="UTF-8" standalone="no"?>
<!DOCTYPE svg PUBLIC "-//W3C//DTD SVG 1.1//EN"
 "http://www.w3.org/Graphics/SVG/1.1/DTD/svg11.dtd">
<!-- Generated by graphviz version 2.43.0 (0)
 -->
<!-- Title: include/defs.h Pages: 1 -->
<svg width="766pt" height="269pt"
 viewBox="0.00 0.00 765.50 269.00" xmlns="http://www.w3.org/2000/svg" xmlns:xlink="http://www.w3.org/1999/xlink">
<g id="graph0" class="graph" transform="scale(1 1) rotate(0) translate(4 265)">
<title>include/defs.h</title>
<!-- Node1 -->
<g id="Node000001" class="node">
<title>Node1</title>
<g id="a_Node000001"><a xlink:title="File with basic definitions.">
<polygon fill="#999999" stroke="#666666" points="413.5,-261 328.5,-261 328.5,-242 413.5,-242 413.5,-261"/>
<text text-anchor="middle" x="371" y="-249" font-family="Helvetica,sans-Serif" font-size="10.00">include/defs.h</text>
</a>
</g>
</g>
<!-- Node2 -->
<g id="Node000002" class="node">
<title>Node2</title>
<g id="a_Node000002"><a xlink:href="LLM_8h.html" target="_top" xlink:title="Core LLM functionality interface and base classes.">
<polygon fill="white" stroke="#666666" points="273.5,-200.5 190.5,-200.5 190.5,-181.5 273.5,-181.5 273.5,-200.5"/>
<text text-anchor="middle" x="232" y="-188.5" font-family="Helvetica,sans-Serif" font-size="10.00">include/LLM.h</text>
</a>
</g>
</g>
<!-- Node1&#45;&gt;Node2 -->
<g id="edge1_Node000001_Node000002" class="edge">
<title>Node1&#45;&gt;Node2</title>
<g id="a_edge1_Node000001_Node000002"><a xlink:title=" ">
<path fill="none" stroke="#63b8ff" d="M341.49,-238.08C314.64,-226.78 275.72,-210.4 252.24,-200.52"/>
<polygon fill="#63b8ff" stroke="#63b8ff" points="340.21,-241.34 350.79,-241.99 342.93,-234.89 340.21,-241.34"/>
</a>
</g>
</g>
<!-- Node8 -->
<g id="Node000008" class="node">
<title>Node8</title>
<g id="a_Node000008"><a xlink:href="LLM__runtime_8h.html" target="_top" xlink:title="Runtime loading and management of LLM libraries.">
<polygon fill="white" stroke="#666666" points="757.5,-140 630.5,-140 630.5,-121 757.5,-121 757.5,-140"/>
<text text-anchor="middle" x="694" y="-128" font-family="Helvetica,sans-Serif" font-size="10.00">include/LLM_runtime.h</text>
</a>
</g>
</g>
<!-- Node1&#45;&gt;Node8 -->
<g id="edge18_Node000001_Node000008" class="edge">
<title>Node1&#45;&gt;Node8</title>
<g id="a_edge18_Node000001_Node000008"><a xlink:title=" ">
<path fill="none" stroke="#63b8ff" d="M403.61,-238.48C468.8,-214.47 613.77,-161.06 670.55,-140.14"/>
<polygon fill="#63b8ff" stroke="#63b8ff" points="402.4,-235.2 394.23,-241.94 404.82,-241.77 402.4,-235.2"/>
</a>
</g>
</g>
<!-- Node14 -->
<g id="Node000014" class="node">
<title>Node14</title>
<g id="a_Node000014"><a xlink:href="completion__processor_8h_source.html" target="_top" xlink:title=" ">
<polygon fill="white" stroke="#666666" points="426,-206 316,-206 316,-176 426,-176 426,-206"/>
<text text-anchor="start" x="324" y="-194" font-family="Helvetica,sans-Serif" font-size="10.00">include/completion</text>
<text text-anchor="middle" x="371" y="-183" font-family="Helvetica,sans-Serif" font-size="10.00">_processor.h</text>
</a>
</g>
</g>
<!-- Node1&#45;&gt;Node14 -->
<g id="edge19_Node000001_Node000014" class="edge">
<title>Node1&#45;&gt;Node14</title>
<g id="a_edge19_Node000001_Node000014"><a xlink:title=" ">
<path fill="none" stroke="#63b8ff" d="M371,-231.65C371,-223.36 371,-213.78 371,-206.11"/>
<polygon fill="#63b8ff" stroke="#63b8ff" points="367.5,-231.87 371,-241.87 374.5,-231.87 367.5,-231.87"/>
</a>
</g>
</g>
<!-- Node3 -->
<g id="Node000003" class="node">
<title>Node3</title>
<g id="a_Node000003"><a xlink:href="LLM__agent_8h.html" target="_top" xlink:title="High&#45;level conversational agent interface for LLMs.">
<polygon fill="white" stroke="#666666" points="116,-79.5 0,-79.5 0,-60.5 116,-60.5 116,-79.5"/>
<text text-anchor="middle" x="58" y="-67.5" font-family="Helvetica,sans-Serif" font-size="10.00">include/LLM_agent.h</text>
</a>
</g>
</g>
<!-- Node2&#45;&gt;Node3 -->
<g id="edge2_Node000002_Node000003" class="edge">
<title>Node2&#45;&gt;Node3</title>
<g id="a_edge2_Node000002_Node000003"><a xlink:title=" ">
<path fill="none" stroke="#63b8ff" d="M200.45,-177.55C179.56,-168.59 152.05,-155.41 130,-140 103.6,-121.55 77.56,-93.49 65.29,-79.52"/>
<polygon fill="#63b8ff" stroke="#63b8ff" points="199.25,-180.84 209.83,-181.48 201.96,-174.38 199.25,-180.84"/>
</a>
</g>
</g>
<!-- Node4 -->
<g id="Node000004" class="node">
<title>Node4</title>
<g id="a_Node000004"><a xlink:href="LlamaLib_8h.html" target="_top" xlink:title="Main include file for the LLama library.">
<polygon fill="white" stroke="#666666" points="360,-19 252,-19 252,0 360,0 360,-19"/>
<text text-anchor="middle" x="306" y="-7" font-family="Helvetica,sans-Serif" font-size="10.00">include/LlamaLib.h</text>
</a>
</g>
</g>
<!-- Node2&#45;&gt;Node4 -->
<g id="edge16_Node000002_Node000004" class="edge">
<title>Node2&#45;&gt;Node4</title>
<g id="a_edge16_Node000002_Node000004"><a xlink:title=" ">
<path fill="none" stroke="#63b8ff" d="M203.55,-176.51C189.31,-168.14 173.35,-155.92 165,-140 147.45,-106.53 140.6,-85.43 163,-55 183.27,-27.46 220.45,-16.48 251.81,-12.3"/>
<polygon fill="#63b8ff" stroke="#63b8ff" points="202.12,-179.72 212.57,-181.46 205.49,-173.58 202.12,-179.72"/>
</a>
</g>
</g>
<!-- Node6 -->
<g id="Node000006" class="node">
<title>Node6</title>
<g id="a_Node000006"><a xlink:href="LLM__client_8h.html" target="_top" xlink:title="Client interface for local and remote LLM access.">
<polygon fill="white" stroke="#666666" points="290,-140 174,-140 174,-121 290,-121 290,-140"/>
<text text-anchor="middle" x="232" y="-128" font-family="Helvetica,sans-Serif" font-size="10.00">include/LLM_client.h</text>
</a>
</g>
</g>
<!-- Node2&#45;&gt;Node6 -->
<g id="edge5_Node000002_Node000006" class="edge">
<title>Node2&#45;&gt;Node6</title>
<g id="a_edge5_Node000002_Node000006"><a xlink:title=" ">
<path fill="none" stroke="#63b8ff" d="M232,-171.16C232,-160.74 232,-148.3 232,-140.17"/>
<polygon fill="#63b8ff" stroke="#63b8ff" points="228.5,-171.37 232,-181.37 235.5,-171.37 228.5,-171.37"/>
</a>
</g>
</g>
<!-- Node2&#45;&gt;Node8 -->
<g id="edge9_Node000002_Node000008" class="edge">
<title>Node2&#45;&gt;Node8</title>
<g id="a_edge9_Node000002_Node000008"><a xlink:title=" ">
<path fill="none" stroke="#63b8ff" d="M283.42,-179.91C291.3,-178.5 299.36,-177.15 307,-176 445.91,-155.1 481.46,-156.12 621,-140 624.04,-139.65 627.16,-139.29 630.3,-138.92"/>
<polygon fill="#63b8ff" stroke="#63b8ff" points="282.78,-176.47 273.57,-181.7 284.03,-183.35 282.78,-176.47"/>
</a>
</g>
</g>
<!-- Node10 -->
<g id="Node000010" class="node">
<title>Node10</title>
<g id="a_Node000010"><a xlink:href="LLM__service_8h.html" target="_top" xlink:title="LLM service implementation with server capabilities.">
<polygon fill="white" stroke="#666666" points="433,-140 309,-140 309,-121 433,-121 433,-140"/>
<text text-anchor="middle" x="371" y="-128" font-family="Helvetica,sans-Serif" font-size="10.00">include/LLM_service.h</text>
</a>
</g>
</g>
<!-- Node2&#45;&gt;Node10 -->
<g id="edge11_Node000002_Node000010" class="edge">
<title>Node2&#45;&gt;Node10</title>
<g id="a_edge11_Node000002_Node000010"><a xlink:title=" ">
<path fill="none" stroke="#63b8ff" d="M261.51,-177.58C288.36,-166.28 327.28,-149.9 350.76,-140.02"/>
<polygon fill="#63b8ff" stroke="#63b8ff" points="260.07,-174.39 252.21,-181.49 262.79,-180.84 260.07,-174.39"/>
</a>
</g>
</g>
<!-- Node13 -->
<g id="Node000013" class="node">
<title>Node13</title>
<g id="a_Node000013"><a xlink:href="LLM_8cpp_source.html" target="_top" xlink:title=" ">
<polygon fill="white" stroke="#666666" points="78,-140 4,-140 4,-121 78,-121 78,-140"/>
<text text-anchor="middle" x="41" y="-128" font-family="Helvetica,sans-Serif" font-size="10.00">src/LLM.cpp</text>
</a>
</g>
</g>
<!-- Node2&#45;&gt;Node13 -->
<g id="edge17_Node000002_Node000013" class="edge">
<title>Node2&#45;&gt;Node13</title>
<g id="a_edge17_Node000002_Node000013"><a xlink:title=" ">
<path fill="none" stroke="#63b8ff" d="M194.33,-178.46C157.39,-167.15 101.92,-150.16 68.81,-140.02"/>
<polygon fill="#63b8ff" stroke="#63b8ff" points="193.64,-181.91 204.23,-181.49 195.69,-175.22 193.64,-181.91"/>
</a>
</g>
</g>
<!-- Node3&#45;&gt;Node4 -->
<g id="edge3_Node000003_Node000004" class="edge">
<title>Node3&#45;&gt;Node4</title>
<g id="a_edge3_Node000003_Node000004"><a xlink:title=" ">
<path fill="none" stroke="#63b8ff" d="M103.87,-58.18C151.79,-46.88 225.98,-29.38 269.9,-19.02"/>
<polygon fill="#63b8ff" stroke="#63b8ff" points="102.99,-54.79 94.06,-60.49 104.6,-61.6 102.99,-54.79"/>
</a>
</g>
</g>
<!-- Node5 -->
<g id="Node000005" class="node">
<title>Node5</title>
<g id="a_Node000005"><a xlink:href="LLM__agent_8cpp_source.html" target="_top" xlink:title=" ">
<polygon fill="white" stroke="#666666" points="111.5,-19 4.5,-19 4.5,0 111.5,0 111.5,-19"/>
<text text-anchor="middle" x="58" y="-7" font-family="Helvetica,sans-Serif" font-size="10.00">src/LLM_agent.cpp</text>
</a>
</g>
</g>
<!-- Node3&#45;&gt;Node5 -->
<g id="edge4_Node000003_Node000005" class="edge">
<title>Node3&#45;&gt;Node5</title>
<g id="a_edge4_Node000003_Node000005"><a xlink:title=" ">
<path fill="none" stroke="#63b8ff" d="M58,-50.16C58,-39.74 58,-27.3 58,-19.17"/>
<polygon fill="#63b8ff" stroke="#63b8ff" points="54.5,-50.37 58,-60.37 61.5,-50.37 54.5,-50.37"/>
</a>
</g>
</g>
<!-- Node6&#45;&gt;Node3 -->
<g id="edge6_Node000006_Node000003" class="edge">
<title>Node6&#45;&gt;Node3</title>
<g id="a_edge6_Node000006_Node000003"><a xlink:title=" ">
<path fill="none" stroke="#63b8ff" d="M196.82,-117.67C163.17,-106.36 113.24,-89.57 83.33,-79.52"/>
<polygon fill="#63b8ff" stroke="#63b8ff" points="196.1,-121.12 206.7,-120.99 198.34,-114.49 196.1,-121.12"/>
</a>
</g>
</g>
<!-- Node6&#45;&gt;Node4 -->
<g id="edge7_Node000006_Node000004" class="edge">
<title>Node6&#45;&gt;Node4</title>
<g id="a_edge7_Node000006_Node000004"><a xlink:title=" ">
<path fill="none" stroke="#63b8ff" d="M255.8,-115.35C266.81,-107.67 279.15,-97.24 287,-85 300.54,-63.87 304.44,-33.6 305.56,-19.01"/>
<polygon fill="#63b8ff" stroke="#63b8ff" points="253.79,-112.48 247.37,-120.91 257.64,-118.33 253.79,-112.48"/>
</a>
</g>
</g>
<!-- Node7 -->
<g id="Node000007" class="node">
<title>Node7</title>
<g id="a_Node000007"><a xlink:href="LLM__client_8cpp_source.html" target="_top" xlink:title=" ">
<polygon fill="white" stroke="#666666" points="278,-79.5 172,-79.5 172,-60.5 278,-60.5 278,-79.5"/>
<text text-anchor="middle" x="225" y="-67.5" font-family="Helvetica,sans-Serif" font-size="10.00">src/LLM_client.cpp</text>
</a>
</g>
</g>
<!-- Node6&#45;&gt;Node7 -->
<g id="edge8_Node000006_Node000007" class="edge">
<title>Node6&#45;&gt;Node7</title>
<g id="a_edge8_Node000006_Node000007"><a xlink:title=" ">
<path fill="none" stroke="#63b8ff" d="M229.75,-110.66C228.5,-100.24 227.01,-87.8 226.04,-79.67"/>
<polygon fill="#63b8ff" stroke="#63b8ff" points="226.3,-111.35 230.97,-120.87 233.25,-110.52 226.3,-111.35"/>
</a>
</g>
</g>
<!-- Node9 -->
<g id="Node000009" class="node">
<title>Node9</title>
<g id="a_Node000009"><a xlink:href="LLM__runtime_8cpp_source.html" target="_top" xlink:title=" ">
<polygon fill="white" stroke="#666666" points="754.5,-79.5 637.5,-79.5 637.5,-60.5 754.5,-60.5 754.5,-79.5"/>
<text text-anchor="middle" x="696" y="-67.5" font-family="Helvetica,sans-Serif" font-size="10.00">src/LLM_runtime.cpp</text>
</a>
</g>
</g>
<!-- Node8&#45;&gt;Node9 -->
<g id="edge10_Node000008_Node000009" class="edge">
<title>Node8&#45;&gt;Node9</title>
<g id="a_edge10_Node000008_Node000009"><a xlink:title=" ">
<path fill="none" stroke="#63b8ff" d="M694.64,-110.66C695,-100.24 695.43,-87.8 695.7,-79.67"/>
<polygon fill="#63b8ff" stroke="#63b8ff" points="691.14,-110.75 694.3,-120.87 698.13,-110.99 691.14,-110.75"/>
</a>
</g>
</g>
<!-- Node10&#45;&gt;Node4 -->
<g id="edge14_Node000010_Node000004" class="edge">
<title>Node10&#45;&gt;Node4</title>
<g id="a_edge14_Node000010_Node000004"><a xlink:title=" ">
<path fill="none" stroke="#63b8ff" d="M415.81,-117.09C431.66,-110.31 447.81,-100.1 457,-85 463.93,-73.61 464.99,-65.68 457,-55 434.82,-25.34 393.82,-14.61 360.13,-11.08"/>
<polygon fill="#63b8ff" stroke="#63b8ff" points="414.1,-114 406.05,-120.88 416.64,-120.52 414.1,-114"/>
</a>
</g>
</g>
<!-- Node11 -->
<g id="Node000011" class="node">
<title>Node11</title>
<g id="a_Node000011"><a xlink:href="LLM__service__builder_8h_source.html" target="_top" xlink:title=" ">
<polygon fill="white" stroke="#666666" points="619.5,-85 504.5,-85 504.5,-55 619.5,-55 619.5,-85"/>
<text text-anchor="start" x="512.5" y="-73" font-family="Helvetica,sans-Serif" font-size="10.00">include/LLM_service</text>
<text text-anchor="middle" x="562" y="-62" font-family="Helvetica,sans-Serif" font-size="10.00">_builder.h</text>
</a>
</g>
</g>
<!-- Node10&#45;&gt;Node11 -->
<g id="edge12_Node000010_Node000011" class="edge">
<title>Node10&#45;&gt;Node11</title>
<g id="a_edge12_Node000010_Node000011"><a xlink:title=" ">
<path fill="none" stroke="#63b8ff" d="M408.7,-117.95C439.52,-108.51 483.22,-95.13 516.08,-85.06"/>
<polygon fill="#63b8ff" stroke="#63b8ff" points="407.31,-114.72 398.77,-120.99 409.36,-121.41 407.31,-114.72"/>
</a>
</g>
</g>
<!-- Node12 -->
<g id="Node000012" class="node">
<title>Node12</title>
<g id="a_Node000012"><a xlink:href="LLM__service_8cpp_source.html" target="_top" xlink:title=" ">
<polygon fill="white" stroke="#666666" points="448,-79.5 334,-79.5 334,-60.5 448,-60.5 448,-79.5"/>
<text text-anchor="middle" x="391" y="-67.5" font-family="Helvetica,sans-Serif" font-size="10.00">src/LLM_service.cpp</text>
</a>
</g>
</g>
<!-- Node10&#45;&gt;Node12 -->
<g id="edge15_Node000010_Node000012" class="edge">
<title>Node10&#45;&gt;Node12</title>
<g id="a_edge15_Node000010_Node000012"><a xlink:title=" ">
<path fill="none" stroke="#63b8ff" d="M377.21,-111.32C380.82,-100.78 385.2,-87.98 388.04,-79.67"/>
<polygon fill="#63b8ff" stroke="#63b8ff" points="373.87,-110.27 373.95,-120.87 380.5,-112.54 373.87,-110.27"/>
</a>
</g>
</g>
<!-- Node11&#45;&gt;Node4 -->
<g id="edge13_Node000011_Node000004" class="edge">
<title>Node11&#45;&gt;Node4</title>
<g id="a_edge13_Node000011_Node000004"><a xlink:title=" ">
<path fill="none" stroke="#63b8ff" d="M494.47,-53.57C446.15,-42.53 382.9,-28.07 343.36,-19.04"/>
<polygon fill="#63b8ff" stroke="#63b8ff" points="493.7,-56.98 504.23,-55.8 495.26,-50.16 493.7,-56.98"/>
</a>
</g>
</g>
<!-- Node14&#45;&gt;Node6 -->
<g id="edge20_Node000014_Node000006" class="edge">
<title>Node14&#45;&gt;Node6</title>
<g id="a_edge20_Node000014_Node000006"><a xlink:title=" ">
<path fill="none" stroke="#63b8ff" d="M328.36,-172.05C303.17,-161.45 272.41,-148.51 252.53,-140.14"/>
<polygon fill="#63b8ff" stroke="#63b8ff" points="327.13,-175.33 337.71,-175.99 329.85,-168.88 327.13,-175.33"/>
</a>
</g>
</g>
<!-- Node14&#45;&gt;Node10 -->
<g id="edge21_Node000014_Node000010" class="edge">
<title>Node14&#45;&gt;Node10</title>
<g id="a_edge21_Node000014_Node000010"><a xlink:title=" ">
<path fill="none" stroke="#63b8ff" d="M371,-165.75C371,-156.72 371,-147.03 371,-140.27"/>
<polygon fill="#63b8ff" stroke="#63b8ff" points="367.5,-165.84 371,-175.84 374.5,-165.84 367.5,-165.84"/>
</a>
</g>
</g>
<!-- Node15 -->
<g id="Node000015" class="node">
<title>Node15</title>
<g id="a_Node000015"><a xlink:href="completion__processor_8cpp_source.html" target="_top" xlink:title=" ">
<polygon fill="white" stroke="#666666" points="612.5,-140 451.5,-140 451.5,-121 612.5,-121 612.5,-140"/>
<text text-anchor="middle" x="532" y="-128" font-family="Helvetica,sans-Serif" font-size="10.00">src/completion_processor.cpp</text>
</a>
</g>
</g>
<!-- Node14&#45;&gt;Node15 -->
<g id="edge22_Node000014_Node000015" class="edge">
<title>Node14&#45;&gt;Node15</title>
<g id="a_edge22_Node000014_Node000015"><a xlink:title=" ">
<path fill="none" stroke="#63b8ff" d="M419.24,-172.47C448.63,-161.79 484.89,-148.62 508.22,-140.14"/>
<polygon fill="#63b8ff" stroke="#63b8ff" points="417.77,-169.28 409.56,-175.99 420.16,-175.86 417.77,-169.28"/>
</a>
</g>
</g>
</g>
</svg>
