<?xml version="1.0" encoding="UTF-8" standalone="no"?>
<!DOCTYPE svg PUBLIC "-//W3C//DTD SVG 1.1//EN"
 "http://www.w3.org/Graphics/SVG/1.1/DTD/svg11.dtd">
<!-- Generated by graphviz version 2.43.0 (0)
 -->
<!-- Title: LLM_Delete Pages: 1 -->
<svg width="260pt" height="45pt"
 viewBox="0.00 0.00 260.00 45.00" xmlns="http://www.w3.org/2000/svg" xmlns:xlink="http://www.w3.org/1999/xlink">
<g id="graph0" class="graph" transform="scale(1 1) rotate(0) translate(4 41)">
<title>LLM_Delete</title>
<!-- Node1 -->
<g id="Node000001" class="node">
<title>Node1</title>
<g id="a_Node000001"><a xlink:title="Delete LLM provider (C API)">
<polygon fill="#999999" stroke="#666666" points="252,-19 178,-19 178,0 252,0 252,-19"/>
<text text-anchor="middle" x="215" y="-7" font-family="Helvetica,sans-Serif" font-size="10.00">LLM_Delete</text>
</a>
</g>
</g>
<!-- Node1&#45;&gt;Node1 -->
<g id="edge1_Node000001_Node000001" class="edge">
<title>Node1&#45;&gt;Node1</title>
<g id="a_edge1_Node000001_Node000001"><a xlink:title=" ">
<path fill="none" stroke="#63b8ff" d="M241.79,-28.19C240.32,-33.2 231.4,-37 215,-37 189.41,-37 182.01,-27.73 192.81,-19.08"/>
<polygon fill="#63b8ff" stroke="#63b8ff" points="244.82,-26.44 237.19,-19.08 238.57,-29.59 244.82,-26.44"/>
</a>
</g>
</g>
<!-- Node2 -->
<g id="Node000002" class="node">
<title>Node2</title>
<g id="a_Node000002"><a xlink:href="classLLMService.html#a2e4a6744af72dfc8edba8c91e827c68e" target="_top" xlink:title="Destructor.">
<polygon fill="white" stroke="#666666" points="142,-19 0,-19 0,0 142,0 142,-19"/>
<text text-anchor="middle" x="71" y="-7" font-family="Helvetica,sans-Serif" font-size="10.00">LLMService::~LLMService</text>
</a>
</g>
</g>
<!-- Node1&#45;&gt;Node2 -->
<g id="edge2_Node000001_Node000002" class="edge">
<title>Node1&#45;&gt;Node2</title>
<g id="a_edge2_Node000001_Node000002"><a xlink:title=" ">
<path fill="none" stroke="#63b8ff" d="M167.72,-9.5C159.52,-9.5 150.81,-9.5 142.13,-9.5"/>
<polygon fill="#63b8ff" stroke="#63b8ff" points="167.8,-13 177.8,-9.5 167.8,-6 167.8,-13"/>
</a>
</g>
</g>
</g>
</svg>
