<?xml version="1.0" encoding="UTF-8" standalone="no"?>
<!DOCTYPE svg PUBLIC "-//W3C//DTD SVG 1.1//EN"
 "http://www.w3.org/Graphics/SVG/1.1/DTD/svg11.dtd">
<!-- Generated by graphviz version 2.43.0 (0)
 -->
<!-- Title: LLM_Logging_Callback Pages: 1 -->
<svg width="278pt" height="45pt"
 viewBox="0.00 0.00 278.00 45.00" xmlns="http://www.w3.org/2000/svg" xmlns:xlink="http://www.w3.org/1999/xlink">
<g id="graph0" class="graph" transform="scale(1 1) rotate(0) translate(4 41)">
<title>LLM_Logging_Callback</title>
<!-- Node1 -->
<g id="Node000001" class="node">
<title>Node1</title>
<g id="a_Node000001"><a xlink:title="Set global logging callback (C API)">
<polygon fill="#999999" stroke="#666666" points="270,-19 143,-19 143,0 270,0 270,-19"/>
<text text-anchor="middle" x="206.5" y="-7" font-family="Helvetica,sans-Serif" font-size="10.00">LLM_Logging_Callback</text>
</a>
</g>
</g>
<!-- Node1&#45;&gt;Node1 -->
<g id="edge1_Node000001_Node000001" class="edge">
<title>Node1&#45;&gt;Node1</title>
<g id="a_edge1_Node000001_Node000001"><a xlink:title=" ">
<path fill="none" stroke="#63b8ff" d="M234.87,-27.82C233.69,-33.01 224.23,-37 206.5,-37 179.48,-37 171.68,-27.73 183.07,-19.08"/>
<polygon fill="#63b8ff" stroke="#63b8ff" points="237.9,-26.06 229.93,-19.08 231.81,-29.51 237.9,-26.06"/>
</a>
</g>
</g>
<!-- Node2 -->
<g id="Node000002" class="node">
<title>Node2</title>
<g id="a_Node000002"><a xlink:href="LLM_8cpp.html#a7c131670b604b750cbfad7010ad25860" target="_top" xlink:title="Stop global logging (C API)">
<polygon fill="white" stroke="#666666" points="107,-19 0,-19 0,0 107,0 107,-19"/>
<text text-anchor="middle" x="53.5" y="-7" font-family="Helvetica,sans-Serif" font-size="10.00">LLM_Logging_Stop</text>
</a>
</g>
</g>
<!-- Node1&#45;&gt;Node2 -->
<g id="edge2_Node000001_Node000002" class="edge">
<title>Node1&#45;&gt;Node2</title>
<g id="a_edge2_Node000001_Node000002"><a xlink:title=" ">
<path fill="none" stroke="#63b8ff" d="M132.72,-9.5C124.11,-9.5 115.45,-9.5 107.2,-9.5"/>
<polygon fill="#63b8ff" stroke="#63b8ff" points="132.77,-13 142.77,-9.5 132.77,-6 132.77,-13"/>
</a>
</g>
</g>
<!-- Node2&#45;&gt;Node2 -->
<g id="edge3_Node000002_Node000002" class="edge">
<title>Node2&#45;&gt;Node2</title>
<g id="a_edge3_Node000002_Node000002"><a xlink:title=" ">
<path fill="none" stroke="#63b8ff" d="M81.87,-27.82C80.69,-33.01 71.23,-37 53.5,-37 26.48,-37 18.68,-27.73 30.07,-19.08"/>
<polygon fill="#63b8ff" stroke="#63b8ff" points="84.9,-26.06 76.93,-19.08 78.81,-29.51 84.9,-26.06"/>
</a>
</g>
</g>
</g>
</svg>
