<?xml version="1.0" encoding="UTF-8" standalone="no"?>
<!DOCTYPE svg PUBLIC "-//W3C//DTD SVG 1.1//EN"
 "http://www.w3.org/Graphics/SVG/1.1/DTD/svg11.dtd">
<!-- Generated by graphviz version 2.43.0 (0)
 -->
<!-- Title: LLMService_From_Command Pages: 1 -->
<svg width="853pt" height="73pt"
 viewBox="0.00 0.00 853.00 72.50" xmlns="http://www.w3.org/2000/svg" xmlns:xlink="http://www.w3.org/1999/xlink">
<g id="graph0" class="graph" transform="scale(1 1) rotate(0) translate(4 68.5)">
<title>LLMService_From_Command</title>
<!-- Node1 -->
<g id="Node000001" class="node">
<title>Node1</title>
<g id="a_Node000001"><a xlink:title="Create LLMService from command string (C API)">
<polygon fill="#999999" stroke="#666666" points="845,-37 687,-37 687,-18 845,-18 845,-37"/>
<text text-anchor="middle" x="766" y="-25" font-family="Helvetica,sans-Serif" font-size="10.00">LLMService_From_Command</text>
</a>
</g>
</g>
<!-- Node1&#45;&gt;Node1 -->
<g id="edge7_Node000001_Node000001" class="edge">
<title>Node1&#45;&gt;Node1</title>
<g id="a_edge7_Node000001_Node000001"><a xlink:title=" ">
<path fill="none" stroke="#63b8ff" d="M798.93,-45.45C798,-50.82 787.02,-55 766,-55 734.72,-55 725.68,-45.73 738.87,-37.08"/>
<polygon fill="#63b8ff" stroke="#63b8ff" points="801.7,-43.3 793.13,-37.08 795.95,-47.29 801.7,-43.3"/>
</a>
</g>
</g>
<!-- Node2 -->
<g id="Node000002" class="node">
<title>Node2</title>
<g id="a_Node000002"><a xlink:href="classLLMService.html#a5aa62b2f1feb31a8977801c2bd2ed30d" target="_top" xlink:title="Load LLM library backend.">
<polygon fill="white" stroke="#666666" points="651,-64.5 527,-64.5 527,-34.5 651,-34.5 651,-64.5"/>
<text text-anchor="start" x="535" y="-52.5" font-family="Helvetica,sans-Serif" font-size="10.00">LLMService::create</text>
<text text-anchor="middle" x="589" y="-41.5" font-family="Helvetica,sans-Serif" font-size="10.00">_LLM_library_backend</text>
</a>
</g>
</g>
<!-- Node1&#45;&gt;Node2 -->
<g id="edge1_Node000001_Node000002" class="edge">
<title>Node1&#45;&gt;Node2</title>
<g id="a_edge1_Node000001_Node000002"><a xlink:title=" ">
<path fill="none" stroke="#63b8ff" d="M679.05,-38.31C669.61,-39.49 660.15,-40.68 651.11,-41.82"/>
<polygon fill="#63b8ff" stroke="#63b8ff" points="679.77,-41.74 689.26,-37.02 678.9,-34.8 679.77,-41.74"/>
</a>
</g>
</g>
<!-- Node3 -->
<g id="Node000003" class="node">
<title>Node3</title>
<g id="a_Node000003"><a xlink:href="classLLMService.html#ac194e3210642288e650ed9f9194a69ee" target="_top" xlink:title="Loads LLM library dynamically according to underlying achitecture and creates a LLM based on the comm...">
<polygon fill="white" stroke="#666666" points="491,-64.5 382,-64.5 382,-34.5 491,-34.5 491,-64.5"/>
<text text-anchor="start" x="390" y="-52.5" font-family="Helvetica,sans-Serif" font-size="10.00">LLMService::create</text>
<text text-anchor="middle" x="436.5" y="-41.5" font-family="Helvetica,sans-Serif" font-size="10.00">_LLM_library</text>
</a>
</g>
</g>
<!-- Node2&#45;&gt;Node3 -->
<g id="edge2_Node000002_Node000003" class="edge">
<title>Node2&#45;&gt;Node3</title>
<g id="a_edge2_Node000002_Node000003"><a xlink:title=" ">
<path fill="none" stroke="#63b8ff" d="M516.53,-49.5C508.08,-49.5 499.56,-49.5 491.41,-49.5"/>
<polygon fill="#63b8ff" stroke="#63b8ff" points="516.79,-53 526.79,-49.5 516.79,-46 516.79,-53"/>
</a>
</g>
</g>
<!-- Node4 -->
<g id="Node000004" class="node">
<title>Node4</title>
<g id="a_Node000004"><a xlink:href="classLLMService.html#afd5f58f0c3b9e3d64524ddb21cc8168a" target="_top" xlink:title="Create runtime from command line string.">
<polygon fill="white" stroke="#666666" points="346,-19 191,-19 191,0 346,0 346,-19"/>
<text text-anchor="middle" x="268.5" y="-7" font-family="Helvetica,sans-Serif" font-size="10.00">LLMService::from_command</text>
</a>
</g>
</g>
<!-- Node3&#45;&gt;Node4 -->
<g id="edge3_Node000003_Node000004" class="edge">
<title>Node3&#45;&gt;Node4</title>
<g id="a_edge3_Node000003_Node000004"><a xlink:title=" ">
<path fill="none" stroke="#63b8ff" d="M371.72,-34.13C350.58,-29.04 327.68,-23.52 308.93,-19"/>
<polygon fill="#63b8ff" stroke="#63b8ff" points="371.06,-37.57 381.6,-36.51 372.7,-30.77 371.06,-37.57"/>
</a>
</g>
</g>
<!-- Node6 -->
<g id="Node000006" class="node">
<title>Node6</title>
<g id="a_Node000006"><a xlink:href="classLLMService.html#a982b997919be934d4c3d300bbbe7a971" target="_top" xlink:title="Parameterized constructor.">
<polygon fill="white" stroke="#666666" points="335.5,-59 201.5,-59 201.5,-40 335.5,-40 335.5,-59"/>
<text text-anchor="middle" x="268.5" y="-47" font-family="Helvetica,sans-Serif" font-size="10.00">LLMService::LLMService</text>
</a>
</g>
</g>
<!-- Node3&#45;&gt;Node6 -->
<g id="edge6_Node000003_Node000006" class="edge">
<title>Node3&#45;&gt;Node6</title>
<g id="a_edge6_Node000003_Node000006"><a xlink:title=" ">
<path fill="none" stroke="#63b8ff" d="M371.44,-49.5C359.69,-49.5 347.41,-49.5 335.6,-49.5"/>
<polygon fill="#63b8ff" stroke="#63b8ff" points="371.6,-53 381.6,-49.5 371.6,-46 371.6,-53"/>
</a>
</g>
</g>
<!-- Node4&#45;&gt;Node1 -->
<g id="edge5_Node000004_Node000001" class="edge">
<title>Node4&#45;&gt;Node1</title>
<g id="a_edge5_Node000004_Node000001"><a xlink:title=" ">
<path fill="none" stroke="#63b8ff" d="M356.38,-12.66C449.76,-16.05 596.86,-21.39 686.76,-24.66"/>
<polygon fill="#63b8ff" stroke="#63b8ff" points="356.23,-9.15 346.11,-12.28 355.97,-16.14 356.23,-9.15"/>
</a>
</g>
</g>
<!-- Node5 -->
<g id="Node000005" class="node">
<title>Node5</title>
<g id="a_Node000005"><a xlink:href="classLLMService.html#a8c646d7f7f81358417ed52359b10d583" target="_top" xlink:title="Create runtime from argc/argv.">
<polygon fill="white" stroke="#666666" points="155,-19 0,-19 0,0 155,0 155,-19"/>
<text text-anchor="middle" x="77.5" y="-7" font-family="Helvetica,sans-Serif" font-size="10.00">LLMService::from_command</text>
</a>
</g>
</g>
<!-- Node4&#45;&gt;Node5 -->
<g id="edge4_Node000004_Node000005" class="edge">
<title>Node4&#45;&gt;Node5</title>
<g id="a_edge4_Node000004_Node000005"><a xlink:title=" ">
<path fill="none" stroke="#63b8ff" d="M180.9,-9.5C172.33,-9.5 163.67,-9.5 155.21,-9.5"/>
<polygon fill="#63b8ff" stroke="#63b8ff" points="180.9,-13 190.9,-9.5 180.9,-6 180.9,-13"/>
</a>
</g>
</g>
</g>
</svg>
