<?xml version="1.0" encoding="UTF-8" standalone="no"?>
<!DOCTYPE svg PUBLIC "-//W3C//DTD SVG 1.1//EN"
 "http://www.w3.org/Graphics/SVG/1.1/DTD/svg11.dtd">
<!-- Generated by graphviz version 2.43.0 (0)
 -->
<!-- Title: Graphical Class Hierarchy Pages: 1 -->
<svg width="363pt" height="101pt"
 viewBox="0.00 0.00 363.00 101.00" xmlns="http://www.w3.org/2000/svg" xmlns:xlink="http://www.w3.org/1999/xlink">
<g id="graph0" class="graph" transform="scale(1 1) rotate(0) translate(4 97)">
<title>Graphical Class Hierarchy</title>
<!-- Node0 -->
<g id="Node000000" class="node">
<title>Node0</title>
<g id="a_Node000000"><a xlink:href="classLLM.html" target="_top" xlink:title="Abstract base class for Large Language Model operations.">
<polygon fill="white" stroke="#666666" points="36,-56 0,-56 0,-37 36,-37 36,-56"/>
<text text-anchor="middle" x="18" y="-44" font-family="Helvetica,sans-Serif" font-size="10.00">LLM</text>
</a>
</g>
</g>
<!-- Node1 -->
<g id="Node000001" class="node">
<title>Node1</title>
<g id="a_Node000001"><a xlink:href="classLLMLocal.html" target="_top" xlink:title="Abstract class for local LLM operations with slot management.">
<polygon fill="white" stroke="#666666" points="134,-56 72,-56 72,-37 134,-37 134,-56"/>
<text text-anchor="middle" x="103" y="-44" font-family="Helvetica,sans-Serif" font-size="10.00">LLMLocal</text>
</a>
</g>
</g>
<!-- Node0&#45;&gt;Node1 -->
<g id="edge1_Node000000_Node000001" class="edge">
<title>Node0&#45;&gt;Node1</title>
<g id="a_edge1_Node000000_Node000001"><a xlink:title=" ">
<path fill="none" stroke="#63b8ff" d="M46.3,-46.5C54.44,-46.5 63.41,-46.5 71.73,-46.5"/>
<polygon fill="#63b8ff" stroke="#63b8ff" points="46.2,-43 36.2,-46.5 46.2,-50 46.2,-43"/>
</a>
</g>
</g>
<!-- Node2 -->
<g id="Node000002" class="node">
<title>Node2</title>
<g id="a_Node000002"><a xlink:href="classLLMAgent.html" target="_top" xlink:title="High&#45;level conversational agent for LLM interactions.">
<polygon fill="white" stroke="#666666" points="241,-93 176,-93 176,-74 241,-74 241,-93"/>
<text text-anchor="middle" x="208.5" y="-81" font-family="Helvetica,sans-Serif" font-size="10.00">LLMAgent</text>
</a>
</g>
</g>
<!-- Node1&#45;&gt;Node2 -->
<g id="edge2_Node000001_Node000002" class="edge">
<title>Node1&#45;&gt;Node2</title>
<g id="a_edge2_Node000001_Node000002"><a xlink:title=" ">
<path fill="none" stroke="#63b8ff" d="M140.41,-59.52C153.63,-64.24 168.32,-69.49 180.58,-73.88"/>
<polygon fill="#63b8ff" stroke="#63b8ff" points="141.25,-56.1 130.65,-56.03 138.89,-62.69 141.25,-56.1"/>
</a>
</g>
</g>
<!-- Node3 -->
<g id="Node000003" class="node">
<title>Node3</title>
<g id="a_Node000003"><a xlink:href="classLLMClient.html" target="_top" xlink:title="Client for accessing LLM functionality locally or remotely.">
<polygon fill="white" stroke="#666666" points="241,-56 176,-56 176,-37 241,-37 241,-56"/>
<text text-anchor="middle" x="208.5" y="-44" font-family="Helvetica,sans-Serif" font-size="10.00">LLMClient</text>
</a>
</g>
</g>
<!-- Node1&#45;&gt;Node3 -->
<g id="edge3_Node000001_Node000003" class="edge">
<title>Node1&#45;&gt;Node3</title>
<g id="a_edge3_Node000001_Node000003"><a xlink:title=" ">
<path fill="none" stroke="#63b8ff" d="M144.41,-46.5C154.9,-46.5 166.04,-46.5 175.99,-46.5"/>
<polygon fill="#63b8ff" stroke="#63b8ff" points="144.21,-43 134.21,-46.5 144.21,-50 144.21,-43"/>
</a>
</g>
</g>
<!-- Node4 -->
<g id="Node000004" class="node">
<title>Node4</title>
<g id="a_Node000004"><a xlink:href="classLLMProvider.html" target="_top" xlink:title="Abstract class for LLM service providers.">
<polygon fill="white" stroke="#666666" points="247,-19 170,-19 170,0 247,0 247,-19"/>
<text text-anchor="middle" x="208.5" y="-7" font-family="Helvetica,sans-Serif" font-size="10.00">LLMProvider</text>
</a>
</g>
</g>
<!-- Node1&#45;&gt;Node4 -->
<g id="edge4_Node000001_Node000004" class="edge">
<title>Node1&#45;&gt;Node4</title>
<g id="a_edge4_Node000001_Node000004"><a xlink:title=" ">
<path fill="none" stroke="#63b8ff" d="M140.41,-33.48C153.63,-28.76 168.32,-23.51 180.58,-19.12"/>
<polygon fill="#63b8ff" stroke="#63b8ff" points="138.89,-30.31 130.65,-36.97 141.25,-36.9 138.89,-30.31"/>
</a>
</g>
</g>
<!-- Node5 -->
<g id="Node000005" class="node">
<title>Node5</title>
<g id="a_Node000005"><a xlink:href="classLLMService.html" target="_top" xlink:title="Runtime loader for LLM libraries.">
<polygon fill="white" stroke="#666666" points="355,-19 283,-19 283,0 355,0 355,-19"/>
<text text-anchor="middle" x="319" y="-7" font-family="Helvetica,sans-Serif" font-size="10.00">LLMService</text>
</a>
</g>
</g>
<!-- Node4&#45;&gt;Node5 -->
<g id="edge5_Node000004_Node000005" class="edge">
<title>Node4&#45;&gt;Node5</title>
<g id="a_edge5_Node000004_Node000005"><a xlink:title=" ">
<path fill="none" stroke="#63b8ff" d="M257.17,-9.5C265.84,-9.5 274.75,-9.5 282.97,-9.5"/>
<polygon fill="#63b8ff" stroke="#63b8ff" points="257.14,-6 247.14,-9.5 257.14,-13 257.14,-6"/>
</a>
</g>
</g>
</g>
</svg>
