<?xml version="1.0" encoding="UTF-8" standalone="no"?>
<!DOCTYPE svg PUBLIC "-//W3C//DTD SVG 1.1//EN"
 "http://www.w3.org/Graphics/SVG/1.1/DTD/svg11.dtd">
<!-- Generated by graphviz version 2.43.0 (0)
 -->
<!-- Title: include/LlamaLib.h Pages: 1 -->
<svg width="767pt" height="302pt"
 viewBox="0.00 0.00 767.00 302.00" xmlns="http://www.w3.org/2000/svg" xmlns:xlink="http://www.w3.org/1999/xlink">
<g id="graph0" class="graph" transform="scale(1 1) rotate(0) translate(4 298)">
<title>include/LlamaLib.h</title>
<!-- Node1 -->
<g id="Node000001" class="node">
<title>Node1</title>
<g id="a_Node000001"><a xlink:title="Main include file for the LLama library.">
<polygon fill="#999999" stroke="#666666" points="528,-294 420,-294 420,-275 528,-275 528,-294"/>
<text text-anchor="middle" x="474" y="-282" font-family="Helvetica,sans-Serif" font-size="10.00">include/LlamaLib.h</text>
</a>
</g>
</g>
<!-- Node2 -->
<g id="Node000002" class="node">
<title>Node2</title>
<g id="a_Node000002"><a xlink:href="LLM__client_8h.html" target="_top" xlink:title="Client interface for local and remote LLM access.">
<polygon fill="white" stroke="#666666" points="579.5,-184 502.5,-184 502.5,-165 579.5,-165 579.5,-184"/>
<text text-anchor="middle" x="541" y="-172" font-family="Helvetica,sans-Serif" font-size="10.00">LLM_client.h</text>
</a>
</g>
</g>
<!-- Node1&#45;&gt;Node2 -->
<g id="edge1_Node000001_Node000002" class="edge">
<title>Node1&#45;&gt;Node2</title>
<g id="a_edge1_Node000001_Node000002"><a xlink:title=" ">
<path fill="none" stroke="#63b8ff" d="M486.81,-274.69C497.66,-266.6 512.87,-253.66 522,-239 530.55,-225.26 535.44,-207.46 538.11,-194.2"/>
<polygon fill="#63b8ff" stroke="#63b8ff" points="541.57,-194.78 539.87,-184.32 534.67,-193.55 541.57,-194.78"/>
</a>
</g>
</g>
<!-- Node19 -->
<g id="Node000019" class="node">
<title>Node19</title>
<g id="a_Node000019"><a xlink:href="LLM__agent_8h.html" target="_top" xlink:title="High&#45;level conversational agent interface for LLMs.">
<polygon fill="white" stroke="#666666" points="513,-239 435,-239 435,-220 513,-220 513,-239"/>
<text text-anchor="middle" x="474" y="-227" font-family="Helvetica,sans-Serif" font-size="10.00">LLM_agent.h</text>
</a>
</g>
</g>
<!-- Node1&#45;&gt;Node19 -->
<g id="edge21_Node000001_Node000019" class="edge">
<title>Node1&#45;&gt;Node19</title>
<g id="a_edge21_Node000001_Node000019"><a xlink:title=" ">
<path fill="none" stroke="#63b8ff" d="M474,-274.75C474,-267.8 474,-257.85 474,-249.13"/>
<polygon fill="#63b8ff" stroke="#63b8ff" points="477.5,-249.09 474,-239.09 470.5,-249.09 477.5,-249.09"/>
</a>
</g>
</g>
<!-- Node20 -->
<g id="Node000020" class="node">
<title>Node20</title>
<g id="a_Node000020"><a xlink:href="LLM__service_8h.html" target="_top" xlink:title="LLM service implementation with server capabilities.">
<polygon fill="white" stroke="#666666" points="446,-184 360,-184 360,-165 446,-165 446,-184"/>
<text text-anchor="middle" x="403" y="-172" font-family="Helvetica,sans-Serif" font-size="10.00">LLM_service.h</text>
</a>
</g>
</g>
<!-- Node1&#45;&gt;Node20 -->
<g id="edge24_Node000001_Node000020" class="edge">
<title>Node1&#45;&gt;Node20</title>
<g id="a_edge24_Node000001_Node000020"><a xlink:title=" ">
<path fill="none" stroke="#63b8ff" d="M461.82,-274.88C451.07,-266.73 435.67,-253.59 426,-239 416.89,-225.26 410.85,-207.45 407.25,-194.19"/>
<polygon fill="#63b8ff" stroke="#63b8ff" points="410.61,-193.17 404.79,-184.32 403.81,-194.86 410.61,-193.17"/>
</a>
</g>
</g>
<!-- Node3 -->
<g id="Node000003" class="node">
<title>Node3</title>
<g id="a_Node000003"><a xlink:title=" ">
<polygon fill="#e0e0e0" stroke="#999999" points="567.5,-19 520.5,-19 520.5,0 567.5,0 567.5,-19"/>
<text text-anchor="middle" x="544" y="-7" font-family="Helvetica,sans-Serif" font-size="10.00">vector</text>
</a>
</g>
</g>
<!-- Node2&#45;&gt;Node3 -->
<g id="edge2_Node000002_Node000003" class="edge">
<title>Node2&#45;&gt;Node3</title>
<g id="a_edge2_Node000002_Node000003"><a xlink:title=" ">
<path fill="none" stroke="#63b8ff" d="M537.4,-164.82C533.94,-155.99 528.97,-141.81 527,-129 522.01,-96.49 521.03,-87.34 527,-55 528.67,-45.95 532.1,-36.36 535.44,-28.41"/>
<polygon fill="#63b8ff" stroke="#63b8ff" points="538.73,-29.65 539.63,-19.09 532.34,-26.78 538.73,-29.65"/>
</a>
</g>
</g>
<!-- Node4 -->
<g id="Node000004" class="node">
<title>Node4</title>
<g id="a_Node000004"><a xlink:title=" ">
<polygon fill="#e0e0e0" stroke="#999999" points="617,-129 569,-129 569,-110 617,-110 617,-129"/>
<text text-anchor="middle" x="593" y="-117" font-family="Helvetica,sans-Serif" font-size="10.00">thread</text>
</a>
</g>
</g>
<!-- Node2&#45;&gt;Node4 -->
<g id="edge3_Node000002_Node000004" class="edge">
<title>Node2&#45;&gt;Node4</title>
<g id="a_edge3_Node000002_Node000004"><a xlink:title=" ">
<path fill="none" stroke="#63b8ff" d="M549.59,-164.75C557.16,-157.03 568.38,-145.6 577.51,-136.28"/>
<polygon fill="#63b8ff" stroke="#63b8ff" points="580.07,-138.68 584.57,-129.09 575.07,-133.78 580.07,-138.68"/>
</a>
</g>
</g>
<!-- Node5 -->
<g id="Node000005" class="node">
<title>Node5</title>
<g id="a_Node000005"><a xlink:title=" ">
<polygon fill="#e0e0e0" stroke="#999999" points="685,-129 635,-129 635,-110 685,-110 685,-129"/>
<text text-anchor="middle" x="660" y="-117" font-family="Helvetica,sans-Serif" font-size="10.00">chrono</text>
</a>
</g>
</g>
<!-- Node2&#45;&gt;Node5 -->
<g id="edge4_Node000002_Node000005" class="edge">
<title>Node2&#45;&gt;Node5</title>
<g id="a_edge4_Node000002_Node000005"><a xlink:title=" ">
<path fill="none" stroke="#63b8ff" d="M560.12,-164.98C579.35,-156.42 609.23,-143.11 631.31,-133.28"/>
<polygon fill="#63b8ff" stroke="#63b8ff" points="632.82,-136.44 640.53,-129.17 629.97,-130.04 632.82,-136.44"/>
</a>
</g>
</g>
<!-- Node6 -->
<g id="Node000006" class="node">
<title>Node6</title>
<g id="a_Node000006"><a xlink:title=" ">
<polygon fill="#e0e0e0" stroke="#999999" points="646,-19 586,-19 586,0 646,0 646,-19"/>
<text text-anchor="middle" x="616" y="-7" font-family="Helvetica,sans-Serif" font-size="10.00">iostream</text>
</a>
</g>
</g>
<!-- Node2&#45;&gt;Node6 -->
<g id="edge5_Node000002_Node000006" class="edge">
<title>Node2&#45;&gt;Node6</title>
<g id="a_edge5_Node000002_Node000006"><a xlink:title=" ">
<path fill="none" stroke="#63b8ff" d="M542.99,-164.66C545.93,-152.19 551.99,-128.85 560,-110 572.8,-79.88 592.38,-47.22 604.67,-27.83"/>
<polygon fill="#63b8ff" stroke="#63b8ff" points="607.75,-29.52 610.21,-19.21 601.86,-25.73 607.75,-29.52"/>
</a>
</g>
</g>
<!-- Node7 -->
<g id="Node000007" class="node">
<title>Node7</title>
<g id="a_Node000007"><a xlink:title=" ">
<polygon fill="#e0e0e0" stroke="#999999" points="759,-129 703,-129 703,-110 759,-110 759,-129"/>
<text text-anchor="middle" x="731" y="-117" font-family="Helvetica,sans-Serif" font-size="10.00">sstream</text>
</a>
</g>
</g>
<!-- Node2&#45;&gt;Node7 -->
<g id="edge6_Node000002_Node000007" class="edge">
<title>Node2&#45;&gt;Node7</title>
<g id="a_edge6_Node000002_Node000007"><a xlink:title=" ">
<path fill="none" stroke="#63b8ff" d="M571.53,-164.98C604.47,-155.8 656.98,-141.15 692.68,-131.19"/>
<polygon fill="#63b8ff" stroke="#63b8ff" points="694.03,-134.45 702.72,-128.39 692.15,-127.7 694.03,-134.45"/>
</a>
</g>
</g>
<!-- Node8 -->
<g id="Node000008" class="node">
<title>Node8</title>
<g id="a_Node000008"><a xlink:href="LLM_8h.html" target="_top" xlink:title="Core LLM functionality interface and base classes.">
<polygon fill="white" stroke="#666666" points="425.5,-129 380.5,-129 380.5,-110 425.5,-110 425.5,-129"/>
<text text-anchor="middle" x="403" y="-117" font-family="Helvetica,sans-Serif" font-size="10.00">LLM.h</text>
</a>
</g>
</g>
<!-- Node2&#45;&gt;Node8 -->
<g id="edge7_Node000002_Node000008" class="edge">
<title>Node2&#45;&gt;Node8</title>
<g id="a_edge7_Node000002_Node000008"><a xlink:title=" ">
<path fill="none" stroke="#63b8ff" d="M518.83,-164.98C496.23,-156.3 460.94,-142.75 435.25,-132.88"/>
<polygon fill="#63b8ff" stroke="#63b8ff" points="436.17,-129.49 425.58,-129.17 433.66,-136.02 436.17,-129.49"/>
</a>
</g>
</g>
<!-- Node9 -->
<g id="Node000009" class="node">
<title>Node9</title>
<g id="a_Node000009"><a xlink:href="defs_8h.html" target="_top" xlink:title="File with basic definitions.">
<polygon fill="white" stroke="#666666" points="203.5,-74 156.5,-74 156.5,-55 203.5,-55 203.5,-74"/>
<text text-anchor="middle" x="180" y="-62" font-family="Helvetica,sans-Serif" font-size="10.00">defs.h</text>
</a>
</g>
</g>
<!-- Node8&#45;&gt;Node9 -->
<g id="edge8_Node000008_Node000009" class="edge">
<title>Node8&#45;&gt;Node9</title>
<g id="a_edge8_Node000008_Node000009"><a xlink:title=" ">
<path fill="none" stroke="#63b8ff" d="M380.39,-113.13C340.96,-103.76 259.46,-84.38 213.47,-73.45"/>
<polygon fill="#63b8ff" stroke="#63b8ff" points="214.21,-70.03 203.68,-71.13 212.6,-76.84 214.21,-70.03"/>
</a>
</g>
</g>
<!-- Node13 -->
<g id="Node000013" class="node">
<title>Node13</title>
<g id="a_Node000013"><a xlink:href="error__handling_8h_source.html" target="_top" xlink:title=" ">
<polygon fill="white" stroke="#666666" points="451,-74 355,-74 355,-55 451,-55 451,-74"/>
<text text-anchor="middle" x="403" y="-62" font-family="Helvetica,sans-Serif" font-size="10.00">error_handling.h</text>
</a>
</g>
</g>
<!-- Node8&#45;&gt;Node13 -->
<g id="edge12_Node000008_Node000013" class="edge">
<title>Node8&#45;&gt;Node13</title>
<g id="a_edge12_Node000008_Node000013"><a xlink:title=" ">
<path fill="none" stroke="#63b8ff" d="M403,-109.75C403,-102.8 403,-92.85 403,-84.13"/>
<polygon fill="#63b8ff" stroke="#63b8ff" points="406.5,-84.09 403,-74.09 399.5,-84.09 406.5,-84.09"/>
</a>
</g>
</g>
<!-- Node18 -->
<g id="Node000018" class="node">
<title>Node18</title>
<g id="a_Node000018"><a xlink:title=" ">
<polygon fill="#e0e0e0" stroke="#999999" points="138.5,-74 81.5,-74 81.5,-55 138.5,-55 138.5,-74"/>
<text text-anchor="middle" x="110" y="-62" font-family="Helvetica,sans-Serif" font-size="10.00">httplib.h</text>
</a>
</g>
</g>
<!-- Node8&#45;&gt;Node18 -->
<g id="edge20_Node000008_Node000018" class="edge">
<title>Node8&#45;&gt;Node18</title>
<g id="a_edge20_Node000008_Node000018"><a xlink:title=" ">
<path fill="none" stroke="#63b8ff" d="M380.32,-114.98C337.14,-108.18 239.94,-92.46 148.61,-74.24"/>
<polygon fill="#63b8ff" stroke="#63b8ff" points="149.14,-70.78 138.65,-72.24 147.77,-77.64 149.14,-70.78"/>
</a>
</g>
</g>
<!-- Node10 -->
<g id="Node000010" class="node">
<title>Node10</title>
<g id="a_Node000010"><a xlink:title=" ">
<polygon fill="#e0e0e0" stroke="#999999" points="140,-19 76,-19 76,0 140,0 140,-19"/>
<text text-anchor="middle" x="108" y="-7" font-family="Helvetica,sans-Serif" font-size="10.00">sys/stat.h</text>
</a>
</g>
</g>
<!-- Node9&#45;&gt;Node10 -->
<g id="edge9_Node000009_Node000010" class="edge">
<title>Node9&#45;&gt;Node10</title>
<g id="a_edge9_Node000009_Node000010"><a xlink:title=" ">
<path fill="none" stroke="#63b8ff" d="M168.43,-54.98C157.58,-47 141.12,-34.88 128.12,-25.31"/>
<polygon fill="#63b8ff" stroke="#63b8ff" points="129.91,-22.28 119.78,-19.17 125.76,-27.92 129.91,-22.28"/>
</a>
</g>
</g>
<!-- Node11 -->
<g id="Node000011" class="node">
<title>Node11</title>
<g id="a_Node000011"><a xlink:title=" ">
<polygon fill="#e0e0e0" stroke="#999999" points="202,-19 158,-19 158,0 202,0 202,-19"/>
<text text-anchor="middle" x="180" y="-7" font-family="Helvetica,sans-Serif" font-size="10.00">string</text>
</a>
</g>
</g>
<!-- Node9&#45;&gt;Node11 -->
<g id="edge10_Node000009_Node000011" class="edge">
<title>Node9&#45;&gt;Node11</title>
<g id="a_edge10_Node000009_Node000011"><a xlink:title=" ">
<path fill="none" stroke="#63b8ff" d="M180,-54.75C180,-47.8 180,-37.85 180,-29.13"/>
<polygon fill="#63b8ff" stroke="#63b8ff" points="183.5,-29.09 180,-19.09 176.5,-29.09 183.5,-29.09"/>
</a>
</g>
</g>
<!-- Node12 -->
<g id="Node000012" class="node">
<title>Node12</title>
<g id="a_Node000012"><a xlink:title=" ">
<polygon fill="#e0e0e0" stroke="#999999" points="58,-19 0,-19 0,0 58,0 58,-19"/>
<text text-anchor="middle" x="29" y="-7" font-family="Helvetica,sans-Serif" font-size="10.00">json.hpp</text>
</a>
</g>
</g>
<!-- Node9&#45;&gt;Node12 -->
<g id="edge11_Node000009_Node000012" class="edge">
<title>Node9&#45;&gt;Node12</title>
<g id="a_edge11_Node000009_Node000012"><a xlink:title=" ">
<path fill="none" stroke="#63b8ff" d="M156.41,-55.22C131.33,-46.42 91.44,-32.42 62.98,-22.43"/>
<polygon fill="#63b8ff" stroke="#63b8ff" points="64.02,-19.08 53.43,-19.07 61.71,-25.69 64.02,-19.08"/>
</a>
</g>
</g>
<!-- Node13&#45;&gt;Node3 -->
<g id="edge15_Node000013_Node000003" class="edge">
<title>Node13&#45;&gt;Node3</title>
<g id="a_edge15_Node000013_Node000003"><a xlink:title=" ">
<path fill="none" stroke="#63b8ff" d="M425.65,-54.98C448.85,-46.27 485.12,-32.63 511.4,-22.75"/>
<polygon fill="#63b8ff" stroke="#63b8ff" points="512.8,-25.97 520.93,-19.17 510.34,-19.41 512.8,-25.97"/>
</a>
</g>
</g>
<!-- Node13&#45;&gt;Node6 -->
<g id="edge19_Node000013_Node000006" class="edge">
<title>Node13&#45;&gt;Node6</title>
<g id="a_edge19_Node000013_Node000006"><a xlink:title=" ">
<path fill="none" stroke="#63b8ff" d="M437.22,-54.98C475.09,-45.56 536.03,-30.4 576.05,-20.44"/>
<polygon fill="#63b8ff" stroke="#63b8ff" points="577.13,-23.78 585.99,-17.97 575.44,-16.98 577.13,-23.78"/>
</a>
</g>
</g>
<!-- Node13&#45;&gt;Node11 -->
<g id="edge13_Node000013_Node000011" class="edge">
<title>Node13&#45;&gt;Node11</title>
<g id="a_edge13_Node000013_Node000011"><a xlink:title=" ">
<path fill="none" stroke="#63b8ff" d="M363.91,-54.92C327.09,-46.73 270.15,-33.79 212.04,-19.19"/>
<polygon fill="#63b8ff" stroke="#63b8ff" points="212.88,-15.79 202.32,-16.74 211.16,-22.58 212.88,-15.79"/>
</a>
</g>
</g>
<!-- Node14 -->
<g id="Node000014" class="node">
<title>Node14</title>
<g id="a_Node000014"><a xlink:title=" ">
<polygon fill="#e0e0e0" stroke="#999999" points="502,-19 454,-19 454,0 502,0 502,-19"/>
<text text-anchor="middle" x="478" y="-7" font-family="Helvetica,sans-Serif" font-size="10.00">mutex</text>
</a>
</g>
</g>
<!-- Node13&#45;&gt;Node14 -->
<g id="edge14_Node000013_Node000014" class="edge">
<title>Node13&#45;&gt;Node14</title>
<g id="a_edge14_Node000013_Node000014"><a xlink:title=" ">
<path fill="none" stroke="#63b8ff" d="M415.05,-54.98C426.46,-46.92 443.83,-34.65 457.43,-25.03"/>
<polygon fill="#63b8ff" stroke="#63b8ff" points="459.58,-27.8 465.73,-19.17 455.54,-22.08 459.58,-27.8"/>
</a>
</g>
</g>
<!-- Node15 -->
<g id="Node000015" class="node">
<title>Node15</title>
<g id="a_Node000015"><a xlink:title=" ">
<polygon fill="#e0e0e0" stroke="#999999" points="279.5,-19 220.5,-19 220.5,0 279.5,0 279.5,-19"/>
<text text-anchor="middle" x="250" y="-7" font-family="Helvetica,sans-Serif" font-size="10.00">setjmp.h</text>
</a>
</g>
</g>
<!-- Node13&#45;&gt;Node15 -->
<g id="edge16_Node000013_Node000015" class="edge">
<title>Node13&#45;&gt;Node15</title>
<g id="a_edge16_Node000013_Node000015"><a xlink:title=" ">
<path fill="none" stroke="#63b8ff" d="M378.42,-54.98C352.95,-46.16 312.96,-32.31 284.37,-22.41"/>
<polygon fill="#63b8ff" stroke="#63b8ff" points="285.37,-19.05 274.77,-19.08 283.08,-25.66 285.37,-19.05"/>
</a>
</g>
</g>
<!-- Node16 -->
<g id="Node000016" class="node">
<title>Node16</title>
<g id="a_Node000016"><a xlink:title=" ">
<polygon fill="#e0e0e0" stroke="#999999" points="352.5,-19 297.5,-19 297.5,0 352.5,0 352.5,-19"/>
<text text-anchor="middle" x="325" y="-7" font-family="Helvetica,sans-Serif" font-size="10.00">signal.h</text>
</a>
</g>
</g>
<!-- Node13&#45;&gt;Node16 -->
<g id="edge17_Node000013_Node000016" class="edge">
<title>Node13&#45;&gt;Node16</title>
<g id="a_edge17_Node000013_Node000016"><a xlink:title=" ">
<path fill="none" stroke="#63b8ff" d="M390.47,-54.98C378.6,-46.92 360.54,-34.65 346.39,-25.03"/>
<polygon fill="#63b8ff" stroke="#63b8ff" points="348,-21.9 337.76,-19.17 344.06,-27.69 348,-21.9"/>
</a>
</g>
</g>
<!-- Node17 -->
<g id="Node000017" class="node">
<title>Node17</title>
<g id="a_Node000017"><a xlink:title=" ">
<polygon fill="#e0e0e0" stroke="#999999" points="435.5,-19 370.5,-19 370.5,0 435.5,0 435.5,-19"/>
<text text-anchor="middle" x="403" y="-7" font-family="Helvetica,sans-Serif" font-size="10.00">functional</text>
</a>
</g>
</g>
<!-- Node13&#45;&gt;Node17 -->
<g id="edge18_Node000013_Node000017" class="edge">
<title>Node13&#45;&gt;Node17</title>
<g id="a_edge18_Node000013_Node000017"><a xlink:title=" ">
<path fill="none" stroke="#63b8ff" d="M403,-54.75C403,-47.8 403,-37.85 403,-29.13"/>
<polygon fill="#63b8ff" stroke="#63b8ff" points="406.5,-29.09 403,-19.09 399.5,-29.09 406.5,-29.09"/>
</a>
</g>
</g>
<!-- Node19&#45;&gt;Node2 -->
<g id="edge23_Node000019_Node000002" class="edge">
<title>Node19&#45;&gt;Node2</title>
<g id="a_edge23_Node000019_Node000002"><a xlink:title=" ">
<path fill="none" stroke="#63b8ff" d="M484.76,-219.98C494.77,-212.07 509.89,-200.11 521.93,-190.58"/>
<polygon fill="#63b8ff" stroke="#63b8ff" points="524.37,-193.12 530.04,-184.17 520.03,-187.63 524.37,-193.12"/>
</a>
</g>
</g>
<!-- Node19&#45;&gt;Node8 -->
<g id="edge22_Node000019_Node000008" class="edge">
<title>Node19&#45;&gt;Node8</title>
<g id="a_edge22_Node000019_Node000008"><a xlink:title=" ">
<path fill="none" stroke="#63b8ff" d="M472.96,-219.62C471.1,-206.7 466.3,-182.36 455,-165 447.3,-153.17 435.56,-142.74 425.18,-134.96"/>
<polygon fill="#63b8ff" stroke="#63b8ff" points="427.07,-132.01 416.9,-129.07 423.02,-137.72 427.07,-132.01"/>
</a>
</g>
</g>
<!-- Node20&#45;&gt;Node8 -->
<g id="edge25_Node000020_Node000008" class="edge">
<title>Node20&#45;&gt;Node8</title>
<g id="a_edge25_Node000020_Node000008"><a xlink:title=" ">
<path fill="none" stroke="#63b8ff" d="M403,-164.75C403,-157.8 403,-147.85 403,-139.13"/>
<polygon fill="#63b8ff" stroke="#63b8ff" points="406.5,-139.09 403,-129.09 399.5,-139.09 406.5,-139.09"/>
</a>
</g>
</g>
</g>
</svg>
