<?xml version="1.0" encoding="UTF-8" standalone="no"?>
<!DOCTYPE svg PUBLIC "-//W3C//DTD SVG 1.1//EN"
 "http://www.w3.org/Graphics/SVG/1.1/DTD/svg11.dtd">
<!-- Generated by graphviz version 2.43.0 (0)
 -->
<!-- Title: include/LlamaLib.h Pages: 1 -->
<svg width="700pt" height="302pt"
 viewBox="0.00 0.00 699.50 302.00" xmlns="http://www.w3.org/2000/svg" xmlns:xlink="http://www.w3.org/1999/xlink">
<g id="graph0" class="graph" transform="scale(1 1) rotate(0) translate(4 298)">
<title>include/LlamaLib.h</title>
<!-- Node1 -->
<g id="Node000001" class="node">
<title>Node1</title>
<g id="a_Node000001"><a xlink:title="Main include file for the LLama library.">
<polygon fill="#999999" stroke="#666666" points="406.5,-294 298.5,-294 298.5,-275 406.5,-275 406.5,-294"/>
<text text-anchor="middle" x="352.5" y="-282" font-family="Helvetica,sans-Serif" font-size="10.00">include/LlamaLib.h</text>
</a>
</g>
</g>
<!-- Node2 -->
<g id="Node000002" class="node">
<title>Node2</title>
<g id="a_Node000002"><a xlink:href="LLM_8h.html" target="_top" xlink:title="Core LLM functionality interface and base classes.">
<polygon fill="white" stroke="#666666" points="425,-129 380,-129 380,-110 425,-110 425,-129"/>
<text text-anchor="middle" x="402.5" y="-117" font-family="Helvetica,sans-Serif" font-size="10.00">LLM.h</text>
</a>
</g>
</g>
<!-- Node1&#45;&gt;Node2 -->
<g id="edge1_Node000001_Node000002" class="edge">
<title>Node1&#45;&gt;Node2</title>
<g id="a_edge1_Node000001_Node000002"><a xlink:title=" ">
<path fill="none" stroke="#63b8ff" d="M355.05,-274.86C358.67,-262.64 365.52,-239.59 371.5,-220 380.19,-191.53 390.52,-158.55 396.79,-138.63"/>
<polygon fill="#63b8ff" stroke="#63b8ff" points="400.15,-139.6 399.81,-129.01 393.47,-137.5 400.15,-139.6"/>
</a>
</g>
</g>
<!-- Node15 -->
<g id="Node000015" class="node">
<title>Node15</title>
<g id="a_Node000015"><a xlink:href="LLM__client_8h.html" target="_top" xlink:title="Client interface for local and remote LLM access.">
<polygon fill="white" stroke="#666666" points="517,-184 440,-184 440,-165 517,-165 517,-184"/>
<text text-anchor="middle" x="478.5" y="-172" font-family="Helvetica,sans-Serif" font-size="10.00">LLM_client.h</text>
</a>
</g>
</g>
<!-- Node1&#45;&gt;Node15 -->
<g id="edge15_Node000001_Node000015" class="edge">
<title>Node1&#45;&gt;Node15</title>
<g id="a_edge15_Node000001_Node000015"><a xlink:title=" ">
<path fill="none" stroke="#63b8ff" d="M405.41,-274.95C427.75,-268.67 452.1,-257.79 467.5,-239 477.58,-226.7 479.86,-208.47 479.89,-194.7"/>
<polygon fill="#63b8ff" stroke="#63b8ff" points="483.38,-194.27 479.51,-184.4 476.38,-194.52 483.38,-194.27"/>
</a>
</g>
</g>
<!-- Node20 -->
<g id="Node000020" class="node">
<title>Node20</title>
<g id="a_Node000020"><a xlink:href="LLM__agent_8h.html" target="_top" xlink:title="High&#45;level conversational agent interface for LLMs.">
<polygon fill="white" stroke="#666666" points="458.5,-239 380.5,-239 380.5,-220 458.5,-220 458.5,-239"/>
<text text-anchor="middle" x="419.5" y="-227" font-family="Helvetica,sans-Serif" font-size="10.00">LLM_agent.h</text>
</a>
</g>
</g>
<!-- Node1&#45;&gt;Node20 -->
<g id="edge29_Node000001_Node000020" class="edge">
<title>Node1&#45;&gt;Node20</title>
<g id="a_edge29_Node000001_Node000020"><a xlink:title=" ">
<path fill="none" stroke="#63b8ff" d="M363.26,-274.98C373.27,-267.07 388.39,-255.11 400.43,-245.58"/>
<polygon fill="#63b8ff" stroke="#63b8ff" points="402.87,-248.12 408.54,-239.17 398.53,-242.63 402.87,-248.12"/>
</a>
</g>
</g>
<!-- Node21 -->
<g id="Node000021" class="node">
<title>Node21</title>
<g id="a_Node000021"><a xlink:href="LLM__service_8h.html" target="_top" xlink:title="LLM service implementation with server capabilities.">
<polygon fill="white" stroke="#666666" points="295.5,-184 209.5,-184 209.5,-165 295.5,-165 295.5,-184"/>
<text text-anchor="middle" x="252.5" y="-172" font-family="Helvetica,sans-Serif" font-size="10.00">LLM_service.h</text>
</a>
</g>
</g>
<!-- Node1&#45;&gt;Node21 -->
<g id="edge32_Node000001_Node000021" class="edge">
<title>Node1&#45;&gt;Node21</title>
<g id="a_edge32_Node000001_Node000021"><a xlink:title=" ">
<path fill="none" stroke="#63b8ff" d="M344.86,-274.78C334.01,-262.46 313.47,-239.3 295.5,-220 286.62,-210.47 276.51,-199.98 268.32,-191.59"/>
<polygon fill="#63b8ff" stroke="#63b8ff" points="270.66,-188.97 261.16,-184.27 265.66,-193.87 270.66,-188.97"/>
</a>
</g>
</g>
<!-- Node23 -->
<g id="Node000023" class="node">
<title>Node23</title>
<g id="a_Node000023"><a xlink:href="LLM__service__builder_8h_source.html" target="_top" xlink:title=" ">
<polygon fill="white" stroke="#666666" points="286.5,-239 162.5,-239 162.5,-220 286.5,-220 286.5,-239"/>
<text text-anchor="middle" x="224.5" y="-227" font-family="Helvetica,sans-Serif" font-size="10.00">LLM_service_builder.h</text>
</a>
</g>
</g>
<!-- Node1&#45;&gt;Node23 -->
<g id="edge37_Node000001_Node000023" class="edge">
<title>Node1&#45;&gt;Node23</title>
<g id="a_edge37_Node000001_Node000023"><a xlink:title=" ">
<path fill="none" stroke="#63b8ff" d="M331.93,-274.98C311.07,-266.34 278.53,-252.87 254.73,-243.02"/>
<polygon fill="#63b8ff" stroke="#63b8ff" points="256.02,-239.76 245.44,-239.17 253.34,-246.23 256.02,-239.76"/>
</a>
</g>
</g>
<!-- Node3 -->
<g id="Node000003" class="node">
<title>Node3</title>
<g id="a_Node000003"><a xlink:href="defs_8h.html" target="_top" xlink:title="File with basic definitions.">
<polygon fill="white" stroke="#666666" points="245,-74 198,-74 198,-55 245,-55 245,-74"/>
<text text-anchor="middle" x="221.5" y="-62" font-family="Helvetica,sans-Serif" font-size="10.00">defs.h</text>
</a>
</g>
</g>
<!-- Node2&#45;&gt;Node3 -->
<g id="edge2_Node000002_Node000003" class="edge">
<title>Node2&#45;&gt;Node3</title>
<g id="a_edge2_Node000002_Node000003"><a xlink:title=" ">
<path fill="none" stroke="#63b8ff" d="M379.94,-111.89C348.5,-102.69 291.27,-85.93 254.88,-75.27"/>
<polygon fill="#63b8ff" stroke="#63b8ff" points="255.79,-71.89 245.21,-72.44 253.82,-78.61 255.79,-71.89"/>
</a>
</g>
</g>
<!-- Node7 -->
<g id="Node000007" class="node">
<title>Node7</title>
<g id="a_Node000007"><a xlink:href="error__handling_8h_source.html" target="_top" xlink:title=" ">
<polygon fill="white" stroke="#666666" points="397.5,-74 301.5,-74 301.5,-55 397.5,-55 397.5,-74"/>
<text text-anchor="middle" x="349.5" y="-62" font-family="Helvetica,sans-Serif" font-size="10.00">error_handling.h</text>
</a>
</g>
</g>
<!-- Node2&#45;&gt;Node7 -->
<g id="edge6_Node000002_Node000007" class="edge">
<title>Node2&#45;&gt;Node7</title>
<g id="a_edge6_Node000002_Node000007"><a xlink:title=" ">
<path fill="none" stroke="#63b8ff" d="M393.75,-109.75C386.03,-102.03 374.6,-90.6 365.28,-81.28"/>
<polygon fill="#63b8ff" stroke="#63b8ff" points="367.64,-78.69 358.09,-74.09 362.69,-83.64 367.64,-78.69"/>
</a>
</g>
</g>
<!-- Node14 -->
<g id="Node000014" class="node">
<title>Node14</title>
<g id="a_Node000014"><a xlink:title=" ">
<polygon fill="#e0e0e0" stroke="#999999" points="547.5,-74 491.5,-74 491.5,-55 547.5,-55 547.5,-74"/>
<text text-anchor="middle" x="519.5" y="-62" font-family="Helvetica,sans-Serif" font-size="10.00">sstream</text>
</a>
</g>
</g>
<!-- Node2&#45;&gt;Node14 -->
<g id="edge14_Node000002_Node000014" class="edge">
<title>Node2&#45;&gt;Node14</title>
<g id="a_edge14_Node000002_Node000014"><a xlink:title=" ">
<path fill="none" stroke="#63b8ff" d="M421.3,-109.98C440.12,-101.46 469.32,-88.23 491,-78.41"/>
<polygon fill="#63b8ff" stroke="#63b8ff" points="492.7,-81.48 500.36,-74.17 489.81,-75.11 492.7,-81.48"/>
</a>
</g>
</g>
<!-- Node4 -->
<g id="Node000004" class="node">
<title>Node4</title>
<g id="a_Node000004"><a xlink:title=" ">
<polygon fill="#e0e0e0" stroke="#999999" points="147.5,-19 83.5,-19 83.5,0 147.5,0 147.5,-19"/>
<text text-anchor="middle" x="115.5" y="-7" font-family="Helvetica,sans-Serif" font-size="10.00">sys/stat.h</text>
</a>
</g>
</g>
<!-- Node3&#45;&gt;Node4 -->
<g id="edge3_Node000003_Node000004" class="edge">
<title>Node3&#45;&gt;Node4</title>
<g id="a_edge3_Node000003_Node000004"><a xlink:title=" ">
<path fill="none" stroke="#63b8ff" d="M204.47,-54.98C187.57,-46.54 161.44,-33.47 141.86,-23.68"/>
<polygon fill="#63b8ff" stroke="#63b8ff" points="143.35,-20.51 132.84,-19.17 140.22,-26.77 143.35,-20.51"/>
</a>
</g>
</g>
<!-- Node5 -->
<g id="Node000005" class="node">
<title>Node5</title>
<g id="a_Node000005"><a xlink:title=" ">
<polygon fill="#e0e0e0" stroke="#999999" points="285.5,-19 241.5,-19 241.5,0 285.5,0 285.5,-19"/>
<text text-anchor="middle" x="263.5" y="-7" font-family="Helvetica,sans-Serif" font-size="10.00">string</text>
</a>
</g>
</g>
<!-- Node3&#45;&gt;Node5 -->
<g id="edge4_Node000003_Node000005" class="edge">
<title>Node3&#45;&gt;Node5</title>
<g id="a_edge4_Node000003_Node000005"><a xlink:title=" ">
<path fill="none" stroke="#63b8ff" d="M228.44,-54.75C234.37,-47.26 243.07,-36.28 250.32,-27.13"/>
<polygon fill="#63b8ff" stroke="#63b8ff" points="253.23,-29.1 256.69,-19.09 247.74,-24.75 253.23,-29.1"/>
</a>
</g>
</g>
<!-- Node6 -->
<g id="Node000006" class="node">
<title>Node6</title>
<g id="a_Node000006"><a xlink:title=" ">
<polygon fill="#e0e0e0" stroke="#999999" points="223.5,-19 165.5,-19 165.5,0 223.5,0 223.5,-19"/>
<text text-anchor="middle" x="194.5" y="-7" font-family="Helvetica,sans-Serif" font-size="10.00">json.hpp</text>
</a>
</g>
</g>
<!-- Node3&#45;&gt;Node6 -->
<g id="edge5_Node000003_Node000006" class="edge">
<title>Node3&#45;&gt;Node6</title>
<g id="a_edge5_Node000003_Node000006"><a xlink:title=" ">
<path fill="none" stroke="#63b8ff" d="M217.04,-54.75C213.38,-47.57 208.09,-37.18 203.55,-28.27"/>
<polygon fill="#63b8ff" stroke="#63b8ff" points="206.53,-26.41 198.88,-19.09 200.3,-29.59 206.53,-26.41"/>
</a>
</g>
</g>
<!-- Node7&#45;&gt;Node5 -->
<g id="edge7_Node000007_Node000005" class="edge">
<title>Node7&#45;&gt;Node5</title>
<g id="a_edge7_Node000007_Node000005"><a xlink:title=" ">
<path fill="none" stroke="#63b8ff" d="M335.68,-54.98C322.35,-46.77 301.92,-34.18 286.19,-24.49"/>
<polygon fill="#63b8ff" stroke="#63b8ff" points="287.92,-21.44 277.57,-19.17 284.25,-27.4 287.92,-21.44"/>
</a>
</g>
</g>
<!-- Node8 -->
<g id="Node000008" class="node">
<title>Node8</title>
<g id="a_Node000008"><a xlink:title=" ">
<polygon fill="#e0e0e0" stroke="#999999" points="425.5,-19 377.5,-19 377.5,0 425.5,0 425.5,-19"/>
<text text-anchor="middle" x="401.5" y="-7" font-family="Helvetica,sans-Serif" font-size="10.00">mutex</text>
</a>
</g>
</g>
<!-- Node7&#45;&gt;Node8 -->
<g id="edge8_Node000007_Node000008" class="edge">
<title>Node7&#45;&gt;Node8</title>
<g id="a_edge8_Node000007_Node000008"><a xlink:title=" ">
<path fill="none" stroke="#63b8ff" d="M358.09,-54.75C365.66,-47.03 376.88,-35.6 386.01,-26.28"/>
<polygon fill="#63b8ff" stroke="#63b8ff" points="388.57,-28.68 393.07,-19.09 383.57,-23.78 388.57,-28.68"/>
</a>
</g>
</g>
<!-- Node9 -->
<g id="Node000009" class="node">
<title>Node9</title>
<g id="a_Node000009"><a xlink:title=" ">
<polygon fill="#e0e0e0" stroke="#999999" points="647,-19 600,-19 600,0 647,0 647,-19"/>
<text text-anchor="middle" x="623.5" y="-7" font-family="Helvetica,sans-Serif" font-size="10.00">vector</text>
</a>
</g>
</g>
<!-- Node7&#45;&gt;Node9 -->
<g id="edge9_Node000007_Node000009" class="edge">
<title>Node7&#45;&gt;Node9</title>
<g id="a_edge9_Node000007_Node000009"><a xlink:title=" ">
<path fill="none" stroke="#63b8ff" d="M397.71,-55.61C444.41,-47.75 517.42,-34.85 589.98,-18.98"/>
<polygon fill="#63b8ff" stroke="#63b8ff" points="590.74,-22.4 599.75,-16.83 589.24,-15.56 590.74,-22.4"/>
</a>
</g>
</g>
<!-- Node10 -->
<g id="Node000010" class="node">
<title>Node10</title>
<g id="a_Node000010"><a xlink:title=" ">
<polygon fill="#e0e0e0" stroke="#999999" points="503,-19 444,-19 444,0 503,0 503,-19"/>
<text text-anchor="middle" x="473.5" y="-7" font-family="Helvetica,sans-Serif" font-size="10.00">setjmp.h</text>
</a>
</g>
</g>
<!-- Node7&#45;&gt;Node10 -->
<g id="edge10_Node000007_Node000010" class="edge">
<title>Node7&#45;&gt;Node10</title>
<g id="a_edge10_Node000007_Node000010"><a xlink:title=" ">
<path fill="none" stroke="#63b8ff" d="M369.42,-54.98C389.55,-46.38 420.88,-32.99 443.91,-23.15"/>
<polygon fill="#63b8ff" stroke="#63b8ff" points="445.4,-26.32 453.21,-19.17 442.64,-19.88 445.4,-26.32"/>
</a>
</g>
</g>
<!-- Node11 -->
<g id="Node000011" class="node">
<title>Node11</title>
<g id="a_Node000011"><a xlink:title=" ">
<polygon fill="#e0e0e0" stroke="#999999" points="359,-19 304,-19 304,0 359,0 359,-19"/>
<text text-anchor="middle" x="331.5" y="-7" font-family="Helvetica,sans-Serif" font-size="10.00">signal.h</text>
</a>
</g>
</g>
<!-- Node7&#45;&gt;Node11 -->
<g id="edge11_Node000007_Node000011" class="edge">
<title>Node7&#45;&gt;Node11</title>
<g id="a_edge11_Node000007_Node000011"><a xlink:title=" ">
<path fill="none" stroke="#63b8ff" d="M346.53,-54.75C344.14,-47.72 340.71,-37.62 337.73,-28.84"/>
<polygon fill="#63b8ff" stroke="#63b8ff" points="340.95,-27.43 334.42,-19.09 334.32,-29.68 340.95,-27.43"/>
</a>
</g>
</g>
<!-- Node12 -->
<g id="Node000012" class="node">
<title>Node12</title>
<g id="a_Node000012"><a xlink:title=" ">
<polygon fill="#e0e0e0" stroke="#999999" points="65,-19 0,-19 0,0 65,0 65,-19"/>
<text text-anchor="middle" x="32.5" y="-7" font-family="Helvetica,sans-Serif" font-size="10.00">functional</text>
</a>
</g>
</g>
<!-- Node7&#45;&gt;Node12 -->
<g id="edge12_Node000007_Node000012" class="edge">
<title>Node7&#45;&gt;Node12</title>
<g id="a_edge12_Node000007_Node000012"><a xlink:title=" ">
<path fill="none" stroke="#63b8ff" d="M301.22,-56.27C248.26,-48.22 160.54,-34.49 74.92,-19.01"/>
<polygon fill="#63b8ff" stroke="#63b8ff" points="75.5,-15.56 65.04,-17.22 74.25,-22.45 75.5,-15.56"/>
</a>
</g>
</g>
<!-- Node13 -->
<g id="Node000013" class="node">
<title>Node13</title>
<g id="a_Node000013"><a xlink:title=" ">
<polygon fill="#e0e0e0" stroke="#999999" points="581.5,-19 521.5,-19 521.5,0 581.5,0 581.5,-19"/>
<text text-anchor="middle" x="551.5" y="-7" font-family="Helvetica,sans-Serif" font-size="10.00">iostream</text>
</a>
</g>
</g>
<!-- Node7&#45;&gt;Node13 -->
<g id="edge13_Node000007_Node000013" class="edge">
<title>Node7&#45;&gt;Node13</title>
<g id="a_edge13_Node000007_Node000013"><a xlink:title=" ">
<path fill="none" stroke="#63b8ff" d="M381.95,-54.98C417.27,-45.72 473.77,-30.89 511.73,-20.93"/>
<polygon fill="#63b8ff" stroke="#63b8ff" points="512.65,-24.31 521.43,-18.39 510.87,-17.54 512.65,-24.31"/>
</a>
</g>
</g>
<!-- Node15&#45;&gt;Node2 -->
<g id="edge21_Node000015_Node000002" class="edge">
<title>Node15&#45;&gt;Node2</title>
<g id="a_edge21_Node000015_Node000002"><a xlink:title=" ">
<path fill="none" stroke="#63b8ff" d="M466.29,-164.98C454.72,-156.92 437.12,-144.65 423.34,-135.03"/>
<polygon fill="#63b8ff" stroke="#63b8ff" points="425.14,-132.02 414.93,-129.17 421.13,-137.76 425.14,-132.02"/>
</a>
</g>
</g>
<!-- Node15&#45;&gt;Node9 -->
<g id="edge16_Node000015_Node000009" class="edge">
<title>Node15&#45;&gt;Node9</title>
<g id="a_edge16_Node000015_Node000009"><a xlink:title=" ">
<path fill="none" stroke="#63b8ff" d="M495.27,-164.88C509.71,-156.91 530.52,-144.04 545.5,-129 576.37,-98 601.95,-52.97 614.72,-28.3"/>
<polygon fill="#63b8ff" stroke="#63b8ff" points="618,-29.58 619.39,-19.08 611.75,-26.42 618,-29.58"/>
</a>
</g>
</g>
<!-- Node15&#45;&gt;Node13 -->
<g id="edge19_Node000015_Node000013" class="edge">
<title>Node15&#45;&gt;Node13</title>
<g id="a_edge19_Node000015_Node000013"><a xlink:title=" ">
<path fill="none" stroke="#63b8ff" d="M489.57,-164.87C508.47,-149.24 545.97,-114.13 556.5,-74 560.36,-59.27 558.63,-42.02 556.19,-29.22"/>
<polygon fill="#63b8ff" stroke="#63b8ff" points="559.58,-28.3 554,-19.29 552.74,-29.81 559.58,-28.3"/>
</a>
</g>
</g>
<!-- Node15&#45;&gt;Node14 -->
<g id="edge20_Node000015_Node000014" class="edge">
<title>Node15&#45;&gt;Node14</title>
<g id="a_edge20_Node000015_Node000014"><a xlink:title=" ">
<path fill="none" stroke="#63b8ff" d="M486.21,-165C493.44,-156.52 503.95,-142.8 509.5,-129 515.3,-114.58 517.75,-97.07 518.77,-84.09"/>
<polygon fill="#63b8ff" stroke="#63b8ff" points="522.27,-84.23 519.36,-74.04 515.28,-83.82 522.27,-84.23"/>
</a>
</g>
</g>
<!-- Node16 -->
<g id="Node000016" class="node">
<title>Node16</title>
<g id="a_Node000016"><a xlink:title=" ">
<polygon fill="#e0e0e0" stroke="#999999" points="211.5,-129 163.5,-129 163.5,-110 211.5,-110 211.5,-129"/>
<text text-anchor="middle" x="187.5" y="-117" font-family="Helvetica,sans-Serif" font-size="10.00">thread</text>
</a>
</g>
</g>
<!-- Node15&#45;&gt;Node16 -->
<g id="edge17_Node000015_Node000016" class="edge">
<title>Node15&#45;&gt;Node16</title>
<g id="a_edge17_Node000015_Node000016"><a xlink:title=" ">
<path fill="none" stroke="#63b8ff" d="M439.85,-167.84C391.15,-160.48 304.73,-146.7 221.47,-129.06"/>
<polygon fill="#63b8ff" stroke="#63b8ff" points="222.11,-125.62 211.6,-126.95 220.64,-132.46 222.11,-125.62"/>
</a>
</g>
</g>
<!-- Node17 -->
<g id="Node000017" class="node">
<title>Node17</title>
<g id="a_Node000017"><a xlink:title=" ">
<polygon fill="#e0e0e0" stroke="#999999" points="691.5,-129 641.5,-129 641.5,-110 691.5,-110 691.5,-129"/>
<text text-anchor="middle" x="666.5" y="-117" font-family="Helvetica,sans-Serif" font-size="10.00">chrono</text>
</a>
</g>
</g>
<!-- Node15&#45;&gt;Node17 -->
<g id="edge18_Node000015_Node000017" class="edge">
<title>Node15&#45;&gt;Node17</title>
<g id="a_edge18_Node000015_Node000017"><a xlink:title=" ">
<path fill="none" stroke="#63b8ff" d="M508.71,-164.98C542.24,-155.53 596.29,-140.29 631.61,-130.34"/>
<polygon fill="#63b8ff" stroke="#63b8ff" points="632.81,-133.64 641.48,-127.55 630.91,-126.9 632.81,-133.64"/>
</a>
</g>
</g>
<!-- Node18 -->
<g id="Node000018" class="node">
<title>Node18</title>
<g id="a_Node000018"><a xlink:href="completion__processor_8h_source.html" target="_top" xlink:title=" ">
<polygon fill="white" stroke="#666666" points="361.5,-129 229.5,-129 229.5,-110 361.5,-110 361.5,-129"/>
<text text-anchor="middle" x="295.5" y="-117" font-family="Helvetica,sans-Serif" font-size="10.00">completion_processor.h</text>
</a>
</g>
</g>
<!-- Node15&#45;&gt;Node18 -->
<g id="edge22_Node000015_Node000018" class="edge">
<title>Node15&#45;&gt;Node18</title>
<g id="a_edge22_Node000015_Node000018"><a xlink:title=" ">
<path fill="none" stroke="#63b8ff" d="M449.1,-164.98C418.11,-156.01 369.12,-141.82 334.83,-131.89"/>
<polygon fill="#63b8ff" stroke="#63b8ff" points="335.71,-128.5 325.13,-129.08 333.76,-135.23 335.71,-128.5"/>
</a>
</g>
</g>
<!-- Node19 -->
<g id="Node000019" class="node">
<title>Node19</title>
<g id="a_Node000019"><a xlink:title=" ">
<polygon fill="#e0e0e0" stroke="#999999" points="500,-129 443,-129 443,-110 500,-110 500,-129"/>
<text text-anchor="middle" x="471.5" y="-117" font-family="Helvetica,sans-Serif" font-size="10.00">httplib.h</text>
</a>
</g>
</g>
<!-- Node15&#45;&gt;Node19 -->
<g id="edge28_Node000015_Node000019" class="edge">
<title>Node15&#45;&gt;Node19</title>
<g id="a_edge28_Node000015_Node000019"><a xlink:title=" ">
<path fill="none" stroke="#63b8ff" d="M477.34,-164.75C476.43,-157.8 475.11,-147.85 473.96,-139.13"/>
<polygon fill="#63b8ff" stroke="#63b8ff" points="477.41,-138.54 472.63,-129.09 470.47,-139.46 477.41,-138.54"/>
</a>
</g>
</g>
<!-- Node18&#45;&gt;Node3 -->
<g id="edge26_Node000018_Node000003" class="edge">
<title>Node18&#45;&gt;Node3</title>
<g id="a_edge26_Node000018_Node000003"><a xlink:title=" ">
<path fill="none" stroke="#63b8ff" d="M283.61,-109.98C272.35,-101.92 255.21,-89.65 241.79,-80.03"/>
<polygon fill="#63b8ff" stroke="#63b8ff" points="243.77,-77.15 233.61,-74.17 239.7,-82.84 243.77,-77.15"/>
</a>
</g>
</g>
<!-- Node18&#45;&gt;Node5 -->
<g id="edge23_Node000018_Node000005" class="edge">
<title>Node18&#45;&gt;Node5</title>
<g id="a_edge23_Node000018_Node000005"><a xlink:title=" ">
<path fill="none" stroke="#63b8ff" d="M292.88,-109.66C287.68,-92.09 275.93,-52.45 268.97,-28.95"/>
<polygon fill="#63b8ff" stroke="#63b8ff" points="272.26,-27.75 266.07,-19.16 265.55,-29.74 272.26,-27.75"/>
</a>
</g>
</g>
<!-- Node18&#45;&gt;Node9 -->
<g id="edge24_Node000018_Node000009" class="edge">
<title>Node18&#45;&gt;Node9</title>
<g id="a_edge24_Node000018_Node000009"><a xlink:title=" ">
<path fill="none" stroke="#63b8ff" d="M328.67,-109.98C358.78,-101.9 404.2,-88.8 442.5,-74 460.86,-66.91 464.18,-62.2 482.5,-55 518.56,-40.82 561.13,-27.89 589.98,-19.67"/>
<polygon fill="#63b8ff" stroke="#63b8ff" points="591.28,-22.94 599.95,-16.86 589.38,-16.2 591.28,-22.94"/>
</a>
</g>
</g>
<!-- Node18&#45;&gt;Node12 -->
<g id="edge25_Node000018_Node000012" class="edge">
<title>Node18&#45;&gt;Node12</title>
<g id="a_edge25_Node000018_Node000012"><a xlink:title=" ">
<path fill="none" stroke="#63b8ff" d="M274.42,-109.84C227.95,-90.76 116.54,-45.01 62.67,-22.89"/>
<polygon fill="#63b8ff" stroke="#63b8ff" points="63.89,-19.61 53.31,-19.05 61.23,-26.08 63.89,-19.61"/>
</a>
</g>
</g>
<!-- Node18&#45;&gt;Node13 -->
<g id="edge27_Node000018_Node000013" class="edge">
<title>Node18&#45;&gt;Node13</title>
<g id="a_edge27_Node000018_Node000013"><a xlink:title=" ">
<path fill="none" stroke="#63b8ff" d="M317.71,-109.86C340.18,-101.05 375.89,-86.9 406.5,-74 425.76,-65.89 430.37,-63.4 449.5,-55 474.13,-44.19 502.14,-31.97 522.56,-23.08"/>
<polygon fill="#63b8ff" stroke="#63b8ff" points="524.16,-26.2 531.93,-19 521.37,-19.78 524.16,-26.2"/>
</a>
</g>
</g>
<!-- Node20&#45;&gt;Node2 -->
<g id="edge30_Node000020_Node000002" class="edge">
<title>Node20&#45;&gt;Node2</title>
<g id="a_edge30_Node000020_Node000002"><a xlink:title=" ">
<path fill="none" stroke="#63b8ff" d="M418.11,-219.66C415.36,-202.17 409.16,-162.8 405.46,-139.27"/>
<polygon fill="#63b8ff" stroke="#63b8ff" points="408.88,-138.49 403.86,-129.16 401.96,-139.58 408.88,-138.49"/>
</a>
</g>
</g>
<!-- Node20&#45;&gt;Node15 -->
<g id="edge31_Node000020_Node000015" class="edge">
<title>Node20&#45;&gt;Node15</title>
<g id="a_edge31_Node000020_Node000015"><a xlink:title=" ">
<path fill="none" stroke="#63b8ff" d="M428.98,-219.98C437.7,-212.15 450.84,-200.34 461.4,-190.86"/>
<polygon fill="#63b8ff" stroke="#63b8ff" points="463.75,-193.46 468.85,-184.17 459.07,-188.25 463.75,-193.46"/>
</a>
</g>
</g>
<!-- Node21&#45;&gt;Node2 -->
<g id="edge35_Node000021_Node000002" class="edge">
<title>Node21&#45;&gt;Node2</title>
<g id="a_edge35_Node000021_Node000002"><a xlink:title=" ">
<path fill="none" stroke="#63b8ff" d="M276.6,-164.98C301.97,-156.02 342.06,-141.86 370.17,-131.92"/>
<polygon fill="#63b8ff" stroke="#63b8ff" points="371.67,-135.11 379.93,-128.47 369.34,-128.51 371.67,-135.11"/>
</a>
</g>
</g>
<!-- Node21&#45;&gt;Node16 -->
<g id="edge33_Node000021_Node000016" class="edge">
<title>Node21&#45;&gt;Node16</title>
<g id="a_edge33_Node000021_Node000016"><a xlink:title=" ">
<path fill="none" stroke="#63b8ff" d="M242.06,-164.98C232.35,-157.07 217.68,-145.11 206,-135.58"/>
<polygon fill="#63b8ff" stroke="#63b8ff" points="208.1,-132.78 198.13,-129.17 203.67,-138.2 208.1,-132.78"/>
</a>
</g>
</g>
<!-- Node21&#45;&gt;Node18 -->
<g id="edge36_Node000021_Node000018" class="edge">
<title>Node21&#45;&gt;Node18</title>
<g id="a_edge36_Node000021_Node000018"><a xlink:title=" ">
<path fill="none" stroke="#63b8ff" d="M259.6,-164.75C265.67,-157.26 274.59,-146.28 282.01,-137.13"/>
<polygon fill="#63b8ff" stroke="#63b8ff" points="284.95,-139.06 288.53,-129.09 279.51,-134.65 284.95,-139.06"/>
</a>
</g>
</g>
<!-- Node22 -->
<g id="Node000022" class="node">
<title>Node22</title>
<g id="a_Node000022"><a xlink:title=" ">
<polygon fill="#e0e0e0" stroke="#999999" points="145,-129 38,-129 38,-110 145,-110 145,-129"/>
<text text-anchor="middle" x="91.5" y="-117" font-family="Helvetica,sans-Serif" font-size="10.00">condition_variable</text>
</a>
</g>
</g>
<!-- Node21&#45;&gt;Node22 -->
<g id="edge34_Node000021_Node000022" class="edge">
<title>Node21&#45;&gt;Node22</title>
<g id="a_edge34_Node000021_Node000022"><a xlink:title=" ">
<path fill="none" stroke="#63b8ff" d="M226.63,-164.98C199.72,-156.13 157.38,-142.19 127.27,-132.28"/>
<polygon fill="#63b8ff" stroke="#63b8ff" points="128.16,-128.88 117.57,-129.08 125.97,-135.53 128.16,-128.88"/>
</a>
</g>
</g>
<!-- Node23&#45;&gt;Node21 -->
<g id="edge38_Node000023_Node000021" class="edge">
<title>Node23&#45;&gt;Node21</title>
<g id="a_edge38_Node000023_Node000021"><a xlink:title=" ">
<path fill="none" stroke="#63b8ff" d="M229.12,-219.75C232.96,-212.49 238.52,-201.95 243.26,-192.98"/>
<polygon fill="#63b8ff" stroke="#63b8ff" points="246.39,-194.57 247.96,-184.09 240.2,-191.3 246.39,-194.57"/>
</a>
</g>
</g>
</g>
</svg>
