<?xml version="1.0" encoding="UTF-8" standalone="no"?>
<!DOCTYPE svg PUBLIC "-//W3C//DTD SVG 1.1//EN"
 "http://www.w3.org/Graphics/SVG/1.1/DTD/svg11.dtd">
<!-- Generated by graphviz version 2.43.0 (0)
 -->
<!-- Title: include/LlamaLib.h Pages: 1 -->
<svg width="700pt" height="302pt"
 viewBox="0.00 0.00 699.50 302.00" xmlns="http://www.w3.org/2000/svg" xmlns:xlink="http://www.w3.org/1999/xlink">
<g id="graph0" class="graph" transform="scale(1 1) rotate(0) translate(4 298)">
<title>include/LlamaLib.h</title>
<!-- Node1 -->
<g id="Node000001" class="node">
<title>Node1</title>
<g id="a_Node000001"><a xlink:title="Main include file for the LLama library.">
<polygon fill="#999999" stroke="#666666" points="442.5,-294 334.5,-294 334.5,-275 442.5,-275 442.5,-294"/>
<text text-anchor="middle" x="388.5" y="-282" font-family="Helvetica,sans-Serif" font-size="10.00">include/LlamaLib.h</text>
</a>
</g>
</g>
<!-- Node2 -->
<g id="Node000002" class="node">
<title>Node2</title>
<g id="a_Node000002"><a xlink:href="LLM_8h.html" target="_top" xlink:title="Core LLM functionality interface and base classes.">
<polygon fill="white" stroke="#666666" points="425,-129 380,-129 380,-110 425,-110 425,-129"/>
<text text-anchor="middle" x="402.5" y="-117" font-family="Helvetica,sans-Serif" font-size="10.00">LLM.h</text>
</a>
</g>
</g>
<!-- Node1&#45;&gt;Node2 -->
<g id="edge1_Node000001_Node000002" class="edge">
<title>Node1&#45;&gt;Node2</title>
<g id="a_edge1_Node000001_Node000002"><a xlink:title=" ">
<path fill="none" stroke="#63b8ff" d="M384.9,-274.82C381.44,-265.99 376.47,-251.81 374.5,-239 368.93,-202.76 383.76,-161.23 393.9,-138.22"/>
<polygon fill="#63b8ff" stroke="#63b8ff" points="397.13,-139.58 398.15,-129.03 390.78,-136.64 397.13,-139.58"/>
</a>
</g>
</g>
<!-- Node15 -->
<g id="Node000015" class="node">
<title>Node15</title>
<g id="a_Node000015"><a xlink:href="LLM__client_8h.html" target="_top" xlink:title="Client interface for local and remote LLM access.">
<polygon fill="white" stroke="#666666" points="524,-184 447,-184 447,-165 524,-165 524,-184"/>
<text text-anchor="middle" x="485.5" y="-172" font-family="Helvetica,sans-Serif" font-size="10.00">LLM_client.h</text>
</a>
</g>
</g>
<!-- Node1&#45;&gt;Node15 -->
<g id="edge15_Node000001_Node000015" class="edge">
<title>Node1&#45;&gt;Node15</title>
<g id="a_edge15_Node000001_Node000015"><a xlink:title=" ">
<path fill="none" stroke="#63b8ff" d="M416.84,-274.87C434.81,-267.96 457.12,-256.5 470.5,-239 480.28,-226.2 483.83,-208.03 485.04,-194.41"/>
<polygon fill="#63b8ff" stroke="#63b8ff" points="488.55,-194.42 485.6,-184.24 481.56,-194.04 488.55,-194.42"/>
</a>
</g>
</g>
<!-- Node20 -->
<g id="Node000020" class="node">
<title>Node20</title>
<g id="a_Node000020"><a xlink:href="LLM__agent_8h.html" target="_top" xlink:title="High&#45;level conversational agent interface for LLMs.">
<polygon fill="white" stroke="#666666" points="461.5,-239 383.5,-239 383.5,-220 461.5,-220 461.5,-239"/>
<text text-anchor="middle" x="422.5" y="-227" font-family="Helvetica,sans-Serif" font-size="10.00">LLM_agent.h</text>
</a>
</g>
</g>
<!-- Node1&#45;&gt;Node20 -->
<g id="edge29_Node000001_Node000020" class="edge">
<title>Node1&#45;&gt;Node20</title>
<g id="a_edge29_Node000001_Node000020"><a xlink:title=" ">
<path fill="none" stroke="#63b8ff" d="M394.11,-274.75C398.82,-267.42 405.67,-256.73 411.47,-247.7"/>
<polygon fill="#63b8ff" stroke="#63b8ff" points="414.54,-249.4 416.99,-239.09 408.64,-245.62 414.54,-249.4"/>
</a>
</g>
</g>
<!-- Node21 -->
<g id="Node000021" class="node">
<title>Node21</title>
<g id="a_Node000021"><a xlink:href="LLM__service_8h.html" target="_top" xlink:title="LLM service implementation with server capabilities.">
<polygon fill="white" stroke="#666666" points="327.5,-184 241.5,-184 241.5,-165 327.5,-165 327.5,-184"/>
<text text-anchor="middle" x="284.5" y="-172" font-family="Helvetica,sans-Serif" font-size="10.00">LLM_service.h</text>
</a>
</g>
</g>
<!-- Node1&#45;&gt;Node21 -->
<g id="edge32_Node000001_Node000021" class="edge">
<title>Node1&#45;&gt;Node21</title>
<g id="a_edge32_Node000001_Node000021"><a xlink:title=" ">
<path fill="none" stroke="#63b8ff" d="M378.92,-274.85C369.27,-266.04 354.04,-251.88 341.5,-239 326.41,-223.5 309.99,-205.03 298.67,-192.01"/>
<polygon fill="#63b8ff" stroke="#63b8ff" points="301.22,-189.61 292.03,-184.33 295.92,-194.18 301.22,-189.61"/>
</a>
</g>
</g>
<!-- Node3 -->
<g id="Node000003" class="node">
<title>Node3</title>
<g id="a_Node000003"><a xlink:href="defs_8h.html" target="_top" xlink:title="File with basic definitions.">
<polygon fill="white" stroke="#666666" points="245,-74 198,-74 198,-55 245,-55 245,-74"/>
<text text-anchor="middle" x="221.5" y="-62" font-family="Helvetica,sans-Serif" font-size="10.00">defs.h</text>
</a>
</g>
</g>
<!-- Node2&#45;&gt;Node3 -->
<g id="edge2_Node000002_Node000003" class="edge">
<title>Node2&#45;&gt;Node3</title>
<g id="a_edge2_Node000002_Node000003"><a xlink:title=" ">
<path fill="none" stroke="#63b8ff" d="M379.94,-111.89C348.5,-102.69 291.27,-85.93 254.88,-75.27"/>
<polygon fill="#63b8ff" stroke="#63b8ff" points="255.79,-71.89 245.21,-72.44 253.82,-78.61 255.79,-71.89"/>
</a>
</g>
</g>
<!-- Node7 -->
<g id="Node000007" class="node">
<title>Node7</title>
<g id="a_Node000007"><a xlink:href="error__handling_8h_source.html" target="_top" xlink:title=" ">
<polygon fill="white" stroke="#666666" points="397.5,-74 301.5,-74 301.5,-55 397.5,-55 397.5,-74"/>
<text text-anchor="middle" x="349.5" y="-62" font-family="Helvetica,sans-Serif" font-size="10.00">error_handling.h</text>
</a>
</g>
</g>
<!-- Node2&#45;&gt;Node7 -->
<g id="edge6_Node000002_Node000007" class="edge">
<title>Node2&#45;&gt;Node7</title>
<g id="a_edge6_Node000002_Node000007"><a xlink:title=" ">
<path fill="none" stroke="#63b8ff" d="M393.75,-109.75C386.03,-102.03 374.6,-90.6 365.28,-81.28"/>
<polygon fill="#63b8ff" stroke="#63b8ff" points="367.64,-78.69 358.09,-74.09 362.69,-83.64 367.64,-78.69"/>
</a>
</g>
</g>
<!-- Node14 -->
<g id="Node000014" class="node">
<title>Node14</title>
<g id="a_Node000014"><a xlink:title=" ">
<polygon fill="#e0e0e0" stroke="#999999" points="547.5,-74 491.5,-74 491.5,-55 547.5,-55 547.5,-74"/>
<text text-anchor="middle" x="519.5" y="-62" font-family="Helvetica,sans-Serif" font-size="10.00">sstream</text>
</a>
</g>
</g>
<!-- Node2&#45;&gt;Node14 -->
<g id="edge14_Node000002_Node000014" class="edge">
<title>Node2&#45;&gt;Node14</title>
<g id="a_edge14_Node000002_Node000014"><a xlink:title=" ">
<path fill="none" stroke="#63b8ff" d="M421.3,-109.98C440.12,-101.46 469.32,-88.23 491,-78.41"/>
<polygon fill="#63b8ff" stroke="#63b8ff" points="492.7,-81.48 500.36,-74.17 489.81,-75.11 492.7,-81.48"/>
</a>
</g>
</g>
<!-- Node4 -->
<g id="Node000004" class="node">
<title>Node4</title>
<g id="a_Node000004"><a xlink:title=" ">
<polygon fill="#e0e0e0" stroke="#999999" points="147.5,-19 83.5,-19 83.5,0 147.5,0 147.5,-19"/>
<text text-anchor="middle" x="115.5" y="-7" font-family="Helvetica,sans-Serif" font-size="10.00">sys/stat.h</text>
</a>
</g>
</g>
<!-- Node3&#45;&gt;Node4 -->
<g id="edge3_Node000003_Node000004" class="edge">
<title>Node3&#45;&gt;Node4</title>
<g id="a_edge3_Node000003_Node000004"><a xlink:title=" ">
<path fill="none" stroke="#63b8ff" d="M204.47,-54.98C187.57,-46.54 161.44,-33.47 141.86,-23.68"/>
<polygon fill="#63b8ff" stroke="#63b8ff" points="143.35,-20.51 132.84,-19.17 140.22,-26.77 143.35,-20.51"/>
</a>
</g>
</g>
<!-- Node5 -->
<g id="Node000005" class="node">
<title>Node5</title>
<g id="a_Node000005"><a xlink:title=" ">
<polygon fill="#e0e0e0" stroke="#999999" points="285.5,-19 241.5,-19 241.5,0 285.5,0 285.5,-19"/>
<text text-anchor="middle" x="263.5" y="-7" font-family="Helvetica,sans-Serif" font-size="10.00">string</text>
</a>
</g>
</g>
<!-- Node3&#45;&gt;Node5 -->
<g id="edge4_Node000003_Node000005" class="edge">
<title>Node3&#45;&gt;Node5</title>
<g id="a_edge4_Node000003_Node000005"><a xlink:title=" ">
<path fill="none" stroke="#63b8ff" d="M228.44,-54.75C234.37,-47.26 243.07,-36.28 250.32,-27.13"/>
<polygon fill="#63b8ff" stroke="#63b8ff" points="253.23,-29.1 256.69,-19.09 247.74,-24.75 253.23,-29.1"/>
</a>
</g>
</g>
<!-- Node6 -->
<g id="Node000006" class="node">
<title>Node6</title>
<g id="a_Node000006"><a xlink:title=" ">
<polygon fill="#e0e0e0" stroke="#999999" points="223.5,-19 165.5,-19 165.5,0 223.5,0 223.5,-19"/>
<text text-anchor="middle" x="194.5" y="-7" font-family="Helvetica,sans-Serif" font-size="10.00">json.hpp</text>
</a>
</g>
</g>
<!-- Node3&#45;&gt;Node6 -->
<g id="edge5_Node000003_Node000006" class="edge">
<title>Node3&#45;&gt;Node6</title>
<g id="a_edge5_Node000003_Node000006"><a xlink:title=" ">
<path fill="none" stroke="#63b8ff" d="M217.04,-54.75C213.38,-47.57 208.09,-37.18 203.55,-28.27"/>
<polygon fill="#63b8ff" stroke="#63b8ff" points="206.53,-26.41 198.88,-19.09 200.3,-29.59 206.53,-26.41"/>
</a>
</g>
</g>
<!-- Node7&#45;&gt;Node5 -->
<g id="edge7_Node000007_Node000005" class="edge">
<title>Node7&#45;&gt;Node5</title>
<g id="a_edge7_Node000007_Node000005"><a xlink:title=" ">
<path fill="none" stroke="#63b8ff" d="M335.68,-54.98C322.35,-46.77 301.92,-34.18 286.19,-24.49"/>
<polygon fill="#63b8ff" stroke="#63b8ff" points="287.92,-21.44 277.57,-19.17 284.25,-27.4 287.92,-21.44"/>
</a>
</g>
</g>
<!-- Node8 -->
<g id="Node000008" class="node">
<title>Node8</title>
<g id="a_Node000008"><a xlink:title=" ">
<polygon fill="#e0e0e0" stroke="#999999" points="425.5,-19 377.5,-19 377.5,0 425.5,0 425.5,-19"/>
<text text-anchor="middle" x="401.5" y="-7" font-family="Helvetica,sans-Serif" font-size="10.00">mutex</text>
</a>
</g>
</g>
<!-- Node7&#45;&gt;Node8 -->
<g id="edge8_Node000007_Node000008" class="edge">
<title>Node7&#45;&gt;Node8</title>
<g id="a_edge8_Node000007_Node000008"><a xlink:title=" ">
<path fill="none" stroke="#63b8ff" d="M358.09,-54.75C365.66,-47.03 376.88,-35.6 386.01,-26.28"/>
<polygon fill="#63b8ff" stroke="#63b8ff" points="388.57,-28.68 393.07,-19.09 383.57,-23.78 388.57,-28.68"/>
</a>
</g>
</g>
<!-- Node9 -->
<g id="Node000009" class="node">
<title>Node9</title>
<g id="a_Node000009"><a xlink:title=" ">
<polygon fill="#e0e0e0" stroke="#999999" points="647,-19 600,-19 600,0 647,0 647,-19"/>
<text text-anchor="middle" x="623.5" y="-7" font-family="Helvetica,sans-Serif" font-size="10.00">vector</text>
</a>
</g>
</g>
<!-- Node7&#45;&gt;Node9 -->
<g id="edge9_Node000007_Node000009" class="edge">
<title>Node7&#45;&gt;Node9</title>
<g id="a_edge9_Node000007_Node000009"><a xlink:title=" ">
<path fill="none" stroke="#63b8ff" d="M397.71,-55.61C444.41,-47.75 517.42,-34.85 589.98,-18.98"/>
<polygon fill="#63b8ff" stroke="#63b8ff" points="590.74,-22.4 599.75,-16.83 589.24,-15.56 590.74,-22.4"/>
</a>
</g>
</g>
<!-- Node10 -->
<g id="Node000010" class="node">
<title>Node10</title>
<g id="a_Node000010"><a xlink:title=" ">
<polygon fill="#e0e0e0" stroke="#999999" points="503,-19 444,-19 444,0 503,0 503,-19"/>
<text text-anchor="middle" x="473.5" y="-7" font-family="Helvetica,sans-Serif" font-size="10.00">setjmp.h</text>
</a>
</g>
</g>
<!-- Node7&#45;&gt;Node10 -->
<g id="edge10_Node000007_Node000010" class="edge">
<title>Node7&#45;&gt;Node10</title>
<g id="a_edge10_Node000007_Node000010"><a xlink:title=" ">
<path fill="none" stroke="#63b8ff" d="M369.42,-54.98C389.55,-46.38 420.88,-32.99 443.91,-23.15"/>
<polygon fill="#63b8ff" stroke="#63b8ff" points="445.4,-26.32 453.21,-19.17 442.64,-19.88 445.4,-26.32"/>
</a>
</g>
</g>
<!-- Node11 -->
<g id="Node000011" class="node">
<title>Node11</title>
<g id="a_Node000011"><a xlink:title=" ">
<polygon fill="#e0e0e0" stroke="#999999" points="359,-19 304,-19 304,0 359,0 359,-19"/>
<text text-anchor="middle" x="331.5" y="-7" font-family="Helvetica,sans-Serif" font-size="10.00">signal.h</text>
</a>
</g>
</g>
<!-- Node7&#45;&gt;Node11 -->
<g id="edge11_Node000007_Node000011" class="edge">
<title>Node7&#45;&gt;Node11</title>
<g id="a_edge11_Node000007_Node000011"><a xlink:title=" ">
<path fill="none" stroke="#63b8ff" d="M346.53,-54.75C344.14,-47.72 340.71,-37.62 337.73,-28.84"/>
<polygon fill="#63b8ff" stroke="#63b8ff" points="340.95,-27.43 334.42,-19.09 334.32,-29.68 340.95,-27.43"/>
</a>
</g>
</g>
<!-- Node12 -->
<g id="Node000012" class="node">
<title>Node12</title>
<g id="a_Node000012"><a xlink:title=" ">
<polygon fill="#e0e0e0" stroke="#999999" points="65,-19 0,-19 0,0 65,0 65,-19"/>
<text text-anchor="middle" x="32.5" y="-7" font-family="Helvetica,sans-Serif" font-size="10.00">functional</text>
</a>
</g>
</g>
<!-- Node7&#45;&gt;Node12 -->
<g id="edge12_Node000007_Node000012" class="edge">
<title>Node7&#45;&gt;Node12</title>
<g id="a_edge12_Node000007_Node000012"><a xlink:title=" ">
<path fill="none" stroke="#63b8ff" d="M301.22,-56.27C248.26,-48.22 160.54,-34.49 74.92,-19.01"/>
<polygon fill="#63b8ff" stroke="#63b8ff" points="75.5,-15.56 65.04,-17.22 74.25,-22.45 75.5,-15.56"/>
</a>
</g>
</g>
<!-- Node13 -->
<g id="Node000013" class="node">
<title>Node13</title>
<g id="a_Node000013"><a xlink:title=" ">
<polygon fill="#e0e0e0" stroke="#999999" points="581.5,-19 521.5,-19 521.5,0 581.5,0 581.5,-19"/>
<text text-anchor="middle" x="551.5" y="-7" font-family="Helvetica,sans-Serif" font-size="10.00">iostream</text>
</a>
</g>
</g>
<!-- Node7&#45;&gt;Node13 -->
<g id="edge13_Node000007_Node000013" class="edge">
<title>Node7&#45;&gt;Node13</title>
<g id="a_edge13_Node000007_Node000013"><a xlink:title=" ">
<path fill="none" stroke="#63b8ff" d="M381.95,-54.98C417.27,-45.72 473.77,-30.89 511.73,-20.93"/>
<polygon fill="#63b8ff" stroke="#63b8ff" points="512.65,-24.31 521.43,-18.39 510.87,-17.54 512.65,-24.31"/>
</a>
</g>
</g>
<!-- Node15&#45;&gt;Node2 -->
<g id="edge21_Node000015_Node000002" class="edge">
<title>Node15&#45;&gt;Node2</title>
<g id="a_edge21_Node000015_Node000002"><a xlink:title=" ">
<path fill="none" stroke="#63b8ff" d="M472.16,-164.98C459.41,-156.84 439.95,-144.41 424.83,-134.76"/>
<polygon fill="#63b8ff" stroke="#63b8ff" points="426.39,-131.6 416.08,-129.17 422.62,-137.5 426.39,-131.6"/>
</a>
</g>
</g>
<!-- Node15&#45;&gt;Node9 -->
<g id="edge16_Node000015_Node000009" class="edge">
<title>Node15&#45;&gt;Node9</title>
<g id="a_edge16_Node000015_Node000009"><a xlink:title=" ">
<path fill="none" stroke="#63b8ff" d="M500.5,-164.98C513.87,-156.9 533.45,-143.8 547.5,-129 577.38,-97.51 602.39,-52.67 614.89,-28.17"/>
<polygon fill="#63b8ff" stroke="#63b8ff" points="618.13,-29.52 619.47,-19.01 611.87,-26.39 618.13,-29.52"/>
</a>
</g>
</g>
<!-- Node15&#45;&gt;Node13 -->
<g id="edge19_Node000015_Node000013" class="edge">
<title>Node15&#45;&gt;Node13</title>
<g id="a_edge19_Node000015_Node000013"><a xlink:title=" ">
<path fill="none" stroke="#63b8ff" d="M495.18,-164.85C512.11,-148.92 546.27,-113 556.5,-74 560.36,-59.27 558.63,-42.02 556.19,-29.22"/>
<polygon fill="#63b8ff" stroke="#63b8ff" points="559.58,-28.3 554,-19.29 552.74,-29.81 559.58,-28.3"/>
</a>
</g>
</g>
<!-- Node15&#45;&gt;Node14 -->
<g id="edge20_Node000015_Node000014" class="edge">
<title>Node15&#45;&gt;Node14</title>
<g id="a_edge20_Node000015_Node000014"><a xlink:title=" ">
<path fill="none" stroke="#63b8ff" d="M491.41,-164.71C496.96,-156.01 505.07,-142.14 509.5,-129 514.41,-114.44 516.93,-97.18 518.21,-84.33"/>
<polygon fill="#63b8ff" stroke="#63b8ff" points="521.7,-84.61 519.05,-74.35 514.73,-84.02 521.7,-84.61"/>
</a>
</g>
</g>
<!-- Node16 -->
<g id="Node000016" class="node">
<title>Node16</title>
<g id="a_Node000016"><a xlink:title=" ">
<polygon fill="#e0e0e0" stroke="#999999" points="211.5,-129 163.5,-129 163.5,-110 211.5,-110 211.5,-129"/>
<text text-anchor="middle" x="187.5" y="-117" font-family="Helvetica,sans-Serif" font-size="10.00">thread</text>
</a>
</g>
</g>
<!-- Node15&#45;&gt;Node16 -->
<g id="edge17_Node000015_Node000016" class="edge">
<title>Node15&#45;&gt;Node16</title>
<g id="a_edge17_Node000015_Node000016"><a xlink:title=" ">
<path fill="none" stroke="#63b8ff" d="M446.68,-168.05C396.79,-160.8 307.31,-147.03 221.5,-129.06"/>
<polygon fill="#63b8ff" stroke="#63b8ff" points="222.1,-125.61 211.59,-126.96 220.65,-132.46 222.1,-125.61"/>
</a>
</g>
</g>
<!-- Node17 -->
<g id="Node000017" class="node">
<title>Node17</title>
<g id="a_Node000017"><a xlink:title=" ">
<polygon fill="#e0e0e0" stroke="#999999" points="691.5,-129 641.5,-129 641.5,-110 691.5,-110 691.5,-129"/>
<text text-anchor="middle" x="666.5" y="-117" font-family="Helvetica,sans-Serif" font-size="10.00">chrono</text>
</a>
</g>
</g>
<!-- Node15&#45;&gt;Node17 -->
<g id="edge18_Node000015_Node000017" class="edge">
<title>Node15&#45;&gt;Node17</title>
<g id="a_edge18_Node000015_Node000017"><a xlink:title=" ">
<path fill="none" stroke="#63b8ff" d="M514.58,-164.98C546.37,-155.68 597.3,-140.76 631.31,-130.8"/>
<polygon fill="#63b8ff" stroke="#63b8ff" points="632.67,-134.05 641.29,-127.88 630.71,-127.33 632.67,-134.05"/>
</a>
</g>
</g>
<!-- Node18 -->
<g id="Node000018" class="node">
<title>Node18</title>
<g id="a_Node000018"><a xlink:href="completion__processor_8h_source.html" target="_top" xlink:title=" ">
<polygon fill="white" stroke="#666666" points="361.5,-129 229.5,-129 229.5,-110 361.5,-110 361.5,-129"/>
<text text-anchor="middle" x="295.5" y="-117" font-family="Helvetica,sans-Serif" font-size="10.00">completion_processor.h</text>
</a>
</g>
</g>
<!-- Node15&#45;&gt;Node18 -->
<g id="edge22_Node000015_Node000018" class="edge">
<title>Node15&#45;&gt;Node18</title>
<g id="a_edge22_Node000015_Node000018"><a xlink:title=" ">
<path fill="none" stroke="#63b8ff" d="M454.97,-164.98C422.8,-156.01 371.94,-141.82 336.33,-131.89"/>
<polygon fill="#63b8ff" stroke="#63b8ff" points="336.84,-128.4 326.27,-129.08 334.96,-135.14 336.84,-128.4"/>
</a>
</g>
</g>
<!-- Node19 -->
<g id="Node000019" class="node">
<title>Node19</title>
<g id="a_Node000019"><a xlink:title=" ">
<polygon fill="#e0e0e0" stroke="#999999" points="500,-129 443,-129 443,-110 500,-110 500,-129"/>
<text text-anchor="middle" x="471.5" y="-117" font-family="Helvetica,sans-Serif" font-size="10.00">httplib.h</text>
</a>
</g>
</g>
<!-- Node15&#45;&gt;Node19 -->
<g id="edge28_Node000015_Node000019" class="edge">
<title>Node15&#45;&gt;Node19</title>
<g id="a_edge28_Node000015_Node000019"><a xlink:title=" ">
<path fill="none" stroke="#63b8ff" d="M483.19,-164.75C481.33,-157.72 478.66,-147.62 476.35,-138.84"/>
<polygon fill="#63b8ff" stroke="#63b8ff" points="479.71,-137.86 473.77,-129.09 472.94,-139.65 479.71,-137.86"/>
</a>
</g>
</g>
<!-- Node18&#45;&gt;Node3 -->
<g id="edge26_Node000018_Node000003" class="edge">
<title>Node18&#45;&gt;Node3</title>
<g id="a_edge26_Node000018_Node000003"><a xlink:title=" ">
<path fill="none" stroke="#63b8ff" d="M283.61,-109.98C272.35,-101.92 255.21,-89.65 241.79,-80.03"/>
<polygon fill="#63b8ff" stroke="#63b8ff" points="243.77,-77.15 233.61,-74.17 239.7,-82.84 243.77,-77.15"/>
</a>
</g>
</g>
<!-- Node18&#45;&gt;Node5 -->
<g id="edge23_Node000018_Node000005" class="edge">
<title>Node18&#45;&gt;Node5</title>
<g id="a_edge23_Node000018_Node000005"><a xlink:title=" ">
<path fill="none" stroke="#63b8ff" d="M292.88,-109.66C287.68,-92.09 275.93,-52.45 268.97,-28.95"/>
<polygon fill="#63b8ff" stroke="#63b8ff" points="272.26,-27.75 266.07,-19.16 265.55,-29.74 272.26,-27.75"/>
</a>
</g>
</g>
<!-- Node18&#45;&gt;Node9 -->
<g id="edge24_Node000018_Node000009" class="edge">
<title>Node18&#45;&gt;Node9</title>
<g id="a_edge24_Node000018_Node000009"><a xlink:title=" ">
<path fill="none" stroke="#63b8ff" d="M328.12,-109.95C358,-101.79 403.26,-88.61 441.5,-74 460.26,-66.83 463.77,-62.26 482.5,-55 518.63,-40.99 561.18,-28.03 590.01,-19.75"/>
<polygon fill="#63b8ff" stroke="#63b8ff" points="591.32,-23.02 599.98,-16.92 589.4,-16.29 591.32,-23.02"/>
</a>
</g>
</g>
<!-- Node18&#45;&gt;Node12 -->
<g id="edge25_Node000018_Node000012" class="edge">
<title>Node18&#45;&gt;Node12</title>
<g id="a_edge25_Node000018_Node000012"><a xlink:title=" ">
<path fill="none" stroke="#63b8ff" d="M274.42,-109.84C227.95,-90.76 116.54,-45.01 62.67,-22.89"/>
<polygon fill="#63b8ff" stroke="#63b8ff" points="63.89,-19.61 53.31,-19.05 61.23,-26.08 63.89,-19.61"/>
</a>
</g>
</g>
<!-- Node18&#45;&gt;Node13 -->
<g id="edge27_Node000018_Node000013" class="edge">
<title>Node18&#45;&gt;Node13</title>
<g id="a_edge27_Node000018_Node000013"><a xlink:title=" ">
<path fill="none" stroke="#63b8ff" d="M317.71,-109.86C340.18,-101.05 375.89,-86.9 406.5,-74 425.76,-65.89 430.37,-63.4 449.5,-55 474.13,-44.19 502.14,-31.97 522.56,-23.08"/>
<polygon fill="#63b8ff" stroke="#63b8ff" points="524.16,-26.2 531.93,-19 521.37,-19.78 524.16,-26.2"/>
</a>
</g>
</g>
<!-- Node20&#45;&gt;Node2 -->
<g id="edge30_Node000020_Node000002" class="edge">
<title>Node20&#45;&gt;Node2</title>
<g id="a_edge30_Node000020_Node000002"><a xlink:title=" ">
<path fill="none" stroke="#63b8ff" d="M420.86,-219.66C417.62,-202.17 410.33,-162.8 405.98,-139.27"/>
<polygon fill="#63b8ff" stroke="#63b8ff" points="409.37,-138.35 404.1,-129.16 402.48,-139.63 409.37,-138.35"/>
</a>
</g>
</g>
<!-- Node20&#45;&gt;Node15 -->
<g id="edge31_Node000020_Node000015" class="edge">
<title>Node20&#45;&gt;Node15</title>
<g id="a_edge31_Node000020_Node000015"><a xlink:title=" ">
<path fill="none" stroke="#63b8ff" d="M432.62,-219.98C441.94,-212.15 455.97,-200.34 467.24,-190.86"/>
<polygon fill="#63b8ff" stroke="#63b8ff" points="469.79,-193.29 475.19,-184.17 465.29,-187.93 469.79,-193.29"/>
</a>
</g>
</g>
<!-- Node21&#45;&gt;Node2 -->
<g id="edge35_Node000021_Node000002" class="edge">
<title>Node21&#45;&gt;Node2</title>
<g id="a_edge35_Node000021_Node000002"><a xlink:title=" ">
<path fill="none" stroke="#63b8ff" d="M303.46,-164.98C322.53,-156.42 352.16,-143.11 374.05,-133.28"/>
<polygon fill="#63b8ff" stroke="#63b8ff" points="375.51,-136.46 383.2,-129.17 372.64,-130.07 375.51,-136.46"/>
</a>
</g>
</g>
<!-- Node21&#45;&gt;Node16 -->
<g id="edge33_Node000021_Node000016" class="edge">
<title>Node21&#45;&gt;Node16</title>
<g id="a_edge33_Node000021_Node000016"><a xlink:title=" ">
<path fill="none" stroke="#63b8ff" d="M268.92,-164.98C253.73,-156.69 230.4,-143.94 212.6,-134.22"/>
<polygon fill="#63b8ff" stroke="#63b8ff" points="213.82,-130.89 203.37,-129.17 210.47,-137.04 213.82,-130.89"/>
</a>
</g>
</g>
<!-- Node21&#45;&gt;Node18 -->
<g id="edge36_Node000021_Node000018" class="edge">
<title>Node21&#45;&gt;Node18</title>
<g id="a_edge36_Node000021_Node000018"><a xlink:title=" ">
<path fill="none" stroke="#63b8ff" d="M286.32,-164.75C287.76,-157.8 289.82,-147.85 291.63,-139.13"/>
<polygon fill="#63b8ff" stroke="#63b8ff" points="295.11,-139.59 293.72,-129.09 288.26,-138.17 295.11,-139.59"/>
</a>
</g>
</g>
<!-- Node22 -->
<g id="Node000022" class="node">
<title>Node22</title>
<g id="a_Node000022"><a xlink:title=" ">
<polygon fill="#e0e0e0" stroke="#999999" points="145,-129 38,-129 38,-110 145,-110 145,-129"/>
<text text-anchor="middle" x="91.5" y="-117" font-family="Helvetica,sans-Serif" font-size="10.00">condition_variable</text>
</a>
</g>
</g>
<!-- Node21&#45;&gt;Node22 -->
<g id="edge34_Node000021_Node000022" class="edge">
<title>Node21&#45;&gt;Node22</title>
<g id="a_edge34_Node000021_Node000022"><a xlink:title=" ">
<path fill="none" stroke="#63b8ff" d="M253.49,-164.98C220.67,-155.97 168.7,-141.7 132.51,-131.76"/>
<polygon fill="#63b8ff" stroke="#63b8ff" points="133.32,-128.36 122.75,-129.08 131.47,-135.11 133.32,-128.36"/>
</a>
</g>
</g>
</g>
</svg>
