<?xml version="1.0" encoding="UTF-8" standalone="no"?>
<!DOCTYPE svg PUBLIC "-//W3C//DTD SVG 1.1//EN"
 "http://www.w3.org/Graphics/SVG/1.1/DTD/svg11.dtd">
<!-- Generated by graphviz version 2.43.0 (0)
 -->
<!-- Title: ChatMessage::to_json Pages: 1 -->
<svg width="479pt" height="192pt"
 viewBox="0.00 0.00 479.00 192.00" xmlns="http://www.w3.org/2000/svg" xmlns:xlink="http://www.w3.org/1999/xlink">
<g id="graph0" class="graph" transform="scale(1 1) rotate(0) translate(4 188)">
<title>ChatMessage::to_json</title>
<!-- Node1 -->
<g id="Node000001" class="node">
<title>Node1</title>
<g id="a_Node000001"><a xlink:title="Convert message to JSON representation.">
<polygon fill="#999999" stroke="#666666" points="471,-111 347,-111 347,-92 471,-92 471,-111"/>
<text text-anchor="middle" x="409" y="-99" font-family="Helvetica,sans-Serif" font-size="10.00">ChatMessage::to_json</text>
</a>
</g>
</g>
<!-- Node2 -->
<g id="Node000002" class="node">
<title>Node2</title>
<g id="a_Node000002"><a xlink:href="classLLMAgent.html#a61db559b8f31d3c5d52632139b184780" target="_top" xlink:title="Add a message to conversation history.">
<polygon fill="white" stroke="#666666" points="311,-157 173,-157 173,-138 311,-138 311,-157"/>
<text text-anchor="middle" x="242" y="-145" font-family="Helvetica,sans-Serif" font-size="10.00">LLMAgent::add_message</text>
</a>
</g>
</g>
<!-- Node1&#45;&gt;Node2 -->
<g id="edge1_Node000001_Node000002" class="edge">
<title>Node1&#45;&gt;Node2</title>
<g id="a_edge1_Node000001_Node000002"><a xlink:title=" ">
<path fill="none" stroke="#63b8ff" d="M364.13,-113.73C336.87,-121.33 302.35,-130.95 277.14,-137.98"/>
<polygon fill="#63b8ff" stroke="#63b8ff" points="365.12,-117.09 373.81,-111.03 363.24,-110.35 365.12,-117.09"/>
</a>
</g>
</g>
<!-- Node4 -->
<g id="Node000004" class="node">
<title>Node4</title>
<g id="a_Node000004"><a xlink:href="classLLMAgent.html#afa0fcd26e7cae3e81626bd9f61fc96d0" target="_top" xlink:title="Conduct a chat interaction.">
<polygon fill="white" stroke="#666666" points="288,-111 196,-111 196,-92 288,-92 288,-111"/>
<text text-anchor="middle" x="242" y="-99" font-family="Helvetica,sans-Serif" font-size="10.00">LLMAgent::chat</text>
</a>
</g>
</g>
<!-- Node1&#45;&gt;Node4 -->
<g id="edge4_Node000001_Node000004" class="edge">
<title>Node1&#45;&gt;Node4</title>
<g id="a_edge4_Node000001_Node000004"><a xlink:title=" ">
<path fill="none" stroke="#63b8ff" d="M336.47,-101.5C320.1,-101.5 303.15,-101.5 288.25,-101.5"/>
<polygon fill="#63b8ff" stroke="#63b8ff" points="336.56,-105 346.56,-101.5 336.56,-98 336.56,-105"/>
</a>
</g>
</g>
<!-- Node6 -->
<g id="Node000006" class="node">
<title>Node6</title>
<g id="a_Node000006"><a xlink:href="classLLMAgent.html#af4939eaa37cfbadc86672d06fe86739a" target="_top" xlink:title="Clear all conversation history.">
<polygon fill="white" stroke="#666666" points="309,-74 175,-74 175,-55 309,-55 309,-74"/>
<text text-anchor="middle" x="242" y="-62" font-family="Helvetica,sans-Serif" font-size="10.00">LLMAgent::clear_history</text>
</a>
</g>
</g>
<!-- Node1&#45;&gt;Node6 -->
<g id="edge7_Node000001_Node000006" class="edge">
<title>Node1&#45;&gt;Node6</title>
<g id="a_edge7_Node000001_Node000006"><a xlink:title=" ">
<path fill="none" stroke="#63b8ff" d="M355.73,-89.78C333.14,-84.71 307.03,-78.86 285.63,-74.06"/>
<polygon fill="#63b8ff" stroke="#63b8ff" points="354.98,-93.2 365.51,-91.97 356.52,-86.37 354.98,-93.2"/>
</a>
</g>
</g>
<!-- Node3 -->
<g id="Node000003" class="node">
<title>Node3</title>
<g id="a_Node000003"><a xlink:href="LLM__agent_8cpp.html#ad346fab0b6e0ec3b7af2b374de3dbae5" target="_top" xlink:title="Add message to history (C API)">
<polygon fill="white" stroke="#666666" points="137,-166 0,-166 0,-147 137,-147 137,-166"/>
<text text-anchor="middle" x="68.5" y="-154" font-family="Helvetica,sans-Serif" font-size="10.00">LLMAgent_Add_Message</text>
</a>
</g>
</g>
<!-- Node2&#45;&gt;Node3 -->
<g id="edge2_Node000002_Node000003" class="edge">
<title>Node2&#45;&gt;Node3</title>
<g id="a_edge2_Node000002_Node000003"><a xlink:title=" ">
<path fill="none" stroke="#63b8ff" d="M162.51,-151.62C154.08,-152.06 145.55,-152.51 137.26,-152.94"/>
<polygon fill="#63b8ff" stroke="#63b8ff" points="162.92,-155.1 172.73,-151.08 162.56,-148.11 162.92,-155.1"/>
</a>
</g>
</g>
<!-- Node3&#45;&gt;Node3 -->
<g id="edge3_Node000003_Node000003" class="edge">
<title>Node3&#45;&gt;Node3</title>
<g id="a_edge3_Node000003_Node000003"><a xlink:title=" ">
<path fill="none" stroke="#63b8ff" d="M100.69,-174.45C99.77,-179.82 89.04,-184 68.5,-184 37.93,-184 29.09,-174.73 41.99,-166.08"/>
<polygon fill="#63b8ff" stroke="#63b8ff" points="103.52,-172.39 95.01,-166.08 97.73,-176.32 103.52,-172.39"/>
</a>
</g>
</g>
<!-- Node5 -->
<g id="Node000005" class="node">
<title>Node5</title>
<g id="a_Node000005"><a xlink:href="LLM__agent_8cpp.html#ab8450c34bcec75882fbb979d8c078116" target="_top" xlink:title="Conduct chat interaction (C API)">
<polygon fill="white" stroke="#666666" points="114.5,-111 22.5,-111 22.5,-92 114.5,-92 114.5,-111"/>
<text text-anchor="middle" x="68.5" y="-99" font-family="Helvetica,sans-Serif" font-size="10.00">LLMAgent_Chat</text>
</a>
</g>
</g>
<!-- Node4&#45;&gt;Node5 -->
<g id="edge5_Node000004_Node000005" class="edge">
<title>Node4&#45;&gt;Node5</title>
<g id="a_edge5_Node000004_Node000005"><a xlink:title=" ">
<path fill="none" stroke="#63b8ff" d="M185.64,-101.5C162.66,-101.5 136.33,-101.5 114.56,-101.5"/>
<polygon fill="#63b8ff" stroke="#63b8ff" points="185.94,-105 195.94,-101.5 185.94,-98 185.94,-105"/>
</a>
</g>
</g>
<!-- Node5&#45;&gt;Node5 -->
<g id="edge6_Node000005_Node000005" class="edge">
<title>Node5&#45;&gt;Node5</title>
<g id="a_edge6_Node000005_Node000005"><a xlink:title=" ">
<path fill="none" stroke="#63b8ff" d="M100.69,-119.45C99.77,-124.82 89.04,-129 68.5,-129 37.93,-129 29.09,-119.73 41.99,-111.08"/>
<polygon fill="#63b8ff" stroke="#63b8ff" points="103.52,-117.39 95.01,-111.08 97.73,-121.32 103.52,-117.39"/>
</a>
</g>
</g>
<!-- Node7 -->
<g id="Node000007" class="node">
<title>Node7</title>
<g id="a_Node000007"><a xlink:href="classLLMAgent.html#a6937b028ea9592487e2c809c5ac64e6c" target="_top" xlink:title="Constructor for LLM agent.">
<polygon fill="white" stroke="#666666" points="128,-74 9,-74 9,-55 128,-55 128,-74"/>
<text text-anchor="middle" x="68.5" y="-62" font-family="Helvetica,sans-Serif" font-size="10.00">LLMAgent::LLMAgent</text>
</a>
</g>
</g>
<!-- Node6&#45;&gt;Node7 -->
<g id="edge8_Node000006_Node000007" class="edge">
<title>Node6&#45;&gt;Node7</title>
<g id="a_edge8_Node000006_Node000007"><a xlink:title=" ">
<path fill="none" stroke="#63b8ff" d="M164.51,-64.5C152.28,-64.5 139.8,-64.5 128.08,-64.5"/>
<polygon fill="#63b8ff" stroke="#63b8ff" points="164.69,-68 174.69,-64.5 164.69,-61 164.69,-68"/>
</a>
</g>
</g>
<!-- Node8 -->
<g id="Node000008" class="node">
<title>Node8</title>
<g id="a_Node000008"><a xlink:href="LLM__agent_8cpp.html#a5e0a07cda62c8ac7700f6c8414798ad5" target="_top" xlink:title="Clear conversation history (C API)">
<polygon fill="white" stroke="#666666" points="136.5,-19 0.5,-19 0.5,0 136.5,0 136.5,-19"/>
<text text-anchor="middle" x="68.5" y="-7" font-family="Helvetica,sans-Serif" font-size="10.00">LLMAgent_Clear_History</text>
</a>
</g>
</g>
<!-- Node6&#45;&gt;Node8 -->
<g id="edge9_Node000006_Node000008" class="edge">
<title>Node6&#45;&gt;Node8</title>
<g id="a_edge9_Node000006_Node000008"><a xlink:title=" ">
<path fill="none" stroke="#63b8ff" d="M201.46,-51.82C170.33,-41.84 127.62,-28.14 99.32,-19.06"/>
<polygon fill="#63b8ff" stroke="#63b8ff" points="200.54,-55.2 211.13,-54.92 202.67,-48.53 200.54,-55.2"/>
</a>
</g>
</g>
<!-- Node8&#45;&gt;Node8 -->
<g id="edge10_Node000008_Node000008" class="edge">
<title>Node8&#45;&gt;Node8</title>
<g id="a_edge10_Node000008_Node000008"><a xlink:title=" ">
<path fill="none" stroke="#63b8ff" d="M100.69,-27.45C99.77,-32.82 89.04,-37 68.5,-37 37.93,-37 29.09,-27.73 41.99,-19.08"/>
<polygon fill="#63b8ff" stroke="#63b8ff" points="103.52,-25.39 95.01,-19.08 97.73,-29.32 103.52,-25.39"/>
</a>
</g>
</g>
</g>
</svg>
