<?xml version="1.0" encoding="UTF-8" standalone="no"?>
<!DOCTYPE svg PUBLIC "-//W3C//DTD SVG 1.1//EN"
 "http://www.w3.org/Graphics/SVG/1.1/DTD/svg11.dtd">
<!-- Generated by graphviz version 2.43.0 (0)
 -->
<!-- Title: ChatMessage::to_json Pages: 1 -->
<svg width="1058pt" height="138pt"
 viewBox="0.00 0.00 1058.00 137.50" xmlns="http://www.w3.org/2000/svg" xmlns:xlink="http://www.w3.org/1999/xlink">
<g id="graph0" class="graph" transform="scale(1 1) rotate(0) translate(4 133.5)">
<title>ChatMessage::to_json</title>
<!-- Node1 -->
<g id="Node000001" class="node">
<title>Node1</title>
<g id="a_Node000001"><a xlink:title="Convert message to JSON representation.">
<polygon fill="#999999" stroke="#666666" points="1050,-107.5 926,-107.5 926,-88.5 1050,-88.5 1050,-107.5"/>
<text text-anchor="middle" x="988" y="-95.5" font-family="Helvetica,sans-Serif" font-size="10.00">ChatMessage::to_json</text>
</a>
</g>
</g>
<!-- Node2 -->
<g id="Node000002" class="node">
<title>Node2</title>
<g id="a_Node000002"><a xlink:href="classLLMAgent.html#a61db559b8f31d3c5d52632139b184780" target="_top" xlink:title="Add a message to conversation history.">
<polygon fill="white" stroke="#666666" points="889.5,-129.5 751.5,-129.5 751.5,-110.5 889.5,-110.5 889.5,-129.5"/>
<text text-anchor="middle" x="820.5" y="-117.5" font-family="Helvetica,sans-Serif" font-size="10.00">LLMAgent::add_message</text>
</a>
</g>
</g>
<!-- Node1&#45;&gt;Node2 -->
<g id="edge1_Node000001_Node000002" class="edge">
<title>Node1&#45;&gt;Node2</title>
<g id="a_edge1_Node000001_Node000002"><a xlink:title=" ">
<path fill="none" stroke="#63b8ff" d="M915.77,-107.47C907.11,-108.62 898.27,-109.79 889.65,-110.94"/>
<polygon fill="#63b8ff" stroke="#63b8ff" points="916.39,-110.92 925.84,-106.13 915.47,-103.98 916.39,-110.92"/>
</a>
</g>
</g>
<!-- Node3 -->
<g id="Node000003" class="node">
<title>Node3</title>
<g id="a_Node000003"><a xlink:href="classLLMAgent.html#a89677b14b18e12ffd6e0cd5c9064111b" target="_top" xlink:title="Build the full message list to send to the model.">
<polygon fill="white" stroke="#666666" points="890,-92 751,-92 751,-62 890,-62 890,-92"/>
<text text-anchor="start" x="759" y="-80" font-family="Helvetica,sans-Serif" font-size="10.00">LLMAgent::build_working</text>
<text text-anchor="middle" x="820.5" y="-69" font-family="Helvetica,sans-Serif" font-size="10.00">_history</text>
</a>
</g>
</g>
<!-- Node1&#45;&gt;Node3 -->
<g id="edge2_Node000001_Node000003" class="edge">
<title>Node1&#45;&gt;Node3</title>
<g id="a_edge2_Node000001_Node000003"><a xlink:title=" ">
<path fill="none" stroke="#63b8ff" d="M915.65,-88.95C907.22,-87.88 898.62,-86.78 890.21,-85.72"/>
<polygon fill="#63b8ff" stroke="#63b8ff" points="915.48,-92.45 925.84,-90.24 916.36,-85.51 915.48,-92.45"/>
</a>
</g>
</g>
<!-- Node4 -->
<g id="Node000004" class="node">
<title>Node4</title>
<g id="a_Node000004"><a xlink:href="classLLMAgent.html#aecac08f1cbc4ed079cc75bc98f08d4ce" target="_top" xlink:title="Conduct a chat interaction.">
<polygon fill="white" stroke="#666666" points="220,-103.5 128,-103.5 128,-84.5 220,-84.5 220,-103.5"/>
<text text-anchor="middle" x="174" y="-91.5" font-family="Helvetica,sans-Serif" font-size="10.00">LLMAgent::chat</text>
</a>
</g>
</g>
<!-- Node3&#45;&gt;Node4 -->
<g id="edge3_Node000003_Node000004" class="edge">
<title>Node3&#45;&gt;Node4</title>
<g id="a_edge3_Node000003_Node000004"><a xlink:title=" ">
<path fill="none" stroke="#63b8ff" d="M740.68,-89.48C732.03,-90.5 723.34,-91.38 715,-92 531.99,-105.66 313.13,-99.6 220.24,-95.99"/>
<polygon fill="#63b8ff" stroke="#63b8ff" points="741.3,-92.93 750.79,-88.22 740.43,-85.98 741.3,-92.93"/>
</a>
</g>
</g>
<!-- Node6 -->
<g id="Node000006" class="node">
<title>Node6</title>
<g id="a_Node000006"><a xlink:href="classLLMAgent.html#a152bf0a1849d69775af9a57144291f56" target="_top" xlink:title="Handle context overflow using the configured strategy before a chat call.">
<polygon fill="white" stroke="#666666" points="407,-84.5 256,-84.5 256,-65.5 407,-65.5 407,-84.5"/>
<text text-anchor="middle" x="331.5" y="-72.5" font-family="Helvetica,sans-Serif" font-size="10.00">LLMAgent::handle_overflow</text>
</a>
</g>
</g>
<!-- Node3&#45;&gt;Node6 -->
<g id="edge6_Node000003_Node000006" class="edge">
<title>Node3&#45;&gt;Node6</title>
<g id="a_edge6_Node000003_Node000006"><a xlink:title=" ">
<path fill="none" stroke="#63b8ff" d="M740.76,-77.83C732.07,-77.9 723.35,-77.96 715,-78 594.11,-78.58 563.88,-78.47 443,-77 431.39,-76.86 419.1,-76.67 407.09,-76.47"/>
<polygon fill="#63b8ff" stroke="#63b8ff" points="740.95,-81.33 750.92,-77.75 740.89,-74.33 740.95,-81.33"/>
</a>
</g>
</g>
<!-- Node7 -->
<g id="Node000007" class="node">
<title>Node7</title>
<g id="a_Node000007"><a xlink:href="classLLMAgent.html#a6486c1a1fc79c96bbc4442f722e0bba4" target="_top" xlink:title="Summarise the entire history (chunking if needed), embed summary in system message,...">
<polygon fill="white" stroke="#666666" points="568,-68 443,-68 443,-38 568,-38 568,-68"/>
<text text-anchor="start" x="451" y="-56" font-family="Helvetica,sans-Serif" font-size="10.00">LLMAgent::summarize</text>
<text text-anchor="middle" x="505.5" y="-45" font-family="Helvetica,sans-Serif" font-size="10.00">_history</text>
</a>
</g>
</g>
<!-- Node3&#45;&gt;Node7 -->
<g id="edge8_Node000003_Node000007" class="edge">
<title>Node3&#45;&gt;Node7</title>
<g id="a_edge8_Node000003_Node000007"><a xlink:title=" ">
<path fill="none" stroke="#63b8ff" d="M740.69,-70.96C687.22,-66.86 617.55,-61.51 568.14,-57.73"/>
<polygon fill="#63b8ff" stroke="#63b8ff" points="740.57,-74.46 750.81,-71.73 741.11,-67.48 740.57,-74.46"/>
</a>
</g>
</g>
<!-- Node8 -->
<g id="Node000008" class="node">
<title>Node8</title>
<g id="a_Node000008"><a xlink:href="classLLMAgent.html#a1b2ce4f2eddc64953186861d0415a2f5" target="_top" xlink:title="Remove oldest message pairs from the front until history fits within target_context_ratio.">
<polygon fill="white" stroke="#666666" points="715,-30 604,-30 604,0 715,0 715,-30"/>
<text text-anchor="start" x="612" y="-18" font-family="Helvetica,sans-Serif" font-size="10.00">LLMAgent::truncate</text>
<text text-anchor="middle" x="659.5" y="-7" font-family="Helvetica,sans-Serif" font-size="10.00">_history</text>
</a>
</g>
</g>
<!-- Node3&#45;&gt;Node8 -->
<g id="edge10_Node000003_Node000008" class="edge">
<title>Node3&#45;&gt;Node8</title>
<g id="a_edge10_Node000003_Node000008"><a xlink:title=" ">
<path fill="none" stroke="#63b8ff" d="M771.39,-58.24C748.27,-49.23 720.93,-38.57 699.19,-30.09"/>
<polygon fill="#63b8ff" stroke="#63b8ff" points="770.42,-61.62 781.01,-61.99 772.97,-55.1 770.42,-61.62"/>
</a>
</g>
</g>
<!-- Node5 -->
<g id="Node000005" class="node">
<title>Node5</title>
<g id="a_Node000005"><a xlink:href="LLM__agent_8cpp.html#ae783925557d9588c8e4f16e58ba116b2" target="_top" xlink:title="Conduct chat interaction (C API)">
<polygon fill="white" stroke="#666666" points="92,-103.5 0,-103.5 0,-84.5 92,-84.5 92,-103.5"/>
<text text-anchor="middle" x="46" y="-91.5" font-family="Helvetica,sans-Serif" font-size="10.00">LLMAgent_Chat</text>
</a>
</g>
</g>
<!-- Node4&#45;&gt;Node5 -->
<g id="edge4_Node000004_Node000005" class="edge">
<title>Node4&#45;&gt;Node5</title>
<g id="a_edge4_Node000004_Node000005"><a xlink:title=" ">
<path fill="none" stroke="#63b8ff" d="M117.65,-94C109.16,-94 100.48,-94 92.24,-94"/>
<polygon fill="#63b8ff" stroke="#63b8ff" points="117.87,-97.5 127.87,-94 117.87,-90.5 117.87,-97.5"/>
</a>
</g>
</g>
<!-- Node5&#45;&gt;Node5 -->
<g id="edge5_Node000005_Node000005" class="edge">
<title>Node5&#45;&gt;Node5</title>
<g id="a_edge5_Node000005_Node000005"><a xlink:title=" ">
<path fill="none" stroke="#63b8ff" d="M69.7,-113.05C68.12,-117.88 60.22,-121.5 46,-121.5 23.25,-121.5 16.67,-112.23 26.27,-103.58"/>
<polygon fill="#63b8ff" stroke="#63b8ff" points="72.83,-111.45 65.73,-103.58 66.37,-114.16 72.83,-111.45"/>
</a>
</g>
</g>
<!-- Node6&#45;&gt;Node4 -->
<g id="edge7_Node000006_Node000004" class="edge">
<title>Node6&#45;&gt;Node4</title>
<g id="a_edge7_Node000006_Node000004"><a xlink:title=" ">
<path fill="none" stroke="#63b8ff" d="M245.96,-85.33C237.15,-86.41 228.46,-87.47 220.34,-88.46"/>
<polygon fill="#63b8ff" stroke="#63b8ff" points="246.44,-88.8 255.94,-84.11 245.59,-81.85 246.44,-88.8"/>
</a>
</g>
</g>
<!-- Node7&#45;&gt;Node6 -->
<g id="edge9_Node000007_Node000006" class="edge">
<title>Node7&#45;&gt;Node6</title>
<g id="a_edge9_Node000007_Node000006"><a xlink:title=" ">
<path fill="none" stroke="#63b8ff" d="M432.92,-62.16C424.32,-63.26 415.53,-64.38 406.9,-65.48"/>
<polygon fill="#63b8ff" stroke="#63b8ff" points="433.41,-65.62 442.89,-60.88 432.53,-58.68 433.41,-65.62"/>
</a>
</g>
</g>
<!-- Node8&#45;&gt;Node6 -->
<g id="edge11_Node000008_Node000006" class="edge">
<title>Node8&#45;&gt;Node6</title>
<g id="a_edge11_Node000008_Node000006"><a xlink:title=" ">
<path fill="none" stroke="#63b8ff" d="M593.65,-13.69C550.44,-14.16 492.68,-17.38 443,-29 408.8,-36.99 371.6,-54.48 350.26,-65.44"/>
<polygon fill="#63b8ff" stroke="#63b8ff" points="593.77,-17.19 603.75,-13.63 593.73,-10.19 593.77,-17.19"/>
</a>
</g>
</g>
<!-- Node8&#45;&gt;Node7 -->
<g id="edge12_Node000008_Node000007" class="edge">
<title>Node8&#45;&gt;Node7</title>
<g id="a_edge12_Node000008_Node000007"><a xlink:title=" ">
<path fill="none" stroke="#63b8ff" d="M593.65,-31.21C584.7,-33.45 575.55,-35.74 566.7,-37.95"/>
<polygon fill="#63b8ff" stroke="#63b8ff" points="594.77,-34.54 603.62,-28.72 593.07,-27.75 594.77,-34.54"/>
</a>
</g>
</g>
</g>
</svg>
