<?xml version="1.0" encoding="UTF-8" standalone="no"?>
<!DOCTYPE svg PUBLIC "-//W3C//DTD SVG 1.1//EN"
 "http://www.w3.org/Graphics/SVG/1.1/DTD/svg11.dtd">
<!-- Generated by graphviz version 2.43.0 (0)
 -->
<!-- Title: ChatMessage::to_json Pages: 1 -->
<svg width="434pt" height="64pt"
 viewBox="0.00 0.00 434.00 64.00" xmlns="http://www.w3.org/2000/svg" xmlns:xlink="http://www.w3.org/1999/xlink">
<g id="graph0" class="graph" transform="scale(1 1) rotate(0) translate(4 60)">
<title>ChatMessage::to_json</title>
<!-- Node1 -->
<g id="Node000001" class="node">
<title>Node1</title>
<g id="a_Node000001"><a xlink:title="Convert message to JSON representation.">
<polygon fill="#999999" stroke="#666666" points="426,-37 302,-37 302,-18 426,-18 426,-37"/>
<text text-anchor="middle" x="364" y="-25" font-family="Helvetica,sans-Serif" font-size="10.00">ChatMessage::to_json</text>
</a>
</g>
</g>
<!-- Node2 -->
<g id="Node000002" class="node">
<title>Node2</title>
<g id="a_Node000002"><a xlink:href="classLLMAgent.html#a61db559b8f31d3c5d52632139b184780" target="_top" xlink:title="Add a message to conversation history.">
<polygon fill="white" stroke="#666666" points="266,-56 128,-56 128,-37 266,-37 266,-56"/>
<text text-anchor="middle" x="197" y="-44" font-family="Helvetica,sans-Serif" font-size="10.00">LLMAgent::add_message</text>
</a>
</g>
</g>
<!-- Node1&#45;&gt;Node2 -->
<g id="edge1_Node000001_Node000002" class="edge">
<title>Node1&#45;&gt;Node2</title>
<g id="a_edge1_Node000001_Node000002"><a xlink:title=" ">
<path fill="none" stroke="#63b8ff" d="M291.42,-35.74C283.03,-36.71 274.49,-37.69 266.15,-38.65"/>
<polygon fill="#63b8ff" stroke="#63b8ff" points="292.03,-39.2 301.56,-34.57 291.23,-32.24 292.03,-39.2"/>
</a>
</g>
</g>
<!-- Node3 -->
<g id="Node000003" class="node">
<title>Node3</title>
<g id="a_Node000003"><a xlink:href="classLLMAgent.html#aecac08f1cbc4ed079cc75bc98f08d4ce" target="_top" xlink:title="Conduct a chat interaction.">
<polygon fill="white" stroke="#666666" points="243,-19 151,-19 151,0 243,0 243,-19"/>
<text text-anchor="middle" x="197" y="-7" font-family="Helvetica,sans-Serif" font-size="10.00">LLMAgent::chat</text>
</a>
</g>
</g>
<!-- Node1&#45;&gt;Node3 -->
<g id="edge2_Node000001_Node000003" class="edge">
<title>Node1&#45;&gt;Node3</title>
<g id="a_edge2_Node000001_Node000003"><a xlink:title=" ">
<path fill="none" stroke="#63b8ff" d="M291.47,-19.7C275.1,-17.91 258.15,-16.06 243.25,-14.44"/>
<polygon fill="#63b8ff" stroke="#63b8ff" points="291.24,-23.19 301.56,-20.8 292,-16.23 291.24,-23.19"/>
</a>
</g>
</g>
<!-- Node4 -->
<g id="Node000004" class="node">
<title>Node4</title>
<g id="a_Node000004"><a xlink:href="LLM__agent_8cpp.html#ae783925557d9588c8e4f16e58ba116b2" target="_top" xlink:title="Conduct chat interaction (C API)">
<polygon fill="white" stroke="#666666" points="92,-19 0,-19 0,0 92,0 92,-19"/>
<text text-anchor="middle" x="46" y="-7" font-family="Helvetica,sans-Serif" font-size="10.00">LLMAgent_Chat</text>
</a>
</g>
</g>
<!-- Node3&#45;&gt;Node4 -->
<g id="edge3_Node000003_Node000004" class="edge">
<title>Node3&#45;&gt;Node4</title>
<g id="a_edge3_Node000003_Node000004"><a xlink:title=" ">
<path fill="none" stroke="#63b8ff" d="M140.62,-9.5C124.67,-9.5 107.47,-9.5 92.21,-9.5"/>
<polygon fill="#63b8ff" stroke="#63b8ff" points="140.89,-13 150.89,-9.5 140.89,-6 140.89,-13"/>
</a>
</g>
</g>
<!-- Node4&#45;&gt;Node4 -->
<g id="edge4_Node000004_Node000004" class="edge">
<title>Node4&#45;&gt;Node4</title>
<g id="a_edge4_Node000004_Node000004"><a xlink:title=" ">
<path fill="none" stroke="#63b8ff" d="M74,-27.82C72.83,-33.01 63.5,-37 46,-37 19.34,-37 11.63,-27.73 22.88,-19.08"/>
<polygon fill="#63b8ff" stroke="#63b8ff" points="77.05,-26.11 69.12,-19.08 70.94,-29.52 77.05,-26.11"/>
</a>
</g>
</g>
</g>
</svg>
