<?xml version="1.0" encoding="UTF-8" standalone="no"?>
<!DOCTYPE svg PUBLIC "-//W3C//DTD SVG 1.1//EN"
 "http://www.w3.org/Graphics/SVG/1.1/DTD/svg11.dtd">
<!-- Generated by graphviz version 2.43.0 (0)
 -->
<!-- Title: ChatMessage::to_json Pages: 1 -->
<svg width="1058pt" height="135pt"
 viewBox="0.00 0.00 1058.00 134.50" xmlns="http://www.w3.org/2000/svg" xmlns:xlink="http://www.w3.org/1999/xlink">
<g id="graph0" class="graph" transform="scale(1 1) rotate(0) translate(4 130.5)">
<title>ChatMessage::to_json</title>
<!-- Node1 -->
<g id="Node000001" class="node">
<title>Node1</title>
<g id="a_Node000001"><a xlink:title="Convert message to JSON representation.">
<polygon fill="#999999" stroke="#666666" points="1050,-65.5 926,-65.5 926,-46.5 1050,-46.5 1050,-65.5"/>
<text text-anchor="middle" x="988" y="-53.5" font-family="Helvetica,sans-Serif" font-size="10.00">ChatMessage::to_json</text>
</a>
</g>
</g>
<!-- Node2 -->
<g id="Node000002" class="node">
<title>Node2</title>
<g id="a_Node000002"><a xlink:href="classLLMAgent.html#a61db559b8f31d3c5d52632139b184780" target="_top" xlink:title="Add a message to conversation history.">
<polygon fill="white" stroke="#666666" points="889.5,-108.5 751.5,-108.5 751.5,-89.5 889.5,-89.5 889.5,-108.5"/>
<text text-anchor="middle" x="820.5" y="-96.5" font-family="Helvetica,sans-Serif" font-size="10.00">LLMAgent::add_message</text>
</a>
</g>
</g>
<!-- Node1&#45;&gt;Node2 -->
<g id="edge1_Node000001_Node000002" class="edge">
<title>Node1&#45;&gt;Node2</title>
<g id="a_edge1_Node000001_Node000002"><a xlink:title=" ">
<path fill="none" stroke="#63b8ff" d="M940.25,-68.15C914.23,-74.91 882.32,-83.2 858.13,-89.48"/>
<polygon fill="#63b8ff" stroke="#63b8ff" points="941.47,-71.45 950.27,-65.54 939.71,-64.67 941.47,-71.45"/>
</a>
</g>
</g>
<!-- Node3 -->
<g id="Node000003" class="node">
<title>Node3</title>
<g id="a_Node000003"><a xlink:href="classLLMAgent.html#a0aa1c2bd687d3178c533260e9b65bb99" target="_top" xlink:title="Build the full message list to send to the model.">
<polygon fill="white" stroke="#666666" points="890,-71 751,-71 751,-41 890,-41 890,-71"/>
<text text-anchor="start" x="759" y="-59" font-family="Helvetica,sans-Serif" font-size="10.00">LLMAgent::build_working</text>
<text text-anchor="middle" x="820.5" y="-48" font-family="Helvetica,sans-Serif" font-size="10.00">_history</text>
</a>
</g>
</g>
<!-- Node1&#45;&gt;Node3 -->
<g id="edge2_Node000001_Node000003" class="edge">
<title>Node1&#45;&gt;Node3</title>
<g id="a_edge2_Node000001_Node000003"><a xlink:title=" ">
<path fill="none" stroke="#63b8ff" d="M915.65,-56C907.22,-56 898.62,-56 890.21,-56"/>
<polygon fill="#63b8ff" stroke="#63b8ff" points="915.84,-59.5 925.84,-56 915.84,-52.5 915.84,-59.5"/>
</a>
</g>
</g>
<!-- Node7 -->
<g id="Node000007" class="node">
<title>Node7</title>
<g id="a_Node000007"><a xlink:href="classLLMAgent.html#a6486c1a1fc79c96bbc4442f722e0bba4" target="_top" xlink:title="Summarise the entire history (chunking if needed), embed summary in system message,...">
<polygon fill="white" stroke="#666666" points="568,-30 443,-30 443,0 568,0 568,-30"/>
<text text-anchor="start" x="451" y="-18" font-family="Helvetica,sans-Serif" font-size="10.00">LLMAgent::summarize</text>
<text text-anchor="middle" x="505.5" y="-7" font-family="Helvetica,sans-Serif" font-size="10.00">_history</text>
</a>
</g>
</g>
<!-- Node1&#45;&gt;Node7 -->
<g id="edge13_Node000001_Node000007" class="edge">
<title>Node1&#45;&gt;Node7</title>
<g id="a_edge13_Node000001_Node000007"><a xlink:title=" ">
<path fill="none" stroke="#63b8ff" d="M944.01,-43.82C927.27,-39.49 907.86,-34.96 890,-32 777.57,-13.39 644.23,-12.06 568.08,-13.22"/>
<polygon fill="#63b8ff" stroke="#63b8ff" points="943.48,-47.3 954.05,-46.48 945.28,-40.54 943.48,-47.3"/>
</a>
</g>
</g>
<!-- Node4 -->
<g id="Node000004" class="node">
<title>Node4</title>
<g id="a_Node000004"><a xlink:href="classLLMAgent.html#aecac08f1cbc4ed079cc75bc98f08d4ce" target="_top" xlink:title="Conduct a chat interaction.">
<polygon fill="white" stroke="#666666" points="220,-108.5 128,-108.5 128,-89.5 220,-89.5 220,-108.5"/>
<text text-anchor="middle" x="174" y="-96.5" font-family="Helvetica,sans-Serif" font-size="10.00">LLMAgent::chat</text>
</a>
</g>
</g>
<!-- Node3&#45;&gt;Node4 -->
<g id="edge3_Node000003_Node000004" class="edge">
<title>Node3&#45;&gt;Node4</title>
<g id="a_edge3_Node000003_Node000004"><a xlink:title=" ">
<path fill="none" stroke="#63b8ff" d="M764.46,-74.59C759.88,-76.35 755.34,-78.16 751,-80 734.53,-86.97 732.34,-93.59 715,-98 536.45,-143.37 313.85,-119.68 220.02,-106.22"/>
<polygon fill="#63b8ff" stroke="#63b8ff" points="765.73,-77.86 773.87,-71.08 763.28,-71.3 765.73,-77.86"/>
</a>
</g>
</g>
<!-- Node6 -->
<g id="Node000006" class="node">
<title>Node6</title>
<g id="a_Node000006"><a xlink:href="classLLMAgent.html#a152bf0a1849d69775af9a57144291f56" target="_top" xlink:title="Handle context overflow using the configured strategy before a chat call.">
<polygon fill="white" stroke="#666666" points="407,-89.5 256,-89.5 256,-70.5 407,-70.5 407,-89.5"/>
<text text-anchor="middle" x="331.5" y="-77.5" font-family="Helvetica,sans-Serif" font-size="10.00">LLMAgent::handle_overflow</text>
</a>
</g>
</g>
<!-- Node3&#45;&gt;Node6 -->
<g id="edge6_Node000003_Node000006" class="edge">
<title>Node3&#45;&gt;Node6</title>
<g id="a_edge6_Node000003_Node000006"><a xlink:title=" ">
<path fill="none" stroke="#63b8ff" d="M753.9,-73.3C741.08,-76.04 727.69,-78.47 715,-80 608.69,-92.78 484.54,-89.46 407.22,-85.25"/>
<polygon fill="#63b8ff" stroke="#63b8ff" points="755.03,-76.63 764.03,-71.04 753.5,-69.8 755.03,-76.63"/>
</a>
</g>
</g>
<!-- Node3&#45;&gt;Node7 -->
<g id="edge8_Node000003_Node000007" class="edge">
<title>Node3&#45;&gt;Node7</title>
<g id="a_edge8_Node000003_Node000007"><a xlink:title=" ">
<path fill="none" stroke="#63b8ff" d="M751.01,-38.79C739.06,-36.21 726.71,-33.81 715,-32 666.01,-24.42 609.98,-20.09 568.36,-17.7"/>
<polygon fill="#63b8ff" stroke="#63b8ff" points="750.41,-42.24 760.93,-40.98 751.92,-35.4 750.41,-42.24"/>
</a>
</g>
</g>
<!-- Node8 -->
<g id="Node000008" class="node">
<title>Node8</title>
<g id="a_Node000008"><a xlink:href="classLLMAgent.html#a1b2ce4f2eddc64953186861d0415a2f5" target="_top" xlink:title="Remove oldest message pairs from the front until history fits within target_context_ratio.">
<polygon fill="white" stroke="#666666" points="715,-71 604,-71 604,-41 715,-41 715,-71"/>
<text text-anchor="start" x="612" y="-59" font-family="Helvetica,sans-Serif" font-size="10.00">LLMAgent::truncate</text>
<text text-anchor="middle" x="659.5" y="-48" font-family="Helvetica,sans-Serif" font-size="10.00">_history</text>
</a>
</g>
</g>
<!-- Node3&#45;&gt;Node8 -->
<g id="edge10_Node000003_Node000008" class="edge">
<title>Node3&#45;&gt;Node8</title>
<g id="a_edge10_Node000003_Node000008"><a xlink:title=" ">
<path fill="none" stroke="#63b8ff" d="M740.58,-56C731.94,-56 723.3,-56 715.05,-56"/>
<polygon fill="#63b8ff" stroke="#63b8ff" points="740.69,-59.5 750.69,-56 740.69,-52.5 740.69,-59.5"/>
</a>
</g>
</g>
<!-- Node5 -->
<g id="Node000005" class="node">
<title>Node5</title>
<g id="a_Node000005"><a xlink:href="LLM__agent_8cpp.html#ae783925557d9588c8e4f16e58ba116b2" target="_top" xlink:title="Conduct chat interaction (C API)">
<polygon fill="white" stroke="#666666" points="92,-108.5 0,-108.5 0,-89.5 92,-89.5 92,-108.5"/>
<text text-anchor="middle" x="46" y="-96.5" font-family="Helvetica,sans-Serif" font-size="10.00">LLMAgent_Chat</text>
</a>
</g>
</g>
<!-- Node4&#45;&gt;Node5 -->
<g id="edge4_Node000004_Node000005" class="edge">
<title>Node4&#45;&gt;Node5</title>
<g id="a_edge4_Node000004_Node000005"><a xlink:title=" ">
<path fill="none" stroke="#63b8ff" d="M117.65,-99C109.16,-99 100.48,-99 92.24,-99"/>
<polygon fill="#63b8ff" stroke="#63b8ff" points="117.87,-102.5 127.87,-99 117.87,-95.5 117.87,-102.5"/>
</a>
</g>
</g>
<!-- Node5&#45;&gt;Node5 -->
<g id="edge5_Node000005_Node000005" class="edge">
<title>Node5&#45;&gt;Node5</title>
<g id="a_edge5_Node000005_Node000005"><a xlink:title=" ">
<path fill="none" stroke="#63b8ff" d="M69.7,-118.05C68.12,-122.88 60.22,-126.5 46,-126.5 23.25,-126.5 16.67,-117.23 26.27,-108.58"/>
<polygon fill="#63b8ff" stroke="#63b8ff" points="72.83,-116.45 65.73,-108.58 66.37,-119.16 72.83,-116.45"/>
</a>
</g>
</g>
<!-- Node6&#45;&gt;Node4 -->
<g id="edge7_Node000006_Node000004" class="edge">
<title>Node6&#45;&gt;Node4</title>
<g id="a_edge7_Node000006_Node000004"><a xlink:title=" ">
<path fill="none" stroke="#63b8ff" d="M245.96,-90.33C237.15,-91.41 228.46,-92.47 220.34,-93.46"/>
<polygon fill="#63b8ff" stroke="#63b8ff" points="246.44,-93.8 255.94,-89.11 245.59,-86.85 246.44,-93.8"/>
</a>
</g>
</g>
<!-- Node7&#45;&gt;Node6 -->
<g id="edge9_Node000007_Node000006" class="edge">
<title>Node7&#45;&gt;Node6</title>
<g id="a_edge9_Node000007_Node000006"><a xlink:title=" ">
<path fill="none" stroke="#63b8ff" d="M455.03,-33.7C423.23,-45.71 383.26,-60.82 357.79,-70.44"/>
<polygon fill="#63b8ff" stroke="#63b8ff" points="456.49,-36.88 464.61,-30.08 454.02,-30.34 456.49,-36.88"/>
</a>
</g>
</g>
<!-- Node8&#45;&gt;Node6 -->
<g id="edge11_Node000008_Node000006" class="edge">
<title>Node8&#45;&gt;Node6</title>
<g id="a_edge11_Node000008_Node000006"><a xlink:title=" ">
<path fill="none" stroke="#63b8ff" d="M593.83,-60.76C540.06,-64.72 463.48,-70.36 407.11,-74.51"/>
<polygon fill="#63b8ff" stroke="#63b8ff" points="594.22,-64.24 603.93,-60.02 593.7,-57.26 594.22,-64.24"/>
</a>
</g>
</g>
<!-- Node8&#45;&gt;Node7 -->
<g id="edge12_Node000008_Node000007" class="edge">
<title>Node8&#45;&gt;Node7</title>
<g id="a_edge12_Node000008_Node000007"><a xlink:title=" ">
<path fill="none" stroke="#63b8ff" d="M593.72,-38.53C583.27,-35.71 572.53,-32.81 562.32,-30.06"/>
<polygon fill="#63b8ff" stroke="#63b8ff" points="593.06,-41.97 603.62,-41.2 594.88,-35.21 593.06,-41.97"/>
</a>
</g>
</g>
</g>
</svg>
